M48
METRIC,LZ,000.000
;FILE_FORMAT=3:3
;TYPE=PLATED
;Layer: PTH_Through_Via
;EasyEDA v6.5.51, 2025-09-17 10:05:17
;8dd670bb74ed44c38c9ca3603acddd9d,c9b9c57424e64463a8e00cf53a76285a,10
;Gerber Generator version 0.2
;Holesize 1 = 0.306 mm
T01C0.306
;Holesize 2 = 0.351 mm
T02C0.351
;Holesize 3 = 0.400 mm
T03C0.400
%
G05
G90
T01
X051486Y077149
X066793Y053391
X082858Y052551
X046101Y064150
X045087Y060702
X063844Y047872
X056602Y048607
X074851Y048607
X065249Y046459
X069766Y058327
X076523Y047120
X049910Y054527
X089446Y049796
X052648Y049162
X048163Y053869
X048908Y052298
X087695Y052013
X059739Y054026
X084030Y053633
X053155Y070739
T02
X067501Y066143
X064438Y045697
X062119Y062811
X063037Y044284
X070005Y042648
T03
X067977Y063731
M30
