M48
METRIC,LZ,000.000
;FILE_FORMAT=3:3
;TYPE=PLATED
;Layer: PTH_Through
;EasyEDA v6.5.51, 2025-09-17 10:05:17
;8dd670bb74ed44c38c9ca3603acddd9d,c9b9c57424e64463a8e00cf53a76285a,10
;Gerber Generator version 0.2
;Holesize 1 = 0.306 mm
T01C0.306
;Holesize 2 = 0.351 mm
T02C0.351
;Holesize 3 = 0.400 mm
T03C0.400
;Holesize 4 = 0.701 mm
T04C0.701
;Holesize 5 = 0.800 mm
T05C0.800
;Holesize 6 = 0.914 mm
T06C0.914
;Holesize 7 = 0.915 mm
T07C0.915
;Holesize 8 = 0.916 mm
T08C0.916
;Holesize 9 = 1.000 mm
T09C1.000
;Holesize 10 = 1.101 mm
T10C1.101
;Holesize 11 = 1.501 mm
T11C1.501
;Holesize 12 = 1.701 mm
T12C1.701
%
G05
G90
T01
X051486Y077149
X066793Y053391
X082858Y052551
X046101Y064150
X045087Y060702
X063844Y047872
X056602Y048607
X074851Y048607
X065249Y046459
X069766Y058327
X076523Y047120
X049910Y054527
X089446Y049796
X052648Y049162
X048163Y053869
X048908Y052298
X087695Y052013
X059739Y054026
X084030Y053633
X053155Y070739
T02
X067501Y066143
X064438Y045697
X062119Y062811
X063037Y044284
X070005Y042648
T03
X067977Y063731
T04
X034501Y078359
X045001Y078359
X047709Y078232
X058209Y078232
X034374Y070739
X044874Y070739
X047836Y070739
X058336Y070739
X034501Y063119
X045001Y063119
X047836Y062992
X058336Y062992
X034374Y055499
X044874Y055499
X047963Y055499
X058463Y055499
X015705Y043688
X026205Y043688
T05
X060214Y040513
X062214Y040513
T06
X027302Y059901
X011302Y059901
X011302Y069901
X027302Y069901
T07
X066167Y066251
X066167Y076751
X069723Y066378
X069723Y076878
X087884Y044699
X090424Y044699
X092964Y044699
X095504Y044699
X098044Y044699
X100584Y044699
X103124Y044699
X105664Y044699
X085344Y044699
X082804Y044699
X080264Y044699
X077724Y044699
X075184Y044699
X072644Y044699
X070231Y059949
X072771Y059949
X075311Y059949
X077851Y059949
X080391Y059949
X082931Y059949
X085471Y059949
X105791Y059949
X103251Y059949
X100711Y059949
X098171Y059949
X095631Y059949
X093091Y059949
X090551Y059949
X088011Y059949
T08
X070104Y044699
T09
X050447Y047879
X053947Y047879
X041247Y048006
X037747Y048006
X027051Y081407
X024511Y081407
X073787Y077343G85X073787Y077343
X073787Y079883G85X073787Y079883
X073787Y074803G85X073787Y074803
X073787Y072263G85X073787Y072263
X073787Y069723G85X073787Y069723
X073787Y067183G85X073787Y067183
T10
X066421Y081153
X068961Y081153
X018161Y039624
X020701Y039624
X023241Y039624
X054864Y059309
X052324Y059309
X049784Y059309
X036957Y059309
X039497Y059309
X042037Y059309
X054737Y066929
X052197Y066929
X049657Y066929
X036957Y066802
X039497Y066802
X042037Y066802
X054864Y074295
X052324Y074295
X049784Y074295
X036957Y074549
X039497Y074549
X042037Y074549
X054864Y082042
X052324Y082042
X049784Y082042
X036957Y082169
X039497Y082169
X042037Y082169
X011811Y039624
X011811Y042164
X011811Y044704
X011811Y047244
X097790Y039751
X100330Y039751
X102870Y039751
X105410Y039751
X054483Y039624
X051943Y039624
X049403Y039624
X046863Y039624
X044323Y039624
X041783Y039624
X039243Y039624
X036703Y039624
T11
X015621Y075986
X015621Y080986
T12
X013208Y053340
X028448Y053340
M30
