G04 Layer: TopLayer*
G04 EasyEDA v6.5.51, 2025-09-17 10:05:17*
G04 8dd670bb74ed44c38c9ca3603acddd9d,c9b9c57424e64463a8e00cf53a76285a,10*
G04 Gerber Generator version 0.2*
G04 Scale: 100 percent, Rotated: No, Reflected: No *
G04 Dimensions in millimeters *
G04 leading zeros omitted , absolute positions ,4 integer and 5 decimal *
%FSLAX45Y45*%
%MOMM*%

%AMMACRO1*21,1,$1,$2,0,0,$3*%
%ADD10C,0.3500*%
%ADD11C,0.6000*%
%ADD12C,0.4000*%
%ADD13C,1.6000*%
%ADD14C,1.8000*%
%ADD15R,1.8000X1.8000*%
%ADD16C,1.3000*%
%ADD17R,3.0000X3.0000*%
%ADD18R,0.0144X3.0000*%
%ADD19C,3.0000*%
%ADD20C,2.3000*%
%ADD21R,1.7000X1.7000*%
%ADD22C,1.7000*%
%ADD23C,1.4000*%
%ADD24MACRO1,2.0015X2.0015X90.0000*%
%ADD25C,1.5080*%
%ADD26R,1.5080X1.5080*%
%ADD27R,1.5748X1.7000*%
%ADD28C,2.0000*%
%ADD29R,1.5240X2.0000*%
%ADD30C,0.6100*%
%ADD31C,0.7000*%
%ADD32C,0.8000*%

%LPD*%
G36*
X900836Y3581908D02*
G01*
X882446Y3582822D01*
X865581Y3585413D01*
X849020Y3589578D01*
X832916Y3595370D01*
X817524Y3602736D01*
X802894Y3611575D01*
X789228Y3621786D01*
X776579Y3633266D01*
X765149Y3645966D01*
X754989Y3659733D01*
X746252Y3674414D01*
X739038Y3689858D01*
X733298Y3705961D01*
X729183Y3722522D01*
X726744Y3739438D01*
X725932Y3756863D01*
X725932Y8299145D01*
X726846Y8317534D01*
X729386Y8334400D01*
X733602Y8350961D01*
X739394Y8367064D01*
X746760Y8382457D01*
X755548Y8397087D01*
X765759Y8410752D01*
X777290Y8423402D01*
X789990Y8434832D01*
X803706Y8444992D01*
X818388Y8453729D01*
X833882Y8460943D01*
X849934Y8466683D01*
X866546Y8470798D01*
X883412Y8473236D01*
X900836Y8474049D01*
X10924336Y8474049D01*
X10942726Y8473135D01*
X10959642Y8470595D01*
X10976152Y8466378D01*
X10992256Y8460587D01*
X11007648Y8453221D01*
X11022279Y8444433D01*
X11035995Y8434222D01*
X11048593Y8422690D01*
X11060023Y8409990D01*
X11070183Y8396274D01*
X11078921Y8381593D01*
X11086134Y8366099D01*
X11091875Y8350046D01*
X11095990Y8333435D01*
X11098428Y8316569D01*
X11099292Y8299145D01*
X11099292Y3756863D01*
X11098326Y3738422D01*
X11095786Y3721557D01*
X11091570Y3704996D01*
X11085779Y3688943D01*
X11078413Y3673500D01*
X11069624Y3658870D01*
X11059414Y3645204D01*
X11047882Y3632555D01*
X11035182Y3621125D01*
X11021466Y3611016D01*
X11006785Y3602278D01*
X10991342Y3595014D01*
X10975238Y3589324D01*
X10958626Y3585210D01*
X10941761Y3582720D01*
X10924336Y3581908D01*
G37*

%LPC*%
G36*
X4127398Y3784854D02*
G01*
X6663944Y3784904D01*
X6672224Y3786073D01*
X6679793Y3788613D01*
X6686803Y3792474D01*
X6693306Y3797909D01*
X7118959Y4223562D01*
X7122261Y4225747D01*
X7126173Y4226509D01*
X9860127Y4226560D01*
X9868357Y4227728D01*
X9875977Y4230268D01*
X9882936Y4234180D01*
X9889490Y4239564D01*
X10000742Y4350867D01*
X10004145Y4353102D01*
X10008158Y4353814D01*
X10012121Y4352950D01*
X10013746Y4352188D01*
X10028275Y4347667D01*
X10043210Y4344924D01*
X10058400Y4344009D01*
X10073589Y4344924D01*
X10088524Y4347667D01*
X10103053Y4352188D01*
X10116921Y4358436D01*
X10129926Y4366310D01*
X10141864Y4375658D01*
X10152634Y4386427D01*
X10161981Y4398365D01*
X10169855Y4411421D01*
X10176154Y4425340D01*
X10178338Y4428490D01*
X10181590Y4430572D01*
X10185400Y4431284D01*
X10189210Y4430572D01*
X10192461Y4428490D01*
X10194645Y4425340D01*
X10200944Y4411421D01*
X10208818Y4398365D01*
X10218166Y4386427D01*
X10228935Y4375658D01*
X10240873Y4366310D01*
X10253878Y4358436D01*
X10267746Y4352188D01*
X10282275Y4347667D01*
X10297210Y4344924D01*
X10312400Y4344009D01*
X10327589Y4344924D01*
X10342524Y4347667D01*
X10357053Y4352188D01*
X10370921Y4358436D01*
X10383926Y4366310D01*
X10395864Y4375658D01*
X10406634Y4386427D01*
X10415981Y4398365D01*
X10423855Y4411421D01*
X10430154Y4425340D01*
X10432338Y4428490D01*
X10435590Y4430572D01*
X10439400Y4431284D01*
X10443210Y4430572D01*
X10446461Y4428490D01*
X10448645Y4425340D01*
X10454944Y4411421D01*
X10462818Y4398365D01*
X10472166Y4386427D01*
X10482935Y4375658D01*
X10494873Y4366310D01*
X10507878Y4358436D01*
X10521746Y4352188D01*
X10536275Y4347667D01*
X10551210Y4344924D01*
X10566400Y4344009D01*
X10581589Y4344924D01*
X10596524Y4347667D01*
X10611053Y4352188D01*
X10624921Y4358436D01*
X10637926Y4366310D01*
X10649864Y4375658D01*
X10660634Y4386427D01*
X10669981Y4398365D01*
X10677855Y4411421D01*
X10684103Y4425238D01*
X10688624Y4439767D01*
X10691368Y4454702D01*
X10692282Y4469892D01*
X10691368Y4485081D01*
X10688624Y4500016D01*
X10684103Y4514545D01*
X10677855Y4528413D01*
X10669981Y4541418D01*
X10660634Y4553356D01*
X10649864Y4564126D01*
X10637926Y4573524D01*
X10624921Y4581347D01*
X10611053Y4587595D01*
X10596524Y4592116D01*
X10581589Y4594860D01*
X10566400Y4595774D01*
X10551210Y4594860D01*
X10536275Y4592116D01*
X10521746Y4587595D01*
X10507878Y4581347D01*
X10494873Y4573524D01*
X10482935Y4564126D01*
X10472166Y4553356D01*
X10462818Y4541418D01*
X10454944Y4528413D01*
X10448645Y4514494D01*
X10446461Y4511344D01*
X10443210Y4509211D01*
X10439400Y4508500D01*
X10435590Y4509211D01*
X10432338Y4511344D01*
X10430154Y4514494D01*
X10423855Y4528413D01*
X10415981Y4541418D01*
X10406634Y4553356D01*
X10395864Y4564126D01*
X10383926Y4573524D01*
X10370921Y4581347D01*
X10357053Y4587595D01*
X10342524Y4592116D01*
X10327589Y4594860D01*
X10312400Y4595774D01*
X10297210Y4594860D01*
X10282275Y4592116D01*
X10267746Y4587595D01*
X10253878Y4581347D01*
X10240873Y4573524D01*
X10228935Y4564126D01*
X10218166Y4553356D01*
X10208818Y4541418D01*
X10200944Y4528413D01*
X10194645Y4514494D01*
X10192461Y4511344D01*
X10189210Y4509211D01*
X10185400Y4508500D01*
X10181590Y4509211D01*
X10178338Y4511344D01*
X10176154Y4514494D01*
X10169855Y4528413D01*
X10161981Y4541418D01*
X10152634Y4553356D01*
X10141864Y4564126D01*
X10129926Y4573524D01*
X10116921Y4581347D01*
X10103053Y4587595D01*
X10088524Y4592116D01*
X10073589Y4594860D01*
X10058400Y4595774D01*
X10043210Y4594860D01*
X10028275Y4592116D01*
X10013746Y4587595D01*
X9999878Y4581347D01*
X9986873Y4573524D01*
X9974935Y4564126D01*
X9964166Y4553356D01*
X9954818Y4541418D01*
X9946944Y4528413D01*
X9940645Y4514494D01*
X9938461Y4511344D01*
X9935210Y4509211D01*
X9931400Y4508500D01*
X9927590Y4509211D01*
X9924338Y4511344D01*
X9922154Y4514494D01*
X9915855Y4528413D01*
X9907981Y4541418D01*
X9898634Y4553356D01*
X9887864Y4564126D01*
X9875926Y4573524D01*
X9862921Y4581347D01*
X9849053Y4587595D01*
X9834524Y4592116D01*
X9819589Y4594860D01*
X9804400Y4595774D01*
X9789210Y4594860D01*
X9774275Y4592116D01*
X9759746Y4587595D01*
X9758121Y4586884D01*
X9754108Y4585970D01*
X9750145Y4586681D01*
X9746742Y4588916D01*
X8753906Y5581751D01*
X8747201Y5586780D01*
X8740038Y5590336D01*
X8732367Y5592521D01*
X8723934Y5593283D01*
X5937707Y5593283D01*
X5934100Y5593994D01*
X5930950Y5595874D01*
X5920689Y5610402D01*
X5916218Y5615178D01*
X5914136Y5618530D01*
X5913475Y5622391D01*
X5914288Y5626201D01*
X5916523Y5629402D01*
X5919774Y5631535D01*
X5923635Y5632297D01*
X8737549Y5632348D01*
X8745829Y5633516D01*
X8753398Y5636056D01*
X8760409Y5639917D01*
X8766911Y5645353D01*
X8997442Y5875883D01*
X9000845Y5878118D01*
X9004808Y5878830D01*
X9008821Y5877915D01*
X9010446Y5877204D01*
X9024975Y5872683D01*
X9039910Y5869940D01*
X9055100Y5869025D01*
X9070289Y5869940D01*
X9085224Y5872683D01*
X9099753Y5877204D01*
X9113621Y5883452D01*
X9126626Y5891276D01*
X9138564Y5900674D01*
X9149334Y5911443D01*
X9158681Y5923381D01*
X9166555Y5936386D01*
X9172854Y5950305D01*
X9175038Y5953455D01*
X9178290Y5955588D01*
X9182100Y5956300D01*
X9185910Y5955588D01*
X9189161Y5953455D01*
X9191345Y5950305D01*
X9197644Y5936386D01*
X9205518Y5923381D01*
X9214866Y5911443D01*
X9225635Y5900674D01*
X9237573Y5891276D01*
X9250578Y5883452D01*
X9264446Y5877204D01*
X9278975Y5872683D01*
X9293910Y5869940D01*
X9309100Y5869025D01*
X9324289Y5869940D01*
X9339224Y5872683D01*
X9353753Y5877204D01*
X9367621Y5883452D01*
X9380626Y5891276D01*
X9392564Y5900674D01*
X9403334Y5911443D01*
X9412681Y5923381D01*
X9420555Y5936386D01*
X9426854Y5950305D01*
X9429038Y5953455D01*
X9432290Y5955588D01*
X9436100Y5956300D01*
X9439910Y5955588D01*
X9443161Y5953455D01*
X9445345Y5950305D01*
X9451644Y5936386D01*
X9459518Y5923381D01*
X9468866Y5911443D01*
X9479635Y5900674D01*
X9491573Y5891276D01*
X9504578Y5883452D01*
X9518446Y5877204D01*
X9532975Y5872683D01*
X9547910Y5869940D01*
X9563100Y5869025D01*
X9578289Y5869940D01*
X9593224Y5872683D01*
X9607753Y5877204D01*
X9621621Y5883452D01*
X9634626Y5891276D01*
X9646564Y5900674D01*
X9657334Y5911443D01*
X9666681Y5923381D01*
X9674555Y5936386D01*
X9680854Y5950305D01*
X9683038Y5953455D01*
X9686290Y5955588D01*
X9690100Y5956300D01*
X9693910Y5955588D01*
X9697161Y5953455D01*
X9699345Y5950305D01*
X9705644Y5936386D01*
X9713518Y5923381D01*
X9722866Y5911443D01*
X9733635Y5900674D01*
X9745573Y5891276D01*
X9758578Y5883452D01*
X9772446Y5877204D01*
X9786975Y5872683D01*
X9801910Y5869940D01*
X9817100Y5869025D01*
X9832289Y5869940D01*
X9847224Y5872683D01*
X9861753Y5877204D01*
X9875621Y5883452D01*
X9888626Y5891276D01*
X9900564Y5900674D01*
X9911334Y5911443D01*
X9920681Y5923381D01*
X9928555Y5936386D01*
X9934854Y5950305D01*
X9937038Y5953455D01*
X9940290Y5955588D01*
X9944100Y5956300D01*
X9947910Y5955588D01*
X9951161Y5953455D01*
X9953345Y5950305D01*
X9959644Y5936386D01*
X9967518Y5923381D01*
X9976866Y5911443D01*
X9987635Y5900674D01*
X9999573Y5891276D01*
X10012578Y5883452D01*
X10026446Y5877204D01*
X10040975Y5872683D01*
X10055910Y5869940D01*
X10071100Y5869025D01*
X10086289Y5869940D01*
X10101224Y5872683D01*
X10115753Y5877204D01*
X10129621Y5883452D01*
X10142626Y5891276D01*
X10154564Y5900674D01*
X10165334Y5911443D01*
X10174681Y5923381D01*
X10182555Y5936386D01*
X10188854Y5950305D01*
X10191038Y5953455D01*
X10194290Y5955588D01*
X10198100Y5956300D01*
X10201910Y5955588D01*
X10205161Y5953455D01*
X10207345Y5950305D01*
X10213644Y5936386D01*
X10221518Y5923381D01*
X10230866Y5911443D01*
X10241635Y5900674D01*
X10253573Y5891276D01*
X10266578Y5883452D01*
X10280446Y5877204D01*
X10294975Y5872683D01*
X10309910Y5869940D01*
X10325100Y5869025D01*
X10340289Y5869940D01*
X10355224Y5872683D01*
X10369753Y5877204D01*
X10383621Y5883452D01*
X10396626Y5891276D01*
X10408564Y5900674D01*
X10419334Y5911443D01*
X10428681Y5923381D01*
X10436555Y5936386D01*
X10442854Y5950305D01*
X10445038Y5953455D01*
X10448290Y5955588D01*
X10452100Y5956300D01*
X10455910Y5955588D01*
X10459161Y5953455D01*
X10461345Y5950305D01*
X10467644Y5936386D01*
X10475518Y5923381D01*
X10484866Y5911443D01*
X10495635Y5900674D01*
X10507573Y5891276D01*
X10520578Y5883452D01*
X10534446Y5877204D01*
X10548975Y5872683D01*
X10563910Y5869940D01*
X10579100Y5869025D01*
X10594289Y5869940D01*
X10609224Y5872683D01*
X10623753Y5877204D01*
X10637621Y5883452D01*
X10650626Y5891276D01*
X10662564Y5900674D01*
X10673334Y5911443D01*
X10682681Y5923381D01*
X10690555Y5936386D01*
X10696803Y5950254D01*
X10701324Y5964783D01*
X10704068Y5979718D01*
X10704982Y5994908D01*
X10704068Y6010097D01*
X10701324Y6025032D01*
X10696803Y6039561D01*
X10690555Y6053378D01*
X10682681Y6066434D01*
X10673334Y6078372D01*
X10662564Y6089142D01*
X10650626Y6098489D01*
X10637621Y6106363D01*
X10623753Y6112611D01*
X10609224Y6117132D01*
X10594289Y6119876D01*
X10579100Y6120790D01*
X10563910Y6119876D01*
X10548975Y6117132D01*
X10534446Y6112611D01*
X10520578Y6106363D01*
X10507573Y6098489D01*
X10495635Y6089142D01*
X10484866Y6078372D01*
X10475518Y6066434D01*
X10467644Y6053378D01*
X10461345Y6039459D01*
X10459161Y6036310D01*
X10455910Y6034227D01*
X10452100Y6033516D01*
X10448290Y6034227D01*
X10445038Y6036310D01*
X10442854Y6039459D01*
X10436555Y6053378D01*
X10428681Y6066434D01*
X10419334Y6078372D01*
X10408564Y6089142D01*
X10396626Y6098489D01*
X10383621Y6106363D01*
X10369753Y6112611D01*
X10355224Y6117132D01*
X10340289Y6119876D01*
X10325100Y6120790D01*
X10309910Y6119876D01*
X10294975Y6117132D01*
X10280446Y6112611D01*
X10266578Y6106363D01*
X10253573Y6098489D01*
X10241635Y6089142D01*
X10230866Y6078372D01*
X10221518Y6066434D01*
X10213644Y6053378D01*
X10207345Y6039459D01*
X10205161Y6036310D01*
X10201910Y6034227D01*
X10198100Y6033516D01*
X10194290Y6034227D01*
X10191038Y6036310D01*
X10188854Y6039459D01*
X10182555Y6053378D01*
X10174681Y6066434D01*
X10165334Y6078372D01*
X10154564Y6089142D01*
X10142626Y6098489D01*
X10129621Y6106363D01*
X10115753Y6112611D01*
X10101224Y6117132D01*
X10086289Y6119876D01*
X10071100Y6120790D01*
X10055910Y6119876D01*
X10040975Y6117132D01*
X10026446Y6112611D01*
X10012578Y6106363D01*
X9999573Y6098489D01*
X9987635Y6089142D01*
X9976866Y6078372D01*
X9967518Y6066434D01*
X9959644Y6053378D01*
X9953345Y6039459D01*
X9951161Y6036310D01*
X9947910Y6034227D01*
X9944100Y6033516D01*
X9940290Y6034227D01*
X9937038Y6036310D01*
X9934854Y6039459D01*
X9928555Y6053378D01*
X9920681Y6066434D01*
X9911334Y6078372D01*
X9900564Y6089142D01*
X9888626Y6098489D01*
X9875621Y6106363D01*
X9861753Y6112611D01*
X9847224Y6117132D01*
X9832289Y6119876D01*
X9817100Y6120790D01*
X9801910Y6119876D01*
X9786975Y6117132D01*
X9772446Y6112611D01*
X9758578Y6106363D01*
X9745573Y6098489D01*
X9733635Y6089142D01*
X9722866Y6078372D01*
X9713518Y6066434D01*
X9705644Y6053378D01*
X9699345Y6039459D01*
X9697161Y6036310D01*
X9693910Y6034227D01*
X9690100Y6033516D01*
X9686290Y6034227D01*
X9683038Y6036310D01*
X9680854Y6039459D01*
X9674555Y6053378D01*
X9666681Y6066434D01*
X9657334Y6078372D01*
X9646564Y6089142D01*
X9634626Y6098489D01*
X9621621Y6106363D01*
X9607753Y6112611D01*
X9593224Y6117132D01*
X9578289Y6119876D01*
X9563100Y6120790D01*
X9547910Y6119876D01*
X9532975Y6117132D01*
X9518446Y6112611D01*
X9504578Y6106363D01*
X9491573Y6098489D01*
X9479635Y6089142D01*
X9468866Y6078372D01*
X9459518Y6066434D01*
X9451644Y6053378D01*
X9445345Y6039459D01*
X9443161Y6036310D01*
X9439910Y6034227D01*
X9436100Y6033516D01*
X9432290Y6034227D01*
X9429038Y6036310D01*
X9426854Y6039459D01*
X9420555Y6053378D01*
X9412681Y6066434D01*
X9403334Y6078372D01*
X9392564Y6089142D01*
X9380626Y6098489D01*
X9367621Y6106363D01*
X9353753Y6112611D01*
X9339224Y6117132D01*
X9324289Y6119876D01*
X9309100Y6120790D01*
X9293910Y6119876D01*
X9278975Y6117132D01*
X9264446Y6112611D01*
X9262821Y6111849D01*
X9258858Y6110986D01*
X9254845Y6111697D01*
X9251442Y6113932D01*
X9194190Y6171133D01*
X9187535Y6176162D01*
X9180372Y6179718D01*
X9172651Y6181953D01*
X9164218Y6182715D01*
X4667758Y6182715D01*
X4664252Y6182512D01*
X4660188Y6183071D01*
X4656683Y6185204D01*
X4654296Y6188608D01*
X4653483Y6192621D01*
X4653483Y6375857D01*
X4653940Y6378905D01*
X4655312Y6381699D01*
X4658868Y6386779D01*
X4663033Y6395669D01*
X4665573Y6405168D01*
X4666437Y6414973D01*
X4665573Y6424777D01*
X4663033Y6434277D01*
X4658868Y6443167D01*
X4653229Y6451193D01*
X4646269Y6458153D01*
X4638243Y6463792D01*
X4629353Y6467957D01*
X4619853Y6470497D01*
X4610049Y6471361D01*
X4600244Y6470497D01*
X4590796Y6467957D01*
X4581855Y6463792D01*
X4573828Y6458153D01*
X4566869Y6451193D01*
X4561230Y6443167D01*
X4557064Y6434277D01*
X4554524Y6424777D01*
X4553661Y6414973D01*
X4554220Y6409029D01*
X4553712Y6404914D01*
X4551578Y6401308D01*
X4548174Y6398869D01*
X4544110Y6398006D01*
X4540046Y6398869D01*
X4532223Y6402222D01*
X4519625Y6405778D01*
X4506620Y6407556D01*
X4493564Y6407556D01*
X4480610Y6405778D01*
X4468012Y6402222D01*
X4455972Y6397040D01*
X4444796Y6390233D01*
X4434636Y6381953D01*
X4425746Y6372402D01*
X4418177Y6361734D01*
X4412132Y6350101D01*
X4407763Y6337757D01*
X4405122Y6324955D01*
X4404207Y6311900D01*
X4405122Y6298844D01*
X4407763Y6286042D01*
X4412132Y6273698D01*
X4418177Y6262065D01*
X4425746Y6251397D01*
X4434636Y6241846D01*
X4444796Y6233566D01*
X4455972Y6226759D01*
X4468012Y6221526D01*
X4480610Y6218021D01*
X4493564Y6216243D01*
X4506620Y6216243D01*
X4519625Y6218021D01*
X4532223Y6221526D01*
X4544212Y6226759D01*
X4551222Y6231026D01*
X4555236Y6232398D01*
X4559503Y6232042D01*
X4563211Y6229959D01*
X4565751Y6226505D01*
X4566666Y6222339D01*
X4566666Y6193739D01*
X4565853Y6189827D01*
X4563668Y6186525D01*
X4505807Y6128664D01*
X4502912Y6126632D01*
X4489399Y6123127D01*
X4480509Y6118961D01*
X4472432Y6113373D01*
X4465523Y6106414D01*
X4459884Y6098336D01*
X4455718Y6089446D01*
X4453178Y6079947D01*
X4452315Y6070142D01*
X4453178Y6060389D01*
X4455718Y6050889D01*
X4459884Y6041999D01*
X4465523Y6033922D01*
X4472432Y6026962D01*
X4475073Y6025184D01*
X4478020Y6021933D01*
X4479340Y6017717D01*
X4478782Y6013348D01*
X4476394Y6009640D01*
X3414674Y4947920D01*
X3411372Y4945684D01*
X3407460Y4944922D01*
X1610563Y4944872D01*
X1602282Y4943703D01*
X1594713Y4941163D01*
X1587703Y4937302D01*
X1581200Y4931867D01*
X1226972Y4577689D01*
X1223924Y4575556D01*
X1220266Y4574692D01*
X1216609Y4575200D01*
X1209243Y4577638D01*
X1195273Y4580382D01*
X1181100Y4581296D01*
X1166926Y4580382D01*
X1152956Y4577638D01*
X1139494Y4573168D01*
X1126693Y4567021D01*
X1114755Y4559249D01*
X1103934Y4550054D01*
X1094384Y4539538D01*
X1086256Y4527905D01*
X1079703Y4515307D01*
X1074775Y4501946D01*
X1071626Y4488078D01*
X1070254Y4473956D01*
X1070711Y4459732D01*
X1072997Y4445711D01*
X1077061Y4432096D01*
X1082802Y4419092D01*
X1090168Y4406950D01*
X1099007Y4395825D01*
X1109218Y4385970D01*
X1120597Y4377486D01*
X1132992Y4370476D01*
X1146149Y4365142D01*
X1159916Y4361535D01*
X1173988Y4359757D01*
X1188212Y4359757D01*
X1202283Y4361535D01*
X1216050Y4365142D01*
X1229207Y4370476D01*
X1241602Y4377486D01*
X1252982Y4385970D01*
X1263192Y4395825D01*
X1272032Y4406950D01*
X1279398Y4419092D01*
X1285189Y4432096D01*
X1289202Y4445711D01*
X1291488Y4459732D01*
X1291945Y4473956D01*
X1290574Y4488078D01*
X1287424Y4501946D01*
X1286052Y4505604D01*
X1285443Y4509414D01*
X1286256Y4513122D01*
X1288389Y4516323D01*
X1627225Y4855108D01*
X1630527Y4857343D01*
X1634388Y4858105D01*
X2817063Y4858105D01*
X2821025Y4857292D01*
X2824378Y4855006D01*
X2826562Y4851603D01*
X2827223Y4847640D01*
X2826308Y4843729D01*
X2823413Y4839970D01*
X2057907Y4074464D01*
X2055368Y4072636D01*
X2052370Y4071620D01*
X2045411Y4070502D01*
X2031796Y4066438D01*
X2018792Y4060698D01*
X2006650Y4053332D01*
X1995525Y4044492D01*
X1985670Y4034282D01*
X1977186Y4022902D01*
X1970176Y4010507D01*
X1964842Y3997350D01*
X1961235Y3983583D01*
X1959457Y3969512D01*
X1959457Y3955287D01*
X1961235Y3941216D01*
X1964842Y3927449D01*
X1970176Y3914292D01*
X1977186Y3901897D01*
X1985670Y3890518D01*
X1995525Y3880307D01*
X2006650Y3871468D01*
X2018792Y3864101D01*
X2031796Y3858310D01*
X2045411Y3854297D01*
X2059432Y3852011D01*
X2073656Y3851554D01*
X2087778Y3852926D01*
X2101646Y3856075D01*
X2115007Y3861003D01*
X2127605Y3867556D01*
X2139238Y3875684D01*
X2149754Y3885234D01*
X2158949Y3896055D01*
X2166721Y3907993D01*
X2172868Y3920794D01*
X2177338Y3934256D01*
X2180082Y3948226D01*
X2180996Y3962400D01*
X2180082Y3976573D01*
X2177338Y3990543D01*
X2172868Y4004005D01*
X2167128Y4015943D01*
X2166162Y4019956D01*
X2166823Y4024071D01*
X2169109Y4027525D01*
X2507894Y4366310D01*
X2511094Y4368495D01*
X2514854Y4369308D01*
X2518664Y4368647D01*
X2521966Y4366666D01*
X2524252Y4363567D01*
X2525217Y4359859D01*
X2525522Y4355744D01*
X2528163Y4342942D01*
X2532532Y4330598D01*
X2538577Y4318965D01*
X2546146Y4308297D01*
X2555036Y4298746D01*
X2565196Y4290466D01*
X2576372Y4283659D01*
X2588412Y4278426D01*
X2601010Y4274921D01*
X2613964Y4273143D01*
X2627020Y4273143D01*
X2640025Y4274921D01*
X2644444Y4276140D01*
X2647950Y4276496D01*
X2651404Y4275582D01*
X2654350Y4273550D01*
X2873400Y4054500D01*
X2878074Y4050385D01*
X2884982Y4046118D01*
X2892450Y4043222D01*
X2900527Y4041749D01*
X2904540Y4041546D01*
X3555492Y4041546D01*
X3559403Y4040784D01*
X3562654Y4038549D01*
X3564890Y4035298D01*
X3565651Y4031386D01*
X3565651Y4011269D01*
X3624579Y4011269D01*
X3624579Y4031386D01*
X3625342Y4035298D01*
X3627577Y4038549D01*
X3630828Y4040784D01*
X3634740Y4041546D01*
X3705860Y4041546D01*
X3709771Y4040784D01*
X3713022Y4038549D01*
X3715258Y4035298D01*
X3716020Y4031386D01*
X3716020Y4011269D01*
X3774948Y4011269D01*
X3774948Y4031386D01*
X3775710Y4035298D01*
X3777945Y4038549D01*
X3781196Y4040784D01*
X3785108Y4041546D01*
X3825036Y4041546D01*
X3829354Y4040581D01*
X3832910Y4037837D01*
X3834892Y4033824D01*
X3834993Y4029405D01*
X3833164Y4025290D01*
X3831386Y4022902D01*
X3824376Y4010507D01*
X3819042Y3997350D01*
X3815435Y3983583D01*
X3813657Y3969512D01*
X3813657Y3955287D01*
X3815435Y3941216D01*
X3819042Y3927449D01*
X3824376Y3914292D01*
X3831386Y3901897D01*
X3839870Y3890518D01*
X3849725Y3880307D01*
X3860850Y3871468D01*
X3872992Y3864101D01*
X3885996Y3858310D01*
X3899611Y3854297D01*
X3913632Y3852011D01*
X3927856Y3851554D01*
X3941978Y3852926D01*
X3955846Y3856075D01*
X3969207Y3861003D01*
X3981805Y3867556D01*
X3993438Y3875684D01*
X4000347Y3881983D01*
X4003446Y3883914D01*
X4007002Y3884625D01*
X4010609Y3884066D01*
X4013758Y3882237D01*
X4016756Y3878173D01*
X4022191Y3871620D01*
X4097426Y3796436D01*
X4104132Y3791407D01*
X4111294Y3787800D01*
X4118965Y3785615D01*
G37*
G36*
X3716020Y3851503D02*
G01*
X3748481Y3851503D01*
X3754780Y3852214D01*
X3760266Y3854094D01*
X3765143Y3857193D01*
X3769258Y3861308D01*
X3772306Y3866184D01*
X3774236Y3871671D01*
X3774948Y3877970D01*
X3774948Y3913530D01*
X3716020Y3913530D01*
G37*
G36*
X3592118Y3851503D02*
G01*
X3624579Y3851503D01*
X3624579Y3913530D01*
X3565651Y3913530D01*
X3565651Y3877970D01*
X3566363Y3871671D01*
X3568293Y3866184D01*
X3571341Y3861308D01*
X3575456Y3857193D01*
X3580333Y3854094D01*
X3585819Y3852214D01*
G37*
G36*
X1229969Y3851503D02*
G01*
X1265529Y3851503D01*
X1271828Y3852214D01*
X1277315Y3854094D01*
X1282192Y3857193D01*
X1286306Y3861308D01*
X1289405Y3866184D01*
X1291285Y3871671D01*
X1291996Y3877970D01*
X1291996Y3913530D01*
X1229969Y3913530D01*
G37*
G36*
X1096670Y3851503D02*
G01*
X1132230Y3851503D01*
X1132230Y3913530D01*
X1070203Y3913530D01*
X1070203Y3877970D01*
X1070914Y3871671D01*
X1072794Y3866184D01*
X1075893Y3861308D01*
X1080008Y3857193D01*
X1084884Y3854094D01*
X1090371Y3852214D01*
G37*
G36*
X1731670Y3851503D02*
G01*
X1900529Y3851503D01*
X1906828Y3852214D01*
X1912315Y3854094D01*
X1917192Y3857193D01*
X1921306Y3861308D01*
X1924405Y3866184D01*
X1926285Y3871671D01*
X1926996Y3877970D01*
X1926996Y4046829D01*
X1926285Y4053128D01*
X1924405Y4058615D01*
X1921306Y4063492D01*
X1917192Y4067606D01*
X1912315Y4070705D01*
X1906828Y4072585D01*
X1900529Y4073296D01*
X1869693Y4073296D01*
X1865782Y4074058D01*
X1862480Y4076293D01*
X1860296Y4079595D01*
X1859534Y4083456D01*
X1859483Y4124858D01*
X1858314Y4133138D01*
X1855774Y4140708D01*
X1851863Y4147718D01*
X1846478Y4154220D01*
X1665833Y4334865D01*
X1663903Y4337558D01*
X1662938Y4340758D01*
X1663090Y4344111D01*
X1665478Y4355744D01*
X1666392Y4368800D01*
X1665478Y4381855D01*
X1662836Y4394657D01*
X1658467Y4407001D01*
X1652422Y4418634D01*
X1644853Y4429302D01*
X1635963Y4438853D01*
X1625803Y4447133D01*
X1614627Y4453940D01*
X1602587Y4459122D01*
X1589989Y4462678D01*
X1577035Y4464456D01*
X1563979Y4464456D01*
X1550974Y4462678D01*
X1538376Y4459122D01*
X1526387Y4453940D01*
X1515211Y4447133D01*
X1505051Y4438853D01*
X1496110Y4429302D01*
X1488592Y4418634D01*
X1482547Y4407001D01*
X1478178Y4394657D01*
X1475486Y4381855D01*
X1474622Y4368800D01*
X1475486Y4355744D01*
X1478178Y4342942D01*
X1482547Y4330598D01*
X1488592Y4318965D01*
X1496110Y4308297D01*
X1505051Y4298746D01*
X1515211Y4290466D01*
X1526387Y4283659D01*
X1538376Y4278426D01*
X1550974Y4274921D01*
X1563979Y4273143D01*
X1577035Y4273143D01*
X1589989Y4274921D01*
X1594408Y4276140D01*
X1597964Y4276496D01*
X1601419Y4275582D01*
X1604365Y4273550D01*
X1769719Y4108196D01*
X1771904Y4104894D01*
X1772716Y4101033D01*
X1772716Y4083456D01*
X1771904Y4079595D01*
X1769719Y4076293D01*
X1766417Y4074058D01*
X1762556Y4073296D01*
X1731670Y4073296D01*
X1725371Y4072585D01*
X1719884Y4070705D01*
X1715007Y4067606D01*
X1710893Y4063492D01*
X1707794Y4058615D01*
X1705914Y4053128D01*
X1705203Y4046829D01*
X1705203Y3877970D01*
X1705914Y3871671D01*
X1707794Y3866184D01*
X1710893Y3861308D01*
X1715007Y3857193D01*
X1719884Y3854094D01*
X1725371Y3852214D01*
G37*
G36*
X2275230Y3862984D02*
G01*
X2275230Y3913530D01*
X2224633Y3913530D01*
X2231186Y3901897D01*
X2239670Y3890518D01*
X2249525Y3880307D01*
X2260650Y3871468D01*
X2272792Y3864101D01*
G37*
G36*
X2372969Y3863086D02*
G01*
X2381605Y3867556D01*
X2393238Y3875684D01*
X2403754Y3885234D01*
X2412949Y3896055D01*
X2420721Y3907993D01*
X2423414Y3913530D01*
X2372969Y3913530D01*
G37*
G36*
X9694570Y3864203D02*
G01*
X9863429Y3864203D01*
X9869728Y3864914D01*
X9875215Y3866794D01*
X9880092Y3869893D01*
X9884206Y3874008D01*
X9887305Y3878884D01*
X9889185Y3884371D01*
X9889896Y3890670D01*
X9889896Y4059529D01*
X9889185Y4065828D01*
X9887305Y4071315D01*
X9884206Y4076192D01*
X9880092Y4080306D01*
X9875215Y4083405D01*
X9869728Y4085285D01*
X9863429Y4085996D01*
X9694570Y4085996D01*
X9688271Y4085285D01*
X9682784Y4083405D01*
X9677908Y4080306D01*
X9673793Y4076192D01*
X9670694Y4071315D01*
X9668814Y4065828D01*
X9668103Y4059529D01*
X9668103Y3890670D01*
X9668814Y3884371D01*
X9670694Y3878884D01*
X9673793Y3874008D01*
X9677908Y3869893D01*
X9682784Y3866794D01*
X9688271Y3864914D01*
G37*
G36*
X10290556Y3864254D02*
G01*
X10304678Y3865626D01*
X10318546Y3868775D01*
X10331907Y3873703D01*
X10344505Y3880256D01*
X10356138Y3888384D01*
X10366654Y3897934D01*
X10375849Y3908755D01*
X10383621Y3920693D01*
X10389768Y3933494D01*
X10394238Y3946956D01*
X10396982Y3960926D01*
X10397896Y3975100D01*
X10396982Y3989273D01*
X10394238Y4003243D01*
X10389768Y4016705D01*
X10383621Y4029506D01*
X10375849Y4041444D01*
X10366654Y4052265D01*
X10356138Y4061815D01*
X10344505Y4069943D01*
X10331907Y4076496D01*
X10318546Y4081424D01*
X10304678Y4084574D01*
X10290556Y4085945D01*
X10276332Y4085488D01*
X10262311Y4083202D01*
X10248696Y4079138D01*
X10235692Y4073398D01*
X10223550Y4066032D01*
X10212425Y4057192D01*
X10202570Y4046982D01*
X10194086Y4035602D01*
X10187076Y4023207D01*
X10181742Y4010050D01*
X10178135Y3996283D01*
X10176357Y3982212D01*
X10176357Y3967987D01*
X10178135Y3953916D01*
X10181742Y3940149D01*
X10187076Y3926992D01*
X10194086Y3914597D01*
X10202570Y3903218D01*
X10212425Y3893007D01*
X10223550Y3884168D01*
X10235692Y3876801D01*
X10248696Y3871010D01*
X10262311Y3866997D01*
X10276332Y3864711D01*
G37*
G36*
X10036556Y3864254D02*
G01*
X10050678Y3865626D01*
X10064546Y3868775D01*
X10077907Y3873703D01*
X10090505Y3880256D01*
X10102138Y3888384D01*
X10112654Y3897934D01*
X10121849Y3908755D01*
X10129621Y3920693D01*
X10135768Y3933494D01*
X10140238Y3946956D01*
X10142982Y3960926D01*
X10143896Y3975100D01*
X10142982Y3989273D01*
X10140238Y4003243D01*
X10135768Y4016705D01*
X10129621Y4029506D01*
X10121849Y4041444D01*
X10112654Y4052265D01*
X10102138Y4061815D01*
X10090505Y4069943D01*
X10077907Y4076496D01*
X10064546Y4081424D01*
X10050678Y4084574D01*
X10036556Y4085945D01*
X10022332Y4085488D01*
X10008311Y4083202D01*
X9994696Y4079138D01*
X9981692Y4073398D01*
X9969550Y4066032D01*
X9958425Y4057192D01*
X9948570Y4046982D01*
X9940086Y4035602D01*
X9933076Y4023207D01*
X9927742Y4010050D01*
X9924135Y3996283D01*
X9922357Y3982212D01*
X9922357Y3967987D01*
X9924135Y3953916D01*
X9927742Y3940149D01*
X9933076Y3926992D01*
X9940086Y3914597D01*
X9948570Y3903218D01*
X9958425Y3893007D01*
X9969550Y3884168D01*
X9981692Y3876801D01*
X9994696Y3871010D01*
X10008311Y3866997D01*
X10022332Y3864711D01*
G37*
G36*
X10544556Y3864254D02*
G01*
X10558678Y3865626D01*
X10572546Y3868775D01*
X10585907Y3873703D01*
X10598505Y3880256D01*
X10610138Y3888384D01*
X10620654Y3897934D01*
X10629849Y3908755D01*
X10637621Y3920693D01*
X10643768Y3933494D01*
X10648238Y3946956D01*
X10650982Y3960926D01*
X10651896Y3975100D01*
X10650982Y3989273D01*
X10648238Y4003243D01*
X10643768Y4016705D01*
X10637621Y4029506D01*
X10629849Y4041444D01*
X10620654Y4052265D01*
X10610138Y4061815D01*
X10598505Y4069943D01*
X10585907Y4076496D01*
X10572546Y4081424D01*
X10558678Y4084574D01*
X10544556Y4085945D01*
X10530332Y4085488D01*
X10516311Y4083202D01*
X10502696Y4079138D01*
X10489692Y4073398D01*
X10477550Y4066032D01*
X10466425Y4057192D01*
X10456570Y4046982D01*
X10448086Y4035602D01*
X10441076Y4023207D01*
X10435742Y4010050D01*
X10432135Y3996283D01*
X10430357Y3982212D01*
X10430357Y3967987D01*
X10432135Y3953916D01*
X10435742Y3940149D01*
X10441076Y3926992D01*
X10448086Y3914597D01*
X10456570Y3903218D01*
X10466425Y3893007D01*
X10477550Y3884168D01*
X10489692Y3876801D01*
X10502696Y3871010D01*
X10516311Y3866997D01*
X10530332Y3864711D01*
G37*
G36*
X2372969Y4011269D02*
G01*
X2423414Y4011269D01*
X2420721Y4016806D01*
X2412949Y4028744D01*
X2403754Y4039565D01*
X2393238Y4049115D01*
X2381605Y4057243D01*
X2372969Y4061714D01*
G37*
G36*
X2224633Y4011269D02*
G01*
X2275230Y4011269D01*
X2275230Y4061815D01*
X2272792Y4060698D01*
X2260650Y4053332D01*
X2249525Y4044492D01*
X2239670Y4034282D01*
X2231186Y4022902D01*
G37*
G36*
X1229969Y4011269D02*
G01*
X1291996Y4011269D01*
X1291996Y4046829D01*
X1291285Y4053128D01*
X1289405Y4058615D01*
X1286306Y4063492D01*
X1282192Y4067606D01*
X1277315Y4070705D01*
X1271828Y4072585D01*
X1265529Y4073296D01*
X1229969Y4073296D01*
G37*
G36*
X1070203Y4011269D02*
G01*
X1132230Y4011269D01*
X1132230Y4073296D01*
X1096670Y4073296D01*
X1090371Y4072585D01*
X1084884Y4070705D01*
X1080008Y4067606D01*
X1075893Y4063492D01*
X1072794Y4058615D01*
X1070914Y4053128D01*
X1070203Y4046829D01*
G37*
G36*
X1173988Y4105757D02*
G01*
X1188212Y4105757D01*
X1202283Y4107535D01*
X1216050Y4111142D01*
X1229207Y4116476D01*
X1241602Y4123486D01*
X1252982Y4131970D01*
X1263192Y4141825D01*
X1272032Y4152950D01*
X1279398Y4165092D01*
X1285189Y4178096D01*
X1289202Y4191711D01*
X1291488Y4205732D01*
X1291945Y4219956D01*
X1290574Y4234078D01*
X1287424Y4247946D01*
X1282496Y4261307D01*
X1275943Y4273905D01*
X1267815Y4285538D01*
X1258265Y4296054D01*
X1247444Y4305249D01*
X1235506Y4313021D01*
X1222705Y4319168D01*
X1209243Y4323638D01*
X1195273Y4326382D01*
X1181100Y4327296D01*
X1166926Y4326382D01*
X1152956Y4323638D01*
X1139494Y4319168D01*
X1126693Y4313021D01*
X1114755Y4305249D01*
X1103934Y4296054D01*
X1094384Y4285538D01*
X1086256Y4273905D01*
X1079703Y4261307D01*
X1074775Y4247946D01*
X1071626Y4234078D01*
X1070254Y4219956D01*
X1070711Y4205732D01*
X1072997Y4191711D01*
X1077061Y4178096D01*
X1082802Y4165092D01*
X1090168Y4152950D01*
X1099007Y4141825D01*
X1109218Y4131970D01*
X1120597Y4123486D01*
X1132992Y4116476D01*
X1146149Y4111142D01*
X1159916Y4107535D01*
G37*
G36*
X1173988Y4613757D02*
G01*
X1188212Y4613757D01*
X1202283Y4615535D01*
X1216050Y4619142D01*
X1229207Y4624476D01*
X1241602Y4631486D01*
X1252982Y4639970D01*
X1263192Y4649825D01*
X1272032Y4660950D01*
X1279398Y4673092D01*
X1285189Y4686096D01*
X1289202Y4699711D01*
X1291488Y4713732D01*
X1291945Y4727956D01*
X1290574Y4742078D01*
X1287424Y4755946D01*
X1282496Y4769307D01*
X1275943Y4781905D01*
X1267815Y4793538D01*
X1258265Y4804054D01*
X1247444Y4813249D01*
X1235506Y4821021D01*
X1222705Y4827168D01*
X1209243Y4831638D01*
X1195273Y4834382D01*
X1181100Y4835296D01*
X1166926Y4834382D01*
X1152956Y4831638D01*
X1139494Y4827168D01*
X1126693Y4821021D01*
X1114755Y4813249D01*
X1103934Y4804054D01*
X1094384Y4793538D01*
X1086256Y4781905D01*
X1079703Y4769307D01*
X1074775Y4755946D01*
X1071626Y4742078D01*
X1070254Y4727956D01*
X1070711Y4713732D01*
X1072997Y4699711D01*
X1077061Y4686096D01*
X1082802Y4673092D01*
X1090168Y4660950D01*
X1099007Y4649825D01*
X1109218Y4639970D01*
X1120597Y4631486D01*
X1132992Y4624476D01*
X1146149Y4619142D01*
X1159916Y4615535D01*
G37*
G36*
X1171346Y5158079D02*
G01*
X1470253Y5158079D01*
X1476552Y5158790D01*
X1481988Y5160721D01*
X1486916Y5163820D01*
X1490980Y5167884D01*
X1494078Y5172811D01*
X1496009Y5178247D01*
X1496720Y5184546D01*
X1496720Y5483453D01*
X1496009Y5489752D01*
X1494078Y5495188D01*
X1490980Y5500116D01*
X1486916Y5504180D01*
X1481988Y5507278D01*
X1476552Y5509209D01*
X1470253Y5509920D01*
X1171346Y5509920D01*
X1165047Y5509209D01*
X1159611Y5507278D01*
X1154684Y5504180D01*
X1150620Y5500116D01*
X1147521Y5495188D01*
X1145590Y5489752D01*
X1144879Y5483453D01*
X1144879Y5184546D01*
X1145590Y5178247D01*
X1147521Y5172811D01*
X1150620Y5167884D01*
X1154684Y5163820D01*
X1159611Y5160721D01*
X1165047Y5158790D01*
G37*
G36*
X2840278Y5158181D02*
G01*
X2858363Y5158638D01*
X2876346Y5160975D01*
X2893974Y5165090D01*
X2911043Y5171084D01*
X2927451Y5178755D01*
X2942996Y5188051D01*
X2957474Y5198922D01*
X2970784Y5211216D01*
X2982722Y5224830D01*
X2993237Y5239613D01*
X3002127Y5255361D01*
X3009392Y5271973D01*
X3014878Y5289194D01*
X3018586Y5306923D01*
X3020466Y5324957D01*
X3020466Y5343042D01*
X3018586Y5361076D01*
X3014878Y5378805D01*
X3009392Y5396026D01*
X3002127Y5412638D01*
X2993237Y5428386D01*
X2982722Y5443169D01*
X2970784Y5456783D01*
X2957474Y5469077D01*
X2942996Y5479948D01*
X2927451Y5489244D01*
X2911043Y5496915D01*
X2893974Y5502910D01*
X2876346Y5507024D01*
X2858363Y5509361D01*
X2840278Y5509818D01*
X2822194Y5508447D01*
X2804414Y5505196D01*
X2786989Y5500116D01*
X2770225Y5493308D01*
X2754274Y5484774D01*
X2739237Y5474665D01*
X2725318Y5463082D01*
X2712669Y5450128D01*
X2701442Y5435904D01*
X2691739Y5420614D01*
X2683611Y5404459D01*
X2677261Y5387492D01*
X2672638Y5369966D01*
X2669844Y5352084D01*
X2668930Y5334000D01*
X2669844Y5315915D01*
X2672638Y5298033D01*
X2677261Y5280507D01*
X2683611Y5263540D01*
X2691739Y5247386D01*
X2701442Y5232095D01*
X2712669Y5217871D01*
X2725318Y5204917D01*
X2739237Y5193334D01*
X2754274Y5183225D01*
X2770225Y5174691D01*
X2786989Y5167884D01*
X2804414Y5162804D01*
X2822194Y5159552D01*
G37*
G36*
X3430879Y5454243D02*
G01*
X3443935Y5454243D01*
X3456889Y5456021D01*
X3469487Y5459526D01*
X3481527Y5464759D01*
X3492703Y5471566D01*
X3502863Y5479846D01*
X3511753Y5489397D01*
X3519322Y5500065D01*
X3525367Y5511698D01*
X3529736Y5524042D01*
X3532378Y5536844D01*
X3533292Y5549900D01*
X3532378Y5562955D01*
X3529736Y5575757D01*
X3525367Y5588101D01*
X3519322Y5599734D01*
X3511753Y5610402D01*
X3502863Y5619953D01*
X3492703Y5628233D01*
X3481527Y5635040D01*
X3469487Y5640222D01*
X3456889Y5643778D01*
X3443935Y5645556D01*
X3430879Y5645556D01*
X3417874Y5643778D01*
X3405276Y5640222D01*
X3393287Y5635040D01*
X3382111Y5628233D01*
X3371951Y5619953D01*
X3363010Y5610402D01*
X3355492Y5599734D01*
X3349447Y5588101D01*
X3345078Y5575757D01*
X3342386Y5562955D01*
X3341522Y5549900D01*
X3342386Y5536844D01*
X3345078Y5524042D01*
X3349447Y5511698D01*
X3355492Y5500065D01*
X3363010Y5489397D01*
X3371951Y5479846D01*
X3382111Y5471566D01*
X3393287Y5464759D01*
X3405276Y5459526D01*
X3417874Y5456021D01*
G37*
G36*
X3611270Y5820003D02*
G01*
X3780129Y5820003D01*
X3786428Y5820714D01*
X3791915Y5822594D01*
X3796792Y5825693D01*
X3800906Y5829808D01*
X3804005Y5834684D01*
X3805885Y5840171D01*
X3806596Y5846470D01*
X3806596Y6015329D01*
X3805885Y6021628D01*
X3804005Y6027115D01*
X3800906Y6031992D01*
X3796792Y6036106D01*
X3791915Y6039205D01*
X3786428Y6041085D01*
X3780129Y6041796D01*
X3611270Y6041796D01*
X3604971Y6041085D01*
X3599484Y6039205D01*
X3594608Y6036106D01*
X3590493Y6031992D01*
X3587394Y6027115D01*
X3585514Y6021628D01*
X3584803Y6015329D01*
X3584803Y5846470D01*
X3585514Y5840171D01*
X3587394Y5834684D01*
X3590493Y5829808D01*
X3594608Y5825693D01*
X3599484Y5822594D01*
X3604971Y5820714D01*
G37*
G36*
X3953256Y5820054D02*
G01*
X3967378Y5821426D01*
X3981246Y5824575D01*
X3994607Y5829503D01*
X4007205Y5836056D01*
X4018838Y5844184D01*
X4029354Y5853734D01*
X4038549Y5864555D01*
X4046321Y5876493D01*
X4052468Y5889294D01*
X4056938Y5902756D01*
X4059682Y5916726D01*
X4060596Y5930900D01*
X4059682Y5945073D01*
X4056938Y5959043D01*
X4052468Y5972505D01*
X4046321Y5985306D01*
X4038549Y5997244D01*
X4029354Y6008065D01*
X4018838Y6017615D01*
X4007205Y6025743D01*
X3994607Y6032296D01*
X3981246Y6037224D01*
X3967378Y6040374D01*
X3953256Y6041745D01*
X3939032Y6041288D01*
X3925011Y6039002D01*
X3911396Y6034938D01*
X3898392Y6029198D01*
X3886250Y6021832D01*
X3875125Y6012992D01*
X3865270Y6002782D01*
X3856786Y5991402D01*
X3849776Y5979007D01*
X3844442Y5965850D01*
X3840835Y5952083D01*
X3839057Y5938012D01*
X3839057Y5923788D01*
X3840835Y5909716D01*
X3844442Y5895949D01*
X3849776Y5882792D01*
X3856786Y5870397D01*
X3865270Y5859018D01*
X3875125Y5848807D01*
X3886250Y5839968D01*
X3898392Y5832602D01*
X3911396Y5826810D01*
X3925011Y5822797D01*
X3939032Y5820511D01*
G37*
G36*
X4154830Y5831484D02*
G01*
X4154830Y5882030D01*
X4104233Y5882030D01*
X4110786Y5870397D01*
X4119270Y5859018D01*
X4129125Y5848807D01*
X4140250Y5839968D01*
X4152392Y5832602D01*
G37*
G36*
X4252569Y5831586D02*
G01*
X4261205Y5836056D01*
X4272838Y5844184D01*
X4283354Y5853734D01*
X4292549Y5864555D01*
X4300321Y5876493D01*
X4303014Y5882030D01*
X4252569Y5882030D01*
G37*
G36*
X1030782Y5864199D02*
G01*
X1229614Y5864199D01*
X1235964Y5864910D01*
X1241399Y5866841D01*
X1246327Y5869889D01*
X1250391Y5874004D01*
X1253490Y5878880D01*
X1255369Y5884367D01*
X1256131Y5890666D01*
X1256131Y6089548D01*
X1255369Y6095847D01*
X1253490Y6101334D01*
X1250391Y6106210D01*
X1246327Y6110325D01*
X1241399Y6113373D01*
X1235964Y6115304D01*
X1229614Y6116015D01*
X1030782Y6116015D01*
X1024432Y6115304D01*
X1018997Y6113373D01*
X1014069Y6110325D01*
X1010005Y6106210D01*
X1006906Y6101334D01*
X1005027Y6095847D01*
X1004316Y6089548D01*
X1004316Y5890666D01*
X1005027Y5884367D01*
X1006906Y5878880D01*
X1010005Y5874004D01*
X1014069Y5869889D01*
X1018997Y5866841D01*
X1024432Y5864910D01*
G37*
G36*
X2630779Y5864199D02*
G01*
X2829610Y5864199D01*
X2835960Y5864910D01*
X2841396Y5866841D01*
X2846324Y5869889D01*
X2850388Y5874004D01*
X2853486Y5878880D01*
X2855366Y5884367D01*
X2856077Y5890666D01*
X2856077Y6089548D01*
X2855366Y6095847D01*
X2853486Y6101334D01*
X2850388Y6106210D01*
X2846324Y6110325D01*
X2841396Y6113373D01*
X2835960Y6115304D01*
X2829610Y6116015D01*
X2630779Y6116015D01*
X2624429Y6115304D01*
X2618994Y6113373D01*
X2614066Y6110325D01*
X2610002Y6106210D01*
X2606903Y6101334D01*
X2605024Y6095847D01*
X2604312Y6089548D01*
X2604312Y5890666D01*
X2605024Y5884367D01*
X2606903Y5878880D01*
X2610002Y5874004D01*
X2614066Y5869889D01*
X2618994Y5866841D01*
X2624429Y5864910D01*
G37*
G36*
X4252569Y5979769D02*
G01*
X4303014Y5979769D01*
X4300321Y5985306D01*
X4292549Y5997244D01*
X4283354Y6008065D01*
X4272838Y6017615D01*
X4261205Y6025743D01*
X4252569Y6030214D01*
G37*
G36*
X4104233Y5979769D02*
G01*
X4154830Y5979769D01*
X4154830Y6030315D01*
X4152392Y6029198D01*
X4140250Y6021832D01*
X4129125Y6012992D01*
X4119270Y6002782D01*
X4110786Y5991402D01*
G37*
G36*
X4777079Y6203543D02*
G01*
X4790135Y6203543D01*
X4803089Y6205321D01*
X4815687Y6208826D01*
X4827727Y6214059D01*
X4838903Y6220866D01*
X4849063Y6229146D01*
X4857953Y6238697D01*
X4865522Y6249365D01*
X4871567Y6260998D01*
X4875936Y6273342D01*
X4878578Y6286144D01*
X4879492Y6299200D01*
X4878578Y6312255D01*
X4875936Y6325057D01*
X4871567Y6337401D01*
X4865522Y6349034D01*
X4857953Y6359702D01*
X4849063Y6369253D01*
X4838903Y6377533D01*
X4827727Y6384340D01*
X4815687Y6389522D01*
X4803089Y6393078D01*
X4790135Y6394856D01*
X4777079Y6394856D01*
X4764074Y6393078D01*
X4751476Y6389522D01*
X4739487Y6384340D01*
X4728311Y6377533D01*
X4718151Y6369253D01*
X4709210Y6359702D01*
X4701692Y6349034D01*
X4695647Y6337401D01*
X4691278Y6325057D01*
X4688586Y6312255D01*
X4687722Y6299200D01*
X4688586Y6286144D01*
X4691278Y6273342D01*
X4695647Y6260998D01*
X4701692Y6249365D01*
X4709210Y6238697D01*
X4718151Y6229146D01*
X4728311Y6220866D01*
X4739487Y6214059D01*
X4751476Y6208826D01*
X4764074Y6205321D01*
G37*
G36*
X5827064Y6203543D02*
G01*
X5840120Y6203543D01*
X5853125Y6205321D01*
X5865723Y6208826D01*
X5877712Y6214059D01*
X5888888Y6220866D01*
X5899048Y6229146D01*
X5907989Y6238697D01*
X5915507Y6249365D01*
X5921552Y6260998D01*
X5925921Y6273342D01*
X5928614Y6286144D01*
X5929477Y6299200D01*
X5928614Y6312255D01*
X5925921Y6325057D01*
X5921552Y6337401D01*
X5915507Y6349034D01*
X5907989Y6359702D01*
X5899048Y6369253D01*
X5888888Y6377533D01*
X5877712Y6384340D01*
X5865723Y6389522D01*
X5853125Y6393078D01*
X5840120Y6394856D01*
X5827064Y6394856D01*
X5814110Y6393078D01*
X5801512Y6389522D01*
X5789472Y6384340D01*
X5778296Y6377533D01*
X5768136Y6369253D01*
X5759246Y6359702D01*
X5751677Y6349034D01*
X5745632Y6337401D01*
X5741263Y6325057D01*
X5738622Y6312255D01*
X5737707Y6299200D01*
X5738622Y6286144D01*
X5741263Y6273342D01*
X5745632Y6260998D01*
X5751677Y6249365D01*
X5759246Y6238697D01*
X5768136Y6229146D01*
X5778296Y6220866D01*
X5789472Y6214059D01*
X5801512Y6208826D01*
X5814110Y6205321D01*
G37*
G36*
X3443579Y6216243D02*
G01*
X3456635Y6216243D01*
X3469589Y6218021D01*
X3482187Y6221526D01*
X3494227Y6226759D01*
X3505403Y6233566D01*
X3515563Y6241846D01*
X3524453Y6251397D01*
X3532022Y6262065D01*
X3538067Y6273698D01*
X3542436Y6286042D01*
X3545078Y6298844D01*
X3545992Y6311900D01*
X3545078Y6324955D01*
X3542436Y6337757D01*
X3538067Y6350101D01*
X3532022Y6361734D01*
X3524453Y6372402D01*
X3515563Y6381953D01*
X3505403Y6390233D01*
X3494227Y6397040D01*
X3482187Y6402222D01*
X3469589Y6405778D01*
X3456635Y6407556D01*
X3443579Y6407556D01*
X3430574Y6405778D01*
X3417976Y6402222D01*
X3405987Y6397040D01*
X3394811Y6390233D01*
X3384651Y6381953D01*
X3375710Y6372402D01*
X3368192Y6361734D01*
X3362147Y6350101D01*
X3357778Y6337757D01*
X3355086Y6324955D01*
X3354222Y6311900D01*
X3355086Y6298844D01*
X3357778Y6286042D01*
X3362147Y6273698D01*
X3368192Y6262065D01*
X3375710Y6251397D01*
X3384651Y6241846D01*
X3394811Y6233566D01*
X3405987Y6226759D01*
X3417976Y6221526D01*
X3430574Y6218021D01*
G37*
G36*
X6206896Y6220460D02*
G01*
X6216954Y6220460D01*
X6226860Y6222136D01*
X6236360Y6225387D01*
X6245199Y6230162D01*
X6248958Y6233109D01*
X6251905Y6234684D01*
X6255156Y6235242D01*
X6820662Y6235293D01*
X6829399Y6236512D01*
X6837425Y6239205D01*
X6844792Y6243320D01*
X6851700Y6249009D01*
X7177328Y6574739D01*
X7182662Y6581749D01*
X7186422Y6589318D01*
X7188758Y6597497D01*
X7189571Y6606387D01*
X7189571Y6627875D01*
X7190333Y6631736D01*
X7192518Y6635038D01*
X7262215Y6704736D01*
X7265924Y6707124D01*
X7270343Y6707682D01*
X7274509Y6706311D01*
X7277760Y6703314D01*
X7279436Y6699250D01*
X7280198Y6694830D01*
X7284161Y6681876D01*
X7289901Y6669633D01*
X7297166Y6658203D01*
X7305903Y6647891D01*
X7315911Y6638798D01*
X7327087Y6631178D01*
X7339177Y6625031D01*
X7351928Y6620611D01*
X7365187Y6617919D01*
X7378700Y6617004D01*
X7392212Y6617919D01*
X7405471Y6620611D01*
X7418222Y6625031D01*
X7430312Y6631178D01*
X7441488Y6638798D01*
X7451496Y6647891D01*
X7460234Y6658203D01*
X7467498Y6669633D01*
X7473238Y6681876D01*
X7477201Y6694830D01*
X7479487Y6708140D01*
X7479944Y6721703D01*
X7478572Y6735165D01*
X7475423Y6748322D01*
X7470597Y6760921D01*
X7464094Y6772808D01*
X7456068Y6783679D01*
X7447432Y6792569D01*
X7445298Y6795871D01*
X7444587Y6799732D01*
X7445400Y6803593D01*
X7447584Y6806844D01*
X7594295Y6953605D01*
X7599578Y6960616D01*
X7603337Y6968185D01*
X7605674Y6976364D01*
X7606487Y6985253D01*
X7606436Y7300163D01*
X7605217Y7308900D01*
X7602524Y7316927D01*
X7598409Y7324344D01*
X7592720Y7331202D01*
X7479182Y7444740D01*
X7477099Y7447788D01*
X7476185Y7451344D01*
X7479487Y7470140D01*
X7479944Y7483703D01*
X7478572Y7497165D01*
X7475423Y7510322D01*
X7470597Y7522921D01*
X7464094Y7534808D01*
X7456068Y7545679D01*
X7446619Y7555433D01*
X7436002Y7563815D01*
X7424369Y7570724D01*
X7411923Y7575956D01*
X7398867Y7579563D01*
X7385456Y7581341D01*
X7371943Y7581341D01*
X7358532Y7579563D01*
X7345476Y7575956D01*
X7333030Y7570724D01*
X7321397Y7563815D01*
X7310780Y7555433D01*
X7301331Y7545679D01*
X7293305Y7534808D01*
X7286802Y7522921D01*
X7281976Y7510322D01*
X7278827Y7497165D01*
X7277455Y7483703D01*
X7278014Y7469581D01*
X7277862Y7465314D01*
X7275931Y7461554D01*
X7272680Y7458862D01*
X7268565Y7457744D01*
X7264400Y7458405D01*
X7260844Y7460691D01*
X7075627Y7645857D01*
X7073544Y7648956D01*
X7072680Y7652613D01*
X7073188Y7656322D01*
X7074611Y7660386D01*
X7077303Y7673949D01*
X7077760Y7681417D01*
X7078725Y7685074D01*
X7080961Y7688122D01*
X7084161Y7690205D01*
X7087920Y7690866D01*
X7280960Y7690866D01*
X7284262Y7690307D01*
X7287259Y7688681D01*
X7289495Y7686192D01*
X7297166Y7674203D01*
X7305903Y7663891D01*
X7315911Y7654798D01*
X7327087Y7647178D01*
X7339177Y7641031D01*
X7351928Y7636611D01*
X7365187Y7633919D01*
X7378700Y7633004D01*
X7392212Y7633919D01*
X7405471Y7636611D01*
X7418222Y7641031D01*
X7430312Y7647178D01*
X7441488Y7654798D01*
X7451496Y7663891D01*
X7460234Y7674203D01*
X7467498Y7685633D01*
X7473238Y7697876D01*
X7477201Y7710830D01*
X7479487Y7724140D01*
X7479944Y7737703D01*
X7478572Y7751165D01*
X7475423Y7764322D01*
X7470597Y7776921D01*
X7464094Y7788808D01*
X7456068Y7799679D01*
X7446619Y7809433D01*
X7436002Y7817815D01*
X7424369Y7824724D01*
X7411923Y7829956D01*
X7398867Y7833563D01*
X7385456Y7835341D01*
X7371943Y7835341D01*
X7358532Y7833563D01*
X7345476Y7829956D01*
X7333030Y7824724D01*
X7321397Y7817815D01*
X7310780Y7809433D01*
X7301331Y7799679D01*
X7293305Y7788808D01*
X7290155Y7782966D01*
X7287869Y7780172D01*
X7284770Y7778343D01*
X7281214Y7777683D01*
X7031024Y7777683D01*
X7028078Y7778140D01*
X7012838Y7785608D01*
X6999731Y7790078D01*
X6986117Y7792770D01*
X6972300Y7793685D01*
X6958482Y7792770D01*
X6944918Y7790078D01*
X6931812Y7785608D01*
X6919366Y7779512D01*
X6907834Y7771790D01*
X6897420Y7762646D01*
X6888327Y7752232D01*
X6880606Y7740751D01*
X6874509Y7728305D01*
X6870039Y7715199D01*
X6867347Y7701635D01*
X6866432Y7687818D01*
X6867347Y7673949D01*
X6870039Y7660386D01*
X6874509Y7647279D01*
X6880606Y7634833D01*
X6888327Y7623352D01*
X6897420Y7612938D01*
X6907834Y7603794D01*
X6919366Y7596073D01*
X6931812Y7589977D01*
X6944918Y7585506D01*
X6958482Y7582814D01*
X6972300Y7581900D01*
X6986117Y7582814D01*
X6999731Y7585506D01*
X7003796Y7586929D01*
X7007504Y7587437D01*
X7011162Y7586573D01*
X7014260Y7584490D01*
X7275830Y7322972D01*
X7282484Y7317943D01*
X7289647Y7314336D01*
X7301738Y7311034D01*
X7304735Y7308748D01*
X7306716Y7305497D01*
X7307325Y7301788D01*
X7306564Y7298080D01*
X7304481Y7294930D01*
X7301331Y7291679D01*
X7293305Y7280808D01*
X7287615Y7270343D01*
X7334656Y7270343D01*
X7334656Y7301230D01*
X7335418Y7305141D01*
X7337602Y7308392D01*
X7340904Y7310628D01*
X7344816Y7311390D01*
X7396683Y7311390D01*
X7400594Y7310628D01*
X7403896Y7308392D01*
X7419797Y7292543D01*
X7421981Y7289241D01*
X7422743Y7285329D01*
X7422743Y7270343D01*
X7437729Y7270343D01*
X7441641Y7269581D01*
X7444943Y7267397D01*
X7447127Y7265162D01*
X7449362Y7261859D01*
X7450124Y7257948D01*
X7450124Y7192416D01*
X7449362Y7188504D01*
X7447127Y7185202D01*
X7443876Y7183018D01*
X7439964Y7182256D01*
X7422743Y7182256D01*
X7422743Y7158380D01*
X7421981Y7154468D01*
X7419797Y7151166D01*
X7412177Y7143597D01*
X7408875Y7141362D01*
X7404963Y7140600D01*
X7344816Y7140600D01*
X7340904Y7141362D01*
X7337602Y7143597D01*
X7335418Y7146848D01*
X7334656Y7150760D01*
X7334656Y7182256D01*
X7287717Y7182256D01*
X7289901Y7177633D01*
X7297166Y7166203D01*
X7304684Y7157313D01*
X7306564Y7153960D01*
X7307072Y7150201D01*
X7306157Y7146493D01*
X7303922Y7143394D01*
X7300671Y7141311D01*
X7296912Y7140600D01*
X7087158Y7140549D01*
X7078878Y7139381D01*
X7071258Y7136841D01*
X7064298Y7132980D01*
X7057745Y7127544D01*
X6658609Y6728409D01*
X6655562Y6726326D01*
X6651904Y6725462D01*
X6648196Y6725970D01*
X6644081Y6727393D01*
X6630517Y6730085D01*
X6616700Y6731000D01*
X6602882Y6730085D01*
X6589318Y6727393D01*
X6576161Y6722922D01*
X6563766Y6716775D01*
X6552234Y6709105D01*
X6541820Y6699961D01*
X6532676Y6689547D01*
X6525006Y6678015D01*
X6518859Y6665620D01*
X6514439Y6652514D01*
X6511696Y6638899D01*
X6510832Y6625081D01*
X6511696Y6611264D01*
X6514439Y6597700D01*
X6518859Y6584594D01*
X6525006Y6572148D01*
X6532676Y6560616D01*
X6541820Y6550202D01*
X6552234Y6541109D01*
X6563766Y6533388D01*
X6576161Y6527292D01*
X6589318Y6522821D01*
X6602882Y6520129D01*
X6616700Y6519214D01*
X6630517Y6520129D01*
X6644081Y6522821D01*
X6657238Y6527292D01*
X6669633Y6533388D01*
X6681165Y6541109D01*
X6691579Y6550202D01*
X6704279Y6564477D01*
X6708190Y6565950D01*
X6712305Y6565798D01*
X6725615Y6558584D01*
X6735114Y6555333D01*
X6745071Y6553657D01*
X6755130Y6553657D01*
X6765036Y6555333D01*
X6774535Y6558584D01*
X6783374Y6563359D01*
X6787134Y6566306D01*
X6790080Y6567881D01*
X6793331Y6568440D01*
X6888022Y6568440D01*
X6892188Y6567525D01*
X6895642Y6564985D01*
X6897420Y6562902D01*
X6907834Y6553809D01*
X6919366Y6546088D01*
X6931812Y6539992D01*
X6944918Y6535521D01*
X6958482Y6532829D01*
X6972300Y6531914D01*
X6980072Y6532422D01*
X6984085Y6531864D01*
X6987590Y6529781D01*
X6989978Y6526479D01*
X6990892Y6522516D01*
X6990181Y6518503D01*
X6987895Y6515100D01*
X6872782Y6399987D01*
X6869531Y6397752D01*
X6865620Y6396990D01*
X6861759Y6397752D01*
X6858457Y6399885D01*
X6850329Y6412738D01*
X6843318Y6420662D01*
X6835089Y6427368D01*
X6825894Y6432651D01*
X6815988Y6436410D01*
X6805625Y6438544D01*
X6795008Y6438950D01*
X6784492Y6437680D01*
X6774332Y6434734D01*
X6764426Y6430010D01*
X6760057Y6429044D01*
X6391960Y6429044D01*
X6388049Y6429806D01*
X6384747Y6432042D01*
X5852617Y6964172D01*
X5850331Y6967677D01*
X5849670Y6971842D01*
X5850737Y6975906D01*
X5853328Y6979208D01*
X5857087Y6981139D01*
X5865723Y6983526D01*
X5877712Y6988759D01*
X5888888Y6995566D01*
X5899048Y7003846D01*
X5907989Y7013397D01*
X5915507Y7024065D01*
X5921552Y7035698D01*
X5925921Y7048042D01*
X5928614Y7060844D01*
X5929477Y7073900D01*
X5928614Y7086955D01*
X5925921Y7099757D01*
X5921552Y7112101D01*
X5915507Y7123734D01*
X5907989Y7134402D01*
X5899048Y7143953D01*
X5888888Y7152233D01*
X5877712Y7159040D01*
X5865723Y7164222D01*
X5853125Y7167778D01*
X5840120Y7169556D01*
X5827064Y7169556D01*
X5814110Y7167778D01*
X5801512Y7164222D01*
X5789472Y7159040D01*
X5778296Y7152233D01*
X5768136Y7143953D01*
X5759246Y7134402D01*
X5751677Y7123734D01*
X5745632Y7112101D01*
X5741263Y7099757D01*
X5740908Y7098131D01*
X5739180Y7094169D01*
X5735878Y7091273D01*
X5731764Y7090054D01*
X5727446Y7090664D01*
X5723788Y7093000D01*
X5583428Y7233361D01*
X5579668Y7236764D01*
X5575808Y7239762D01*
X5571693Y7242352D01*
X5567375Y7244638D01*
X5562854Y7246467D01*
X5558231Y7247940D01*
X5553456Y7249007D01*
X5548630Y7249668D01*
X5543550Y7249871D01*
X3425190Y7249871D01*
X3421329Y7250633D01*
X3418027Y7252868D01*
X2656128Y8014716D01*
X2653944Y8018018D01*
X2653131Y8021878D01*
X2653893Y8025739D01*
X2656078Y8029041D01*
X2659329Y8031276D01*
X2663190Y8032089D01*
X2667050Y8031378D01*
X2669286Y8030464D01*
X2683408Y8026857D01*
X2697835Y8025028D01*
X2712364Y8025028D01*
X2726791Y8026857D01*
X2740914Y8030464D01*
X2754426Y8035848D01*
X2767177Y8042859D01*
X2778963Y8051393D01*
X2789580Y8061350D01*
X2798876Y8072577D01*
X2806649Y8084870D01*
X2812846Y8098028D01*
X2817368Y8111896D01*
X2820060Y8126171D01*
X2820974Y8140700D01*
X2820060Y8155228D01*
X2817368Y8169503D01*
X2812846Y8183372D01*
X2806649Y8196529D01*
X2798876Y8208822D01*
X2789580Y8220049D01*
X2778963Y8230006D01*
X2767177Y8238540D01*
X2754426Y8245551D01*
X2740914Y8250936D01*
X2726791Y8254542D01*
X2712364Y8256371D01*
X2697835Y8256371D01*
X2683408Y8254542D01*
X2669286Y8250936D01*
X2655773Y8245551D01*
X2643022Y8238540D01*
X2631236Y8230006D01*
X2620619Y8220049D01*
X2611323Y8208822D01*
X2603550Y8196529D01*
X2597353Y8183372D01*
X2592832Y8169503D01*
X2590139Y8155228D01*
X2589225Y8140700D01*
X2590139Y8126171D01*
X2592832Y8111896D01*
X2596083Y8101939D01*
X2596489Y8097520D01*
X2594914Y8093303D01*
X2591714Y8090153D01*
X2587498Y8088731D01*
X2583027Y8089239D01*
X2579217Y8091627D01*
X2569972Y8100872D01*
X2567787Y8104174D01*
X2567025Y8108086D01*
X2567025Y8230108D01*
X2566314Y8236458D01*
X2564384Y8241893D01*
X2561285Y8246821D01*
X2557221Y8250885D01*
X2552293Y8253984D01*
X2546858Y8255914D01*
X2540508Y8256625D01*
X2361692Y8256625D01*
X2355342Y8255914D01*
X2349906Y8253984D01*
X2344978Y8250885D01*
X2340914Y8246821D01*
X2337816Y8241893D01*
X2335885Y8236458D01*
X2335174Y8230108D01*
X2335174Y8051292D01*
X2335885Y8044942D01*
X2337816Y8039506D01*
X2340914Y8034578D01*
X2344978Y8030514D01*
X2349906Y8027416D01*
X2355342Y8025485D01*
X2361692Y8024774D01*
X2483713Y8024774D01*
X2487625Y8024012D01*
X2490927Y8021828D01*
X3358083Y7154672D01*
X3363315Y7150049D01*
X3365754Y7146798D01*
X3366719Y7142886D01*
X3366109Y7138924D01*
X3355492Y7123734D01*
X3349447Y7112101D01*
X3345078Y7099757D01*
X3342386Y7086955D01*
X3341522Y7073900D01*
X3342386Y7060844D01*
X3345078Y7048042D01*
X3349447Y7035698D01*
X3355492Y7024065D01*
X3363010Y7013397D01*
X3371951Y7003846D01*
X3382111Y6995566D01*
X3393287Y6988759D01*
X3405276Y6983526D01*
X3417874Y6980021D01*
X3430879Y6978243D01*
X3443935Y6978243D01*
X3456889Y6980021D01*
X3469487Y6983526D01*
X3481527Y6988759D01*
X3492703Y6995566D01*
X3502863Y7003846D01*
X3511753Y7013397D01*
X3519322Y7024065D01*
X3525367Y7035698D01*
X3529736Y7048042D01*
X3532378Y7060844D01*
X3533292Y7073900D01*
X3532378Y7086955D01*
X3529736Y7099757D01*
X3525367Y7112101D01*
X3519576Y7123226D01*
X3518458Y7127189D01*
X3519017Y7131303D01*
X3521201Y7134809D01*
X3524554Y7137196D01*
X3528618Y7138060D01*
X4396181Y7138060D01*
X4400245Y7137196D01*
X4403598Y7134809D01*
X4405782Y7131303D01*
X4406341Y7127189D01*
X4405223Y7123226D01*
X4399432Y7112101D01*
X4395063Y7099757D01*
X4392422Y7086955D01*
X4391507Y7073900D01*
X4392422Y7060844D01*
X4395063Y7048042D01*
X4399432Y7035698D01*
X4405477Y7024065D01*
X4413046Y7013397D01*
X4421936Y7003846D01*
X4432096Y6995566D01*
X4443272Y6988759D01*
X4455312Y6983526D01*
X4467910Y6980021D01*
X4480864Y6978243D01*
X4493920Y6978243D01*
X4506925Y6980021D01*
X4519523Y6983526D01*
X4531512Y6988759D01*
X4542688Y6995566D01*
X4552848Y7003846D01*
X4561789Y7013397D01*
X4569307Y7024065D01*
X4575352Y7035698D01*
X4579721Y7048042D01*
X4582414Y7060844D01*
X4583277Y7073900D01*
X4582414Y7086955D01*
X4579721Y7099757D01*
X4575352Y7112101D01*
X4569561Y7123226D01*
X4568444Y7127189D01*
X4569053Y7131303D01*
X4571187Y7134809D01*
X4574540Y7137196D01*
X4578604Y7138060D01*
X4692396Y7138060D01*
X4696460Y7137196D01*
X4699812Y7134809D01*
X4701946Y7131303D01*
X4702556Y7127189D01*
X4701438Y7123226D01*
X4695647Y7112101D01*
X4691278Y7099757D01*
X4688586Y7086955D01*
X4687722Y7073900D01*
X4688586Y7060844D01*
X4691278Y7048042D01*
X4695647Y7035698D01*
X4701692Y7024065D01*
X4709210Y7013397D01*
X4718151Y7003846D01*
X4728311Y6995566D01*
X4739487Y6988759D01*
X4751476Y6983526D01*
X4764074Y6980021D01*
X4777079Y6978243D01*
X4790135Y6978243D01*
X4803089Y6980021D01*
X4815687Y6983526D01*
X4827727Y6988759D01*
X4838903Y6995566D01*
X4849063Y7003846D01*
X4857953Y7013397D01*
X4868265Y7027925D01*
X4871415Y7029805D01*
X4875022Y7030466D01*
X5276342Y7030466D01*
X5279390Y7030008D01*
X5282184Y7028637D01*
X5287264Y7025081D01*
X5296204Y7020915D01*
X5305653Y7018375D01*
X5315458Y7017512D01*
X5325262Y7018375D01*
X5334762Y7020915D01*
X5343652Y7025081D01*
X5351678Y7030720D01*
X5358638Y7037679D01*
X5364276Y7045706D01*
X5368442Y7054596D01*
X5370982Y7064095D01*
X5371846Y7073900D01*
X5370982Y7083704D01*
X5368442Y7093203D01*
X5364276Y7102094D01*
X5358638Y7110120D01*
X5351678Y7117080D01*
X5348122Y7119569D01*
X5345226Y7122668D01*
X5343855Y7126731D01*
X5344261Y7130948D01*
X5346395Y7134656D01*
X5349798Y7137146D01*
X5353964Y7138060D01*
X5516372Y7138060D01*
X5520283Y7137298D01*
X5523585Y7135063D01*
X6314287Y6344412D01*
X6316472Y6341110D01*
X6317234Y6337198D01*
X6316472Y6333337D01*
X6314287Y6330035D01*
X6310985Y6327800D01*
X6307074Y6327038D01*
X6255156Y6327038D01*
X6251905Y6327597D01*
X6248958Y6329172D01*
X6245199Y6332118D01*
X6236360Y6336893D01*
X6226860Y6340144D01*
X6216954Y6341821D01*
X6206896Y6341821D01*
X6196939Y6340144D01*
X6187440Y6336893D01*
X6178600Y6332118D01*
X6170676Y6325920D01*
X6163868Y6318554D01*
X6158382Y6310122D01*
X6154318Y6300927D01*
X6151880Y6291173D01*
X6151016Y6281115D01*
X6151880Y6271107D01*
X6154318Y6261354D01*
X6158382Y6252159D01*
X6163868Y6243726D01*
X6170676Y6236360D01*
X6178600Y6230162D01*
X6187440Y6225387D01*
X6196939Y6222136D01*
G37*
G36*
X3611270Y6569303D02*
G01*
X3780129Y6569303D01*
X3786428Y6570014D01*
X3791915Y6571894D01*
X3796792Y6574993D01*
X3800906Y6579108D01*
X3804005Y6583984D01*
X3805885Y6589471D01*
X3806596Y6595770D01*
X3806596Y6764629D01*
X3805885Y6770928D01*
X3804005Y6776415D01*
X3800906Y6781292D01*
X3796792Y6785406D01*
X3791915Y6788505D01*
X3786428Y6790385D01*
X3780129Y6791096D01*
X3611270Y6791096D01*
X3604971Y6790385D01*
X3599484Y6788505D01*
X3594608Y6785406D01*
X3590493Y6781292D01*
X3587394Y6776415D01*
X3585514Y6770928D01*
X3584803Y6764629D01*
X3584803Y6595770D01*
X3585514Y6589471D01*
X3587394Y6583984D01*
X3590493Y6579108D01*
X3594608Y6574993D01*
X3599484Y6571894D01*
X3604971Y6570014D01*
G37*
G36*
X3953256Y6569354D02*
G01*
X3967378Y6570725D01*
X3981246Y6573875D01*
X3994607Y6578803D01*
X4007205Y6585356D01*
X4018838Y6593484D01*
X4029354Y6603034D01*
X4038549Y6613855D01*
X4046321Y6625793D01*
X4052468Y6638594D01*
X4056938Y6652056D01*
X4059682Y6666026D01*
X4060596Y6680200D01*
X4059682Y6694373D01*
X4056938Y6708343D01*
X4052468Y6721805D01*
X4046321Y6734606D01*
X4038549Y6746544D01*
X4029354Y6757365D01*
X4018838Y6766915D01*
X4007205Y6775043D01*
X3994607Y6781596D01*
X3981246Y6786524D01*
X3967378Y6789674D01*
X3953256Y6791045D01*
X3939032Y6790588D01*
X3925011Y6788302D01*
X3911396Y6784238D01*
X3898392Y6778498D01*
X3886250Y6771131D01*
X3875125Y6762292D01*
X3865270Y6752081D01*
X3856786Y6740702D01*
X3849776Y6728307D01*
X3844442Y6715150D01*
X3840835Y6701383D01*
X3839057Y6687312D01*
X3839057Y6673088D01*
X3840835Y6659016D01*
X3844442Y6645249D01*
X3849776Y6632092D01*
X3856786Y6619697D01*
X3865270Y6608318D01*
X3875125Y6598107D01*
X3886250Y6589268D01*
X3898392Y6581902D01*
X3911396Y6576110D01*
X3925011Y6572097D01*
X3939032Y6569811D01*
G37*
G36*
X4154830Y6580784D02*
G01*
X4154830Y6631330D01*
X4104233Y6631330D01*
X4110786Y6619697D01*
X4119270Y6608318D01*
X4129125Y6598107D01*
X4140250Y6589268D01*
X4152392Y6581902D01*
G37*
G36*
X4252569Y6580886D02*
G01*
X4261205Y6585356D01*
X4272838Y6593484D01*
X4283354Y6603034D01*
X4292549Y6613855D01*
X4300321Y6625793D01*
X4303014Y6631330D01*
X4252569Y6631330D01*
G37*
G36*
X5389270Y6582003D02*
G01*
X5558129Y6582003D01*
X5564428Y6582714D01*
X5569915Y6584594D01*
X5574792Y6587693D01*
X5578906Y6591808D01*
X5582005Y6596684D01*
X5583885Y6602171D01*
X5584596Y6608470D01*
X5584596Y6777329D01*
X5583885Y6783628D01*
X5582005Y6789115D01*
X5578906Y6793992D01*
X5574792Y6798106D01*
X5569915Y6801205D01*
X5564428Y6803085D01*
X5558129Y6803796D01*
X5389270Y6803796D01*
X5382971Y6803085D01*
X5377484Y6801205D01*
X5372608Y6798106D01*
X5368493Y6793992D01*
X5365394Y6789115D01*
X5363514Y6783628D01*
X5362803Y6777329D01*
X5362803Y6608470D01*
X5363514Y6602171D01*
X5365394Y6596684D01*
X5368493Y6591808D01*
X5372608Y6587693D01*
X5377484Y6584594D01*
X5382971Y6582714D01*
G37*
G36*
X5216144Y6582054D02*
G01*
X5230368Y6582511D01*
X5244388Y6584797D01*
X5258003Y6588810D01*
X5271008Y6594602D01*
X5283149Y6601968D01*
X5294274Y6610807D01*
X5304129Y6621018D01*
X5312613Y6632397D01*
X5319623Y6644792D01*
X5324957Y6657949D01*
X5328564Y6671716D01*
X5330342Y6685788D01*
X5330342Y6700012D01*
X5328564Y6714083D01*
X5324957Y6727850D01*
X5319623Y6741007D01*
X5312613Y6753402D01*
X5304129Y6764781D01*
X5294274Y6774992D01*
X5283149Y6783831D01*
X5271008Y6791198D01*
X5258003Y6796938D01*
X5244388Y6801002D01*
X5230368Y6803288D01*
X5216144Y6803745D01*
X5202021Y6802374D01*
X5188153Y6799224D01*
X5174792Y6794296D01*
X5162194Y6787743D01*
X5150561Y6779615D01*
X5140045Y6770065D01*
X5130850Y6759244D01*
X5123078Y6747306D01*
X5116931Y6734505D01*
X5112461Y6721043D01*
X5109718Y6707073D01*
X5108803Y6692900D01*
X5109718Y6678726D01*
X5112461Y6664756D01*
X5116931Y6651294D01*
X5123078Y6638493D01*
X5130850Y6626555D01*
X5140045Y6615734D01*
X5150561Y6606184D01*
X5162194Y6598056D01*
X5174792Y6591503D01*
X5188153Y6586575D01*
X5202021Y6583425D01*
G37*
G36*
X5014569Y6593484D02*
G01*
X5017008Y6594602D01*
X5029149Y6601968D01*
X5040274Y6610807D01*
X5050129Y6621018D01*
X5058613Y6632397D01*
X5065166Y6644030D01*
X5014569Y6644030D01*
G37*
G36*
X4916830Y6593586D02*
G01*
X4916830Y6644030D01*
X4866386Y6644030D01*
X4869078Y6638493D01*
X4876850Y6626555D01*
X4886045Y6615734D01*
X4896561Y6606184D01*
X4908194Y6598056D01*
G37*
G36*
X4252569Y6729069D02*
G01*
X4303014Y6729069D01*
X4300321Y6734606D01*
X4292549Y6746544D01*
X4283354Y6757365D01*
X4272838Y6766915D01*
X4261205Y6775043D01*
X4252569Y6779514D01*
G37*
G36*
X4104233Y6729069D02*
G01*
X4154830Y6729069D01*
X4154830Y6779615D01*
X4152392Y6778498D01*
X4140250Y6771131D01*
X4129125Y6762292D01*
X4119270Y6752081D01*
X4110786Y6740702D01*
G37*
G36*
X4866386Y6741769D02*
G01*
X4916830Y6741769D01*
X4916830Y6792214D01*
X4908194Y6787743D01*
X4896561Y6779615D01*
X4886045Y6770065D01*
X4876850Y6759244D01*
X4869078Y6747306D01*
G37*
G36*
X5014569Y6741769D02*
G01*
X5065166Y6741769D01*
X5058613Y6753402D01*
X5050129Y6764781D01*
X5040274Y6774992D01*
X5029149Y6783831D01*
X5017008Y6791198D01*
X5014569Y6792315D01*
G37*
G36*
X1186535Y6864197D02*
G01*
X1229614Y6864197D01*
X1235964Y6864908D01*
X1241399Y6866839D01*
X1246327Y6869887D01*
X1250391Y6874002D01*
X1253490Y6878878D01*
X1255369Y6884365D01*
X1256131Y6890664D01*
X1256131Y6933742D01*
X1186535Y6933742D01*
G37*
G36*
X2630779Y6864197D02*
G01*
X2673858Y6864197D01*
X2673858Y6933742D01*
X2604312Y6933742D01*
X2604312Y6890664D01*
X2605024Y6884365D01*
X2606903Y6878878D01*
X2610002Y6874002D01*
X2614066Y6869887D01*
X2618994Y6866839D01*
X2624429Y6864908D01*
G37*
G36*
X2786532Y6864197D02*
G01*
X2829610Y6864197D01*
X2835960Y6864908D01*
X2841396Y6866839D01*
X2846324Y6869887D01*
X2850388Y6874002D01*
X2853486Y6878878D01*
X2855366Y6884365D01*
X2856077Y6890664D01*
X2856077Y6933742D01*
X2786532Y6933742D01*
G37*
G36*
X1030782Y6864197D02*
G01*
X1073861Y6864197D01*
X1073861Y6933742D01*
X1004316Y6933742D01*
X1004316Y6890664D01*
X1005027Y6884365D01*
X1006906Y6878878D01*
X1010005Y6874002D01*
X1014069Y6869887D01*
X1018997Y6866839D01*
X1024432Y6864908D01*
G37*
G36*
X2604312Y7046468D02*
G01*
X2673858Y7046468D01*
X2673858Y7116013D01*
X2630779Y7116013D01*
X2624429Y7115302D01*
X2618994Y7113371D01*
X2614066Y7110323D01*
X2610002Y7106208D01*
X2606903Y7101331D01*
X2605024Y7095845D01*
X2604312Y7089546D01*
G37*
G36*
X2786532Y7046468D02*
G01*
X2856077Y7046468D01*
X2856077Y7089546D01*
X2855366Y7095845D01*
X2853486Y7101331D01*
X2850388Y7106208D01*
X2846324Y7110323D01*
X2841396Y7113371D01*
X2835960Y7115302D01*
X2829610Y7116013D01*
X2786532Y7116013D01*
G37*
G36*
X1004316Y7046468D02*
G01*
X1073861Y7046468D01*
X1073861Y7116013D01*
X1030782Y7116013D01*
X1024432Y7115302D01*
X1018997Y7113371D01*
X1014069Y7110323D01*
X1010005Y7106208D01*
X1006906Y7101331D01*
X1005027Y7095845D01*
X1004316Y7089546D01*
G37*
G36*
X1186535Y7046468D02*
G01*
X1256131Y7046468D01*
X1256131Y7089546D01*
X1255369Y7095845D01*
X1253490Y7101331D01*
X1250391Y7106208D01*
X1246327Y7110323D01*
X1241399Y7113371D01*
X1235964Y7115302D01*
X1229614Y7116013D01*
X1186535Y7116013D01*
G37*
G36*
X5401970Y7318603D02*
G01*
X5570829Y7318603D01*
X5577128Y7319314D01*
X5582615Y7321194D01*
X5587492Y7324293D01*
X5591606Y7328408D01*
X5594705Y7333284D01*
X5596585Y7338771D01*
X5597296Y7345070D01*
X5597296Y7513929D01*
X5596585Y7520228D01*
X5594705Y7525715D01*
X5591606Y7530592D01*
X5587492Y7534706D01*
X5582615Y7537805D01*
X5577128Y7539685D01*
X5570829Y7540396D01*
X5401970Y7540396D01*
X5395671Y7539685D01*
X5390184Y7537805D01*
X5385308Y7534706D01*
X5381193Y7530592D01*
X5378094Y7525715D01*
X5376214Y7520228D01*
X5375503Y7513929D01*
X5375503Y7345070D01*
X5376214Y7338771D01*
X5378094Y7333284D01*
X5381193Y7328408D01*
X5385308Y7324293D01*
X5390184Y7321194D01*
X5395671Y7319314D01*
G37*
G36*
X5228844Y7318654D02*
G01*
X5243068Y7319111D01*
X5257088Y7321397D01*
X5270703Y7325410D01*
X5283708Y7331202D01*
X5295849Y7338568D01*
X5306974Y7347407D01*
X5316829Y7357618D01*
X5325313Y7368997D01*
X5332323Y7381392D01*
X5337657Y7394549D01*
X5341264Y7408316D01*
X5343042Y7422388D01*
X5343042Y7436612D01*
X5341264Y7450683D01*
X5337657Y7464450D01*
X5332323Y7477607D01*
X5325313Y7490002D01*
X5316829Y7501381D01*
X5306974Y7511592D01*
X5295849Y7520431D01*
X5293207Y7522057D01*
X5290616Y7524292D01*
X5288889Y7527340D01*
X5288330Y7530744D01*
X5288330Y8102955D01*
X5288889Y8106359D01*
X5290616Y8109407D01*
X5293207Y8111642D01*
X5295849Y8113268D01*
X5306974Y8122107D01*
X5316829Y8132318D01*
X5325313Y8143697D01*
X5332323Y8156092D01*
X5337657Y8169249D01*
X5341264Y8183016D01*
X5343042Y8197088D01*
X5343042Y8211312D01*
X5341264Y8225383D01*
X5337657Y8239150D01*
X5332323Y8252307D01*
X5325313Y8264702D01*
X5316829Y8276081D01*
X5306974Y8286292D01*
X5295849Y8295131D01*
X5283708Y8302498D01*
X5270703Y8308238D01*
X5257088Y8312302D01*
X5243068Y8314588D01*
X5228844Y8315045D01*
X5214721Y8313674D01*
X5200853Y8310524D01*
X5187492Y8305596D01*
X5174894Y8299043D01*
X5163261Y8290915D01*
X5152745Y8281365D01*
X5143550Y8270544D01*
X5135778Y8258606D01*
X5129631Y8245805D01*
X5125161Y8232343D01*
X5122418Y8218373D01*
X5121503Y8204200D01*
X5122418Y8190026D01*
X5125161Y8176056D01*
X5129631Y8162594D01*
X5135778Y8149793D01*
X5143550Y8137855D01*
X5152745Y8127034D01*
X5163261Y8117484D01*
X5172151Y8111286D01*
X5174488Y8109051D01*
X5175961Y8106156D01*
X5176520Y8102955D01*
X5176520Y7778800D01*
X5175808Y7775143D01*
X5173878Y7771993D01*
X5170932Y7769758D01*
X5167376Y7768691D01*
X5163718Y7768996D01*
X5158384Y7770418D01*
X5148630Y7771282D01*
X5138826Y7770418D01*
X5129326Y7767878D01*
X5120436Y7763713D01*
X5115306Y7760157D01*
X5112562Y7758785D01*
X5109514Y7758277D01*
X4861712Y7758277D01*
X4857648Y7759141D01*
X4854295Y7761528D01*
X4852162Y7765084D01*
X4851603Y7769148D01*
X4852720Y7773162D01*
X4858867Y7784998D01*
X4863236Y7797342D01*
X4865878Y7810144D01*
X4866792Y7823200D01*
X4865878Y7836255D01*
X4863236Y7849057D01*
X4858867Y7861401D01*
X4852822Y7873034D01*
X4845253Y7883702D01*
X4836363Y7893253D01*
X4826203Y7901533D01*
X4815027Y7908340D01*
X4802987Y7913522D01*
X4790389Y7917078D01*
X4777435Y7918856D01*
X4764379Y7918856D01*
X4751374Y7917078D01*
X4738776Y7913522D01*
X4726787Y7908340D01*
X4715611Y7901533D01*
X4705451Y7893253D01*
X4696510Y7883702D01*
X4688992Y7873034D01*
X4682947Y7861401D01*
X4678578Y7849057D01*
X4675886Y7836255D01*
X4675022Y7823200D01*
X4675886Y7810144D01*
X4678578Y7797342D01*
X4682947Y7784998D01*
X4689094Y7773162D01*
X4690211Y7769148D01*
X4689652Y7765084D01*
X4687519Y7761528D01*
X4684115Y7759141D01*
X4680102Y7758277D01*
X4643272Y7758277D01*
X4639411Y7759090D01*
X4636109Y7761274D01*
X4595418Y7801965D01*
X4593488Y7804658D01*
X4592523Y7807858D01*
X4592675Y7811211D01*
X4595114Y7822844D01*
X4595977Y7835900D01*
X4595114Y7848955D01*
X4592421Y7861757D01*
X4588052Y7874101D01*
X4582007Y7885734D01*
X4574489Y7896402D01*
X4565548Y7905953D01*
X4555388Y7914233D01*
X4544212Y7921040D01*
X4532223Y7926222D01*
X4519625Y7929778D01*
X4506620Y7931556D01*
X4493564Y7931556D01*
X4480610Y7929778D01*
X4468012Y7926222D01*
X4455972Y7921040D01*
X4444796Y7914233D01*
X4434636Y7905953D01*
X4425746Y7896402D01*
X4418177Y7885734D01*
X4412132Y7874101D01*
X4407763Y7861757D01*
X4405122Y7848955D01*
X4404207Y7835900D01*
X4405122Y7822844D01*
X4407763Y7810042D01*
X4412132Y7797698D01*
X4418177Y7786065D01*
X4425746Y7775397D01*
X4434636Y7765846D01*
X4444796Y7757566D01*
X4455972Y7750759D01*
X4468012Y7745526D01*
X4480610Y7742021D01*
X4493564Y7740243D01*
X4506620Y7740243D01*
X4519625Y7742021D01*
X4524044Y7743240D01*
X4527550Y7743596D01*
X4531004Y7742681D01*
X4533950Y7740650D01*
X4591608Y7683042D01*
X4598263Y7678013D01*
X4609998Y7672273D01*
X4612589Y7669072D01*
X4613706Y7665110D01*
X4613148Y7660995D01*
X4610963Y7657490D01*
X4607610Y7655102D01*
X4603546Y7654290D01*
X4093362Y7654290D01*
X4088282Y7654036D01*
X4083456Y7653426D01*
X4078681Y7652359D01*
X4074058Y7650886D01*
X4069537Y7649006D01*
X4065219Y7646771D01*
X4061104Y7644130D01*
X4057243Y7641183D01*
X4053484Y7637729D01*
X3981704Y7565999D01*
X3978960Y7564018D01*
X3975658Y7563053D01*
X3972255Y7563256D01*
X3967378Y7564374D01*
X3953256Y7565745D01*
X3939032Y7565288D01*
X3925011Y7563002D01*
X3911396Y7558938D01*
X3898392Y7553198D01*
X3886250Y7545831D01*
X3875125Y7536992D01*
X3865270Y7526781D01*
X3856786Y7515402D01*
X3849776Y7503007D01*
X3844442Y7489850D01*
X3840835Y7476083D01*
X3839057Y7462012D01*
X3839057Y7447788D01*
X3840835Y7433716D01*
X3844442Y7419949D01*
X3849776Y7406792D01*
X3856786Y7394397D01*
X3865270Y7383018D01*
X3875125Y7372807D01*
X3886250Y7363968D01*
X3898392Y7356602D01*
X3911396Y7350810D01*
X3925011Y7346797D01*
X3939032Y7344511D01*
X3953256Y7344054D01*
X3967378Y7345425D01*
X3981246Y7348575D01*
X3994607Y7353503D01*
X4007205Y7360056D01*
X4018838Y7368184D01*
X4029354Y7377734D01*
X4038549Y7388555D01*
X4046321Y7400493D01*
X4052468Y7413294D01*
X4056938Y7426756D01*
X4059682Y7440726D01*
X4060596Y7454900D01*
X4059682Y7469073D01*
X4058005Y7477759D01*
X4057904Y7481062D01*
X4058869Y7484211D01*
X4060748Y7486903D01*
X4086707Y7512862D01*
X4090009Y7515047D01*
X4093870Y7515809D01*
X4097782Y7515098D01*
X4101084Y7512913D01*
X4103268Y7509611D01*
X4104081Y7505750D01*
X4103674Y7503769D01*
X4154830Y7503769D01*
X4154830Y7532268D01*
X4155643Y7536180D01*
X4157827Y7539481D01*
X4161129Y7541666D01*
X4164990Y7542428D01*
X4242409Y7542428D01*
X4246270Y7541666D01*
X4249572Y7539481D01*
X4251756Y7536180D01*
X4252569Y7532268D01*
X4252569Y7503769D01*
X4303014Y7503769D01*
X4300321Y7509306D01*
X4292549Y7521244D01*
X4288739Y7525715D01*
X4286859Y7529017D01*
X4286351Y7532827D01*
X4287266Y7536535D01*
X4289501Y7539685D01*
X4292701Y7541717D01*
X4296511Y7542428D01*
X4914595Y7542428D01*
X4918760Y7541564D01*
X4922164Y7539024D01*
X4924247Y7535316D01*
X4924653Y7531100D01*
X4923282Y7527086D01*
X4920386Y7523937D01*
X4909261Y7516215D01*
X4898745Y7506665D01*
X4889550Y7495844D01*
X4881778Y7483906D01*
X4879086Y7478369D01*
X4929530Y7478369D01*
X4929530Y7532268D01*
X4930343Y7536180D01*
X4932527Y7539481D01*
X4935829Y7541666D01*
X4939690Y7542428D01*
X5017109Y7542428D01*
X5020970Y7541666D01*
X5024272Y7539481D01*
X5026456Y7536180D01*
X5027269Y7532268D01*
X5027269Y7478369D01*
X5077866Y7478369D01*
X5071313Y7490002D01*
X5062829Y7501381D01*
X5052974Y7511592D01*
X5041849Y7520431D01*
X5036616Y7523581D01*
X5033467Y7526629D01*
X5031892Y7530693D01*
X5032095Y7535011D01*
X5034178Y7538872D01*
X5037632Y7541514D01*
X5041900Y7542428D01*
X5166360Y7542428D01*
X5170220Y7541666D01*
X5173522Y7539481D01*
X5175707Y7536180D01*
X5176520Y7530744D01*
X5175961Y7527544D01*
X5174488Y7524648D01*
X5172151Y7522413D01*
X5163261Y7516215D01*
X5152745Y7506665D01*
X5143550Y7495844D01*
X5135778Y7483906D01*
X5129631Y7471105D01*
X5125161Y7457643D01*
X5122418Y7443673D01*
X5121503Y7429500D01*
X5122418Y7415326D01*
X5125161Y7401356D01*
X5129631Y7387894D01*
X5135778Y7375093D01*
X5143550Y7363155D01*
X5152745Y7352334D01*
X5163261Y7342784D01*
X5174894Y7334656D01*
X5187492Y7328103D01*
X5200853Y7323175D01*
X5214721Y7320025D01*
G37*
G36*
X5027269Y7330084D02*
G01*
X5029708Y7331202D01*
X5041849Y7338568D01*
X5052974Y7347407D01*
X5062829Y7357618D01*
X5071313Y7368997D01*
X5077866Y7380630D01*
X5027269Y7380630D01*
G37*
G36*
X4929530Y7330186D02*
G01*
X4929530Y7380630D01*
X4879086Y7380630D01*
X4881778Y7375093D01*
X4889550Y7363155D01*
X4898745Y7352334D01*
X4909261Y7342784D01*
X4920894Y7334656D01*
G37*
G36*
X3611270Y7344003D02*
G01*
X3780129Y7344003D01*
X3786428Y7344714D01*
X3791915Y7346594D01*
X3796792Y7349693D01*
X3800906Y7353808D01*
X3804005Y7358684D01*
X3805885Y7364171D01*
X3806596Y7370470D01*
X3806596Y7539329D01*
X3805885Y7545628D01*
X3804005Y7551115D01*
X3800906Y7555992D01*
X3796792Y7560106D01*
X3791915Y7563205D01*
X3786428Y7565085D01*
X3780129Y7565796D01*
X3611270Y7565796D01*
X3604971Y7565085D01*
X3599484Y7563205D01*
X3594608Y7560106D01*
X3590493Y7555992D01*
X3587394Y7551115D01*
X3585514Y7545628D01*
X3584803Y7539329D01*
X3584803Y7370470D01*
X3585514Y7364171D01*
X3587394Y7358684D01*
X3590493Y7353808D01*
X3594608Y7349693D01*
X3599484Y7346594D01*
X3604971Y7344714D01*
G37*
G36*
X4154830Y7355484D02*
G01*
X4154830Y7406030D01*
X4104233Y7406030D01*
X4110786Y7394397D01*
X4119270Y7383018D01*
X4129125Y7372807D01*
X4140250Y7363968D01*
X4152392Y7356602D01*
G37*
G36*
X4252569Y7355586D02*
G01*
X4261205Y7360056D01*
X4272838Y7368184D01*
X4283354Y7377734D01*
X4292549Y7388555D01*
X4300321Y7400493D01*
X4303014Y7406030D01*
X4252569Y7406030D01*
G37*
G36*
X1554073Y7457948D02*
G01*
X1570126Y7457948D01*
X1586128Y7459776D01*
X1601774Y7463434D01*
X1616964Y7468819D01*
X1631391Y7475931D01*
X1644904Y7484618D01*
X1657350Y7494778D01*
X1668576Y7506360D01*
X1678381Y7519060D01*
X1686712Y7532827D01*
X1693367Y7547508D01*
X1698345Y7562799D01*
X1701546Y7578547D01*
X1702917Y7594600D01*
X1702460Y7610652D01*
X1700174Y7626603D01*
X1696110Y7642148D01*
X1690268Y7657134D01*
X1682750Y7671358D01*
X1673656Y7684617D01*
X1663141Y7696809D01*
X1651304Y7707680D01*
X1638249Y7717129D01*
X1624279Y7725054D01*
X1609445Y7731302D01*
X1594002Y7735824D01*
X1578152Y7738567D01*
X1562100Y7739481D01*
X1546047Y7738567D01*
X1530197Y7735824D01*
X1514754Y7731302D01*
X1499920Y7725054D01*
X1485950Y7717129D01*
X1472895Y7707680D01*
X1461058Y7696809D01*
X1450543Y7684617D01*
X1441450Y7671358D01*
X1433931Y7657134D01*
X1428089Y7642148D01*
X1424025Y7626603D01*
X1421739Y7610652D01*
X1421282Y7594600D01*
X1422654Y7578547D01*
X1425854Y7562799D01*
X1430832Y7547508D01*
X1437487Y7532827D01*
X1445818Y7519060D01*
X1455623Y7506360D01*
X1466850Y7494778D01*
X1479296Y7484618D01*
X1492808Y7475931D01*
X1507236Y7468819D01*
X1522425Y7463434D01*
X1538071Y7459776D01*
G37*
G36*
X6570370Y7580122D02*
G01*
X6570370Y7628737D01*
X6521754Y7628737D01*
X6525006Y7622133D01*
X6532676Y7610652D01*
X6541820Y7600238D01*
X6552234Y7591094D01*
X6563766Y7583373D01*
G37*
G36*
X6663029Y7580122D02*
G01*
X6669633Y7583373D01*
X6681165Y7591094D01*
X6691579Y7600238D01*
X6700723Y7610652D01*
X6708394Y7622133D01*
X6711645Y7628737D01*
X6663029Y7628737D01*
G37*
G36*
X6521754Y7721447D02*
G01*
X6570370Y7721447D01*
X6570370Y7770063D01*
X6563766Y7766812D01*
X6552234Y7759090D01*
X6541820Y7749946D01*
X6532676Y7739532D01*
X6525006Y7728051D01*
G37*
G36*
X6663029Y7721447D02*
G01*
X6711645Y7721447D01*
X6708394Y7728051D01*
X6700723Y7739532D01*
X6691579Y7749946D01*
X6681165Y7759090D01*
X6669633Y7766812D01*
X6663029Y7770063D01*
G37*
G36*
X5814364Y7727543D02*
G01*
X5827420Y7727543D01*
X5840425Y7729321D01*
X5853023Y7732826D01*
X5865012Y7738059D01*
X5876188Y7744866D01*
X5886348Y7753146D01*
X5895289Y7762697D01*
X5902807Y7773365D01*
X5908852Y7784998D01*
X5913221Y7797342D01*
X5915914Y7810144D01*
X5916777Y7823200D01*
X5915914Y7836255D01*
X5913221Y7849057D01*
X5908852Y7861401D01*
X5902807Y7873034D01*
X5895289Y7883702D01*
X5886348Y7893253D01*
X5876188Y7901533D01*
X5865012Y7908340D01*
X5853023Y7913522D01*
X5840425Y7917078D01*
X5827420Y7918856D01*
X5814364Y7918856D01*
X5801410Y7917078D01*
X5788812Y7913522D01*
X5776772Y7908340D01*
X5765596Y7901533D01*
X5755436Y7893253D01*
X5746546Y7883702D01*
X5738977Y7873034D01*
X5732932Y7861401D01*
X5728563Y7849057D01*
X5725922Y7836255D01*
X5725007Y7823200D01*
X5725922Y7810144D01*
X5728563Y7797342D01*
X5732932Y7784998D01*
X5738977Y7773365D01*
X5746546Y7762697D01*
X5755436Y7753146D01*
X5765596Y7744866D01*
X5776772Y7738059D01*
X5788812Y7732826D01*
X5801410Y7729321D01*
G37*
G36*
X3443579Y7740243D02*
G01*
X3456635Y7740243D01*
X3469589Y7742021D01*
X3482187Y7745526D01*
X3494227Y7750759D01*
X3505403Y7757566D01*
X3515563Y7765846D01*
X3524453Y7775397D01*
X3532022Y7786065D01*
X3538067Y7797698D01*
X3542436Y7810042D01*
X3545078Y7822844D01*
X3545992Y7835900D01*
X3545078Y7848955D01*
X3542436Y7861757D01*
X3538067Y7874101D01*
X3532022Y7885734D01*
X3524453Y7896402D01*
X3515563Y7905953D01*
X3505403Y7914233D01*
X3494227Y7921040D01*
X3482187Y7926222D01*
X3469589Y7929778D01*
X3456635Y7931556D01*
X3443579Y7931556D01*
X3430574Y7929778D01*
X3417976Y7926222D01*
X3405987Y7921040D01*
X3394811Y7914233D01*
X3384651Y7905953D01*
X3375710Y7896402D01*
X3368192Y7885734D01*
X3362147Y7874101D01*
X3357778Y7861757D01*
X3355086Y7848955D01*
X3354222Y7835900D01*
X3355086Y7822844D01*
X3357778Y7810042D01*
X3362147Y7797698D01*
X3368192Y7786065D01*
X3375710Y7775397D01*
X3384651Y7765846D01*
X3394811Y7757566D01*
X3405987Y7750759D01*
X3417976Y7745526D01*
X3430574Y7742021D01*
G37*
G36*
X7303871Y7887004D02*
G01*
X7453528Y7887004D01*
X7459827Y7887716D01*
X7465314Y7889595D01*
X7470190Y7892694D01*
X7474305Y7896809D01*
X7477404Y7901686D01*
X7479284Y7907172D01*
X7479995Y7913471D01*
X7479995Y8063128D01*
X7479284Y8069427D01*
X7477404Y8074914D01*
X7474305Y8079790D01*
X7470190Y8083905D01*
X7465314Y8087004D01*
X7459827Y8088884D01*
X7453528Y8089595D01*
X7303871Y8089595D01*
X7297572Y8088884D01*
X7292086Y8087004D01*
X7287209Y8083905D01*
X7283094Y8079790D01*
X7279995Y8074914D01*
X7278116Y8069427D01*
X7277404Y8063128D01*
X7277404Y7913471D01*
X7278116Y7907172D01*
X7279995Y7901686D01*
X7283094Y7896809D01*
X7287209Y7892694D01*
X7292086Y7889595D01*
X7297572Y7887716D01*
G37*
G36*
X1498244Y7973263D02*
G01*
X1498244Y8034731D01*
X1436624Y8034731D01*
X1437487Y8032851D01*
X1445818Y8019084D01*
X1455623Y8006334D01*
X1466850Y7994802D01*
X1479296Y7984591D01*
X1492808Y7975904D01*
G37*
G36*
X1625955Y7973263D02*
G01*
X1631391Y7975904D01*
X1644904Y7984591D01*
X1657350Y7994802D01*
X1668576Y8006334D01*
X1678381Y8019084D01*
X1686712Y8032851D01*
X1687575Y8034731D01*
X1625955Y8034731D01*
G37*
G36*
X6806692Y7999374D02*
G01*
X6985508Y7999374D01*
X6991858Y8000085D01*
X6997293Y8002016D01*
X7002221Y8005114D01*
X7006285Y8009178D01*
X7009384Y8014106D01*
X7011314Y8019542D01*
X7012025Y8025892D01*
X7012025Y8204708D01*
X7011314Y8211058D01*
X7009384Y8216493D01*
X7006285Y8221421D01*
X7002221Y8225485D01*
X6997293Y8228584D01*
X6991858Y8230514D01*
X6985508Y8231225D01*
X6806692Y8231225D01*
X6800342Y8230514D01*
X6794906Y8228584D01*
X6789978Y8225485D01*
X6785914Y8221421D01*
X6782816Y8216493D01*
X6780885Y8211058D01*
X6780174Y8204708D01*
X6780174Y8025892D01*
X6780885Y8019542D01*
X6782816Y8014106D01*
X6785914Y8009178D01*
X6789978Y8005114D01*
X6794906Y8002016D01*
X6800342Y8000085D01*
G37*
G36*
X6634835Y7999628D02*
G01*
X6649364Y7999628D01*
X6663791Y8001457D01*
X6677914Y8005064D01*
X6691426Y8010448D01*
X6704177Y8017459D01*
X6715963Y8025993D01*
X6726580Y8035950D01*
X6735876Y8047177D01*
X6743649Y8059470D01*
X6749846Y8072628D01*
X6754368Y8086496D01*
X6757060Y8100771D01*
X6757974Y8115300D01*
X6757060Y8129828D01*
X6754368Y8144103D01*
X6749846Y8157972D01*
X6743649Y8171129D01*
X6735876Y8183422D01*
X6726580Y8194649D01*
X6715963Y8204606D01*
X6704177Y8213140D01*
X6691426Y8220151D01*
X6677914Y8225536D01*
X6663791Y8229142D01*
X6649364Y8230971D01*
X6634835Y8230971D01*
X6620408Y8229142D01*
X6606286Y8225536D01*
X6592773Y8220151D01*
X6580022Y8213140D01*
X6568236Y8204606D01*
X6557619Y8194649D01*
X6548323Y8183422D01*
X6540550Y8171129D01*
X6534353Y8157972D01*
X6529831Y8144103D01*
X6527139Y8129828D01*
X6526225Y8115300D01*
X6527139Y8100771D01*
X6529831Y8086496D01*
X6534353Y8072628D01*
X6540550Y8059470D01*
X6548323Y8047177D01*
X6557619Y8035950D01*
X6568236Y8025993D01*
X6580022Y8017459D01*
X6592773Y8010448D01*
X6606286Y8005064D01*
X6620408Y8001457D01*
G37*
G36*
X5401970Y8093303D02*
G01*
X5570829Y8093303D01*
X5577128Y8094014D01*
X5582615Y8095894D01*
X5587492Y8098993D01*
X5591606Y8103108D01*
X5594705Y8107984D01*
X5596585Y8113471D01*
X5597296Y8119770D01*
X5597296Y8288629D01*
X5596585Y8294928D01*
X5594705Y8300415D01*
X5591606Y8305292D01*
X5587492Y8309406D01*
X5582615Y8312505D01*
X5577128Y8314385D01*
X5570829Y8315096D01*
X5401970Y8315096D01*
X5395671Y8314385D01*
X5390184Y8312505D01*
X5385308Y8309406D01*
X5381193Y8305292D01*
X5378094Y8300415D01*
X5376214Y8294928D01*
X5375503Y8288629D01*
X5375503Y8119770D01*
X5376214Y8113471D01*
X5378094Y8107984D01*
X5381193Y8103108D01*
X5385308Y8098993D01*
X5390184Y8095894D01*
X5395671Y8094014D01*
G37*
G36*
X5027269Y8104784D02*
G01*
X5029708Y8105902D01*
X5041849Y8113268D01*
X5052974Y8122107D01*
X5062829Y8132318D01*
X5071313Y8143697D01*
X5077866Y8155330D01*
X5027269Y8155330D01*
G37*
G36*
X4929530Y8104886D02*
G01*
X4929530Y8155330D01*
X4879086Y8155330D01*
X4881778Y8149793D01*
X4889550Y8137855D01*
X4898745Y8127034D01*
X4909261Y8117484D01*
X4920894Y8109356D01*
G37*
G36*
X3611270Y8106003D02*
G01*
X3780129Y8106003D01*
X3786428Y8106714D01*
X3791915Y8108594D01*
X3796792Y8111693D01*
X3800906Y8115808D01*
X3804005Y8120684D01*
X3805885Y8126171D01*
X3806596Y8132470D01*
X3806596Y8301329D01*
X3805885Y8307628D01*
X3804005Y8313115D01*
X3800906Y8317992D01*
X3796792Y8322106D01*
X3791915Y8325205D01*
X3786428Y8327085D01*
X3780129Y8327796D01*
X3611270Y8327796D01*
X3604971Y8327085D01*
X3599484Y8325205D01*
X3594608Y8322106D01*
X3590493Y8317992D01*
X3587394Y8313115D01*
X3585514Y8307628D01*
X3584803Y8301329D01*
X3584803Y8132470D01*
X3585514Y8126171D01*
X3587394Y8120684D01*
X3590493Y8115808D01*
X3594608Y8111693D01*
X3599484Y8108594D01*
X3604971Y8106714D01*
G37*
G36*
X3953256Y8106054D02*
G01*
X3967378Y8107425D01*
X3981246Y8110575D01*
X3994607Y8115503D01*
X4007205Y8122056D01*
X4018838Y8130184D01*
X4029354Y8139734D01*
X4038549Y8150555D01*
X4046321Y8162493D01*
X4052468Y8175294D01*
X4056938Y8188756D01*
X4059682Y8202726D01*
X4060596Y8216900D01*
X4059682Y8231073D01*
X4056938Y8245043D01*
X4052468Y8258505D01*
X4046321Y8271306D01*
X4038549Y8283244D01*
X4029354Y8294065D01*
X4018838Y8303615D01*
X4007205Y8311743D01*
X3994607Y8318296D01*
X3981246Y8323224D01*
X3967378Y8326374D01*
X3953256Y8327745D01*
X3939032Y8327288D01*
X3925011Y8325002D01*
X3911396Y8320938D01*
X3898392Y8315198D01*
X3886250Y8307831D01*
X3875125Y8298992D01*
X3865270Y8288781D01*
X3856786Y8277402D01*
X3849776Y8265007D01*
X3844442Y8251850D01*
X3840835Y8238083D01*
X3839057Y8224012D01*
X3839057Y8209788D01*
X3840835Y8195716D01*
X3844442Y8181949D01*
X3849776Y8168792D01*
X3856786Y8156397D01*
X3865270Y8145018D01*
X3875125Y8134807D01*
X3886250Y8125968D01*
X3898392Y8118602D01*
X3911396Y8112810D01*
X3925011Y8108797D01*
X3939032Y8106511D01*
G37*
G36*
X4154830Y8117484D02*
G01*
X4154830Y8168030D01*
X4104233Y8168030D01*
X4110786Y8156397D01*
X4119270Y8145018D01*
X4129125Y8134807D01*
X4140250Y8125968D01*
X4152392Y8118602D01*
G37*
G36*
X4252569Y8117586D02*
G01*
X4261205Y8122056D01*
X4272838Y8130184D01*
X4283354Y8139734D01*
X4292549Y8150555D01*
X4300321Y8162493D01*
X4303014Y8168030D01*
X4252569Y8168030D01*
G37*
G36*
X1625955Y8162442D02*
G01*
X1687474Y8162442D01*
X1682750Y8171332D01*
X1673656Y8184642D01*
X1663141Y8196783D01*
X1651304Y8207654D01*
X1638249Y8217103D01*
X1625955Y8224062D01*
G37*
G36*
X1436725Y8162442D02*
G01*
X1498244Y8162442D01*
X1498244Y8224062D01*
X1485950Y8217103D01*
X1472895Y8207654D01*
X1461058Y8196783D01*
X1450543Y8184642D01*
X1441450Y8171332D01*
G37*
G36*
X4879086Y8253069D02*
G01*
X4929530Y8253069D01*
X4929530Y8303514D01*
X4920894Y8299043D01*
X4909261Y8290915D01*
X4898745Y8281365D01*
X4889550Y8270544D01*
X4881778Y8258606D01*
G37*
G36*
X5027269Y8253069D02*
G01*
X5077866Y8253069D01*
X5071313Y8264702D01*
X5062829Y8276081D01*
X5052974Y8286292D01*
X5041849Y8295131D01*
X5029708Y8302498D01*
X5027269Y8303615D01*
G37*
G36*
X4252569Y8265769D02*
G01*
X4303014Y8265769D01*
X4300321Y8271306D01*
X4292549Y8283244D01*
X4283354Y8294065D01*
X4272838Y8303615D01*
X4261205Y8311743D01*
X4252569Y8316214D01*
G37*
G36*
X4104233Y8265769D02*
G01*
X4154830Y8265769D01*
X4154830Y8316315D01*
X4152392Y8315198D01*
X4140250Y8307831D01*
X4129125Y8298992D01*
X4119270Y8288781D01*
X4110786Y8277402D01*
G37*

%LPD*%
G36*
X7104684Y5876137D02*
G01*
X7100620Y5877001D01*
X7097217Y5879388D01*
X7095083Y5882995D01*
X7094575Y5887110D01*
X7095744Y5891123D01*
X7098436Y5894273D01*
X7106564Y5900674D01*
X7117334Y5911443D01*
X7126681Y5923381D01*
X7134555Y5936386D01*
X7140854Y5950305D01*
X7145324Y5964783D01*
X7148068Y5979718D01*
X7148982Y5994908D01*
X7148068Y6010097D01*
X7145324Y6025032D01*
X7140854Y6039459D01*
X7134555Y6053378D01*
X7126681Y6066434D01*
X7117130Y6078575D01*
X7114946Y6081826D01*
X7114184Y6085738D01*
X7114946Y6089650D01*
X7117130Y6092901D01*
X7120432Y6095136D01*
X7124344Y6095898D01*
X7175855Y6095898D01*
X7179767Y6095136D01*
X7183069Y6092901D01*
X7185253Y6089650D01*
X7186015Y6085738D01*
X7185253Y6081826D01*
X7182866Y6078372D01*
X7173518Y6066434D01*
X7165644Y6053378D01*
X7164679Y6051245D01*
X7220762Y6051245D01*
X7220762Y6085738D01*
X7221524Y6089650D01*
X7223709Y6092901D01*
X7227011Y6095136D01*
X7230922Y6095898D01*
X7323277Y6095898D01*
X7327188Y6095136D01*
X7330490Y6092901D01*
X7332675Y6089650D01*
X7333437Y6085738D01*
X7333437Y6051245D01*
X7389520Y6051245D01*
X7388555Y6053378D01*
X7380681Y6066434D01*
X7371130Y6078575D01*
X7368946Y6081826D01*
X7368184Y6085738D01*
X7368946Y6089650D01*
X7371130Y6092901D01*
X7374432Y6095136D01*
X7378344Y6095898D01*
X7429855Y6095898D01*
X7433767Y6095136D01*
X7437069Y6092901D01*
X7439253Y6089650D01*
X7440015Y6085738D01*
X7439253Y6081826D01*
X7436866Y6078372D01*
X7427518Y6066434D01*
X7419644Y6053378D01*
X7413345Y6039459D01*
X7408875Y6025032D01*
X7406131Y6010097D01*
X7405217Y5994908D01*
X7406131Y5979718D01*
X7408875Y5964783D01*
X7413345Y5950305D01*
X7419644Y5936386D01*
X7427518Y5923381D01*
X7436866Y5911443D01*
X7447635Y5900674D01*
X7455763Y5894273D01*
X7458456Y5891123D01*
X7459624Y5887110D01*
X7459116Y5882995D01*
X7456982Y5879388D01*
X7453579Y5877001D01*
X7449515Y5876137D01*
X7358684Y5876137D01*
X7354620Y5877001D01*
X7351217Y5879388D01*
X7349083Y5882995D01*
X7348575Y5887110D01*
X7349744Y5891123D01*
X7352436Y5894273D01*
X7360564Y5900674D01*
X7371334Y5911443D01*
X7380681Y5923381D01*
X7388555Y5936386D01*
X7389520Y5938570D01*
X7333437Y5938570D01*
X7333437Y5886297D01*
X7332675Y5882386D01*
X7330490Y5879134D01*
X7327188Y5876899D01*
X7323277Y5876137D01*
X7230922Y5876137D01*
X7227011Y5876899D01*
X7223709Y5879134D01*
X7221524Y5882386D01*
X7220762Y5886297D01*
X7220762Y5938570D01*
X7164679Y5938570D01*
X7165644Y5936386D01*
X7173518Y5923381D01*
X7182866Y5911443D01*
X7193635Y5900674D01*
X7201763Y5894273D01*
X7204456Y5891123D01*
X7205624Y5887110D01*
X7205116Y5882995D01*
X7202982Y5879388D01*
X7199579Y5877001D01*
X7195515Y5876137D01*
G37*

%LPD*%
G36*
X7059523Y4292193D02*
G01*
X7055307Y4293666D01*
X7052106Y4296765D01*
X7048550Y4302201D01*
X7041743Y4309618D01*
X7033768Y4315764D01*
X7024928Y4320540D01*
X7015429Y4323842D01*
X7011466Y4325467D01*
X7008571Y4328566D01*
X7007148Y4332579D01*
X7007555Y4336846D01*
X7009638Y4340555D01*
X7013041Y4343095D01*
X7017258Y4343958D01*
X7086041Y4343958D01*
X7092340Y4344720D01*
X7097826Y4346600D01*
X7102703Y4349699D01*
X7106818Y4353763D01*
X7109866Y4358690D01*
X7111796Y4364126D01*
X7112508Y4370476D01*
X7112508Y4569307D01*
X7111796Y4575657D01*
X7109866Y4581093D01*
X7106818Y4586020D01*
X7102703Y4590084D01*
X7097826Y4593183D01*
X7092340Y4595063D01*
X7086041Y4595774D01*
X6934758Y4595774D01*
X6928459Y4595063D01*
X6922973Y4593183D01*
X6918096Y4590084D01*
X6913981Y4586020D01*
X6910933Y4581093D01*
X6909003Y4575657D01*
X6908292Y4569307D01*
X6908292Y4525975D01*
X6907530Y4522063D01*
X6905294Y4518761D01*
X6902043Y4516577D01*
X6898131Y4515815D01*
X6566814Y4515815D01*
X6562953Y4516577D01*
X6559651Y4518761D01*
X6506921Y4571492D01*
X6504889Y4574387D01*
X6503873Y4579416D01*
X6504431Y4583785D01*
X6506819Y4587494D01*
X6510528Y4589830D01*
X6514846Y4590389D01*
X6524904Y4589526D01*
X6534708Y4590389D01*
X6544208Y4592929D01*
X6553098Y4597095D01*
X6561124Y4602683D01*
X6568084Y4609642D01*
X6573723Y4617720D01*
X6577888Y4626610D01*
X6580428Y4636109D01*
X6581292Y4645863D01*
X6580124Y4659477D01*
X6581140Y4663033D01*
X6583425Y4665980D01*
X6586575Y4667910D01*
X6590182Y4668570D01*
X7613192Y4668570D01*
X7616240Y4668113D01*
X7618984Y4666742D01*
X7624114Y4663186D01*
X7633004Y4659020D01*
X7642504Y4656480D01*
X7652308Y4655616D01*
X7662062Y4656480D01*
X7671562Y4659020D01*
X7680452Y4663186D01*
X7688529Y4668774D01*
X7695488Y4675733D01*
X7701127Y4683810D01*
X7705242Y4692700D01*
X7707782Y4702200D01*
X7708646Y4711954D01*
X7707782Y4721758D01*
X7705344Y4731004D01*
X7705039Y4734661D01*
X7706106Y4738217D01*
X7708341Y4741164D01*
X7711490Y4743094D01*
X7715148Y4743754D01*
X8448903Y4743754D01*
X8452815Y4742992D01*
X8456117Y4740808D01*
X8594852Y4602073D01*
X8597087Y4598720D01*
X8597849Y4594758D01*
X8596985Y4590846D01*
X8594750Y4587544D01*
X8591346Y4585411D01*
X8587384Y4584700D01*
X8583523Y4585614D01*
X8579053Y4587595D01*
X8564524Y4592116D01*
X8549589Y4594860D01*
X8534400Y4595774D01*
X8519210Y4594860D01*
X8504275Y4592116D01*
X8489746Y4587595D01*
X8475878Y4581347D01*
X8462873Y4573524D01*
X8450935Y4564126D01*
X8440166Y4553356D01*
X8430818Y4541418D01*
X8422944Y4528413D01*
X8416645Y4514494D01*
X8414461Y4511344D01*
X8411210Y4509211D01*
X8407400Y4508500D01*
X8403590Y4509211D01*
X8400338Y4511344D01*
X8398154Y4514494D01*
X8391855Y4528413D01*
X8383981Y4541418D01*
X8374634Y4553356D01*
X8363864Y4564126D01*
X8351926Y4573524D01*
X8338921Y4581347D01*
X8325053Y4587595D01*
X8310524Y4592116D01*
X8295589Y4594860D01*
X8280400Y4595774D01*
X8265210Y4594860D01*
X8250275Y4592116D01*
X8235746Y4587595D01*
X8221878Y4581347D01*
X8208873Y4573524D01*
X8196935Y4564126D01*
X8186166Y4553356D01*
X8176818Y4541418D01*
X8168944Y4528413D01*
X8162645Y4514494D01*
X8160461Y4511344D01*
X8157209Y4509211D01*
X8153400Y4508500D01*
X8149590Y4509211D01*
X8146338Y4511344D01*
X8144154Y4514494D01*
X8137855Y4528413D01*
X8129981Y4541418D01*
X8120634Y4553356D01*
X8109864Y4564126D01*
X8097926Y4573524D01*
X8084921Y4581347D01*
X8071053Y4587595D01*
X8056524Y4592116D01*
X8041589Y4594860D01*
X8026400Y4595774D01*
X8011210Y4594860D01*
X7996275Y4592116D01*
X7981746Y4587595D01*
X7967878Y4581347D01*
X7954873Y4573524D01*
X7942935Y4564126D01*
X7932166Y4553356D01*
X7922818Y4541418D01*
X7914944Y4528413D01*
X7908645Y4514494D01*
X7904175Y4500016D01*
X7901431Y4485081D01*
X7900517Y4469892D01*
X7901431Y4454702D01*
X7904175Y4439767D01*
X7908645Y4425340D01*
X7914944Y4411421D01*
X7922818Y4398365D01*
X7932166Y4386427D01*
X7942935Y4375658D01*
X7954873Y4366310D01*
X7967878Y4358436D01*
X7981746Y4352188D01*
X7996275Y4347667D01*
X8011210Y4344924D01*
X8026400Y4344009D01*
X8041589Y4344924D01*
X8056524Y4347667D01*
X8071053Y4352188D01*
X8084921Y4358436D01*
X8097926Y4366310D01*
X8109864Y4375658D01*
X8120634Y4386427D01*
X8129981Y4398365D01*
X8137855Y4411421D01*
X8144154Y4425340D01*
X8146338Y4428490D01*
X8149590Y4430572D01*
X8153400Y4431284D01*
X8157209Y4430572D01*
X8160461Y4428490D01*
X8162645Y4425340D01*
X8168944Y4411421D01*
X8176818Y4398365D01*
X8186166Y4386427D01*
X8196935Y4375658D01*
X8208873Y4366310D01*
X8221878Y4358436D01*
X8235746Y4352188D01*
X8250275Y4347667D01*
X8265210Y4344924D01*
X8280400Y4344009D01*
X8295589Y4344924D01*
X8310524Y4347667D01*
X8325053Y4352188D01*
X8338921Y4358436D01*
X8351926Y4366310D01*
X8363864Y4375658D01*
X8374634Y4386427D01*
X8383981Y4398365D01*
X8391855Y4411421D01*
X8398154Y4425340D01*
X8400338Y4428490D01*
X8403590Y4430572D01*
X8407400Y4431284D01*
X8411210Y4430572D01*
X8414461Y4428490D01*
X8416645Y4425340D01*
X8422944Y4411421D01*
X8430818Y4398365D01*
X8440166Y4386427D01*
X8450935Y4375658D01*
X8462873Y4366310D01*
X8475878Y4358436D01*
X8489746Y4352188D01*
X8504275Y4347667D01*
X8519210Y4344924D01*
X8534400Y4344009D01*
X8549589Y4344924D01*
X8564524Y4347667D01*
X8579053Y4352188D01*
X8592921Y4358436D01*
X8605926Y4366310D01*
X8617864Y4375658D01*
X8628634Y4386427D01*
X8637981Y4398365D01*
X8645855Y4411421D01*
X8652154Y4425340D01*
X8654338Y4428490D01*
X8657590Y4430572D01*
X8661400Y4431284D01*
X8665210Y4430572D01*
X8668461Y4428490D01*
X8670645Y4425340D01*
X8676944Y4411421D01*
X8684818Y4398365D01*
X8694166Y4386427D01*
X8704935Y4375658D01*
X8716873Y4366310D01*
X8729878Y4358436D01*
X8743746Y4352188D01*
X8758275Y4347667D01*
X8773210Y4344924D01*
X8788400Y4344009D01*
X8803589Y4344924D01*
X8818524Y4347667D01*
X8833053Y4352188D01*
X8846921Y4358436D01*
X8859926Y4366310D01*
X8871864Y4375658D01*
X8882634Y4386427D01*
X8891981Y4398365D01*
X8899855Y4411421D01*
X8906154Y4425340D01*
X8908338Y4428490D01*
X8911590Y4430572D01*
X8915400Y4431284D01*
X8919210Y4430572D01*
X8922461Y4428490D01*
X8924645Y4425340D01*
X8930944Y4411421D01*
X8938818Y4398365D01*
X8948166Y4386427D01*
X8958935Y4375658D01*
X8970873Y4366310D01*
X8983878Y4358436D01*
X8997746Y4352188D01*
X9012275Y4347667D01*
X9027210Y4344924D01*
X9042400Y4344009D01*
X9057589Y4344924D01*
X9072524Y4347667D01*
X9087053Y4352188D01*
X9100921Y4358436D01*
X9113926Y4366310D01*
X9125864Y4375658D01*
X9136634Y4386427D01*
X9145981Y4398365D01*
X9153855Y4411421D01*
X9160154Y4425340D01*
X9162338Y4428490D01*
X9165590Y4430572D01*
X9169400Y4431284D01*
X9173210Y4430572D01*
X9176461Y4428490D01*
X9178645Y4425340D01*
X9184944Y4411421D01*
X9192818Y4398365D01*
X9202166Y4386427D01*
X9212935Y4375658D01*
X9224873Y4366310D01*
X9237878Y4358436D01*
X9251746Y4352188D01*
X9266275Y4347667D01*
X9281210Y4344924D01*
X9296400Y4344009D01*
X9311589Y4344924D01*
X9326524Y4347667D01*
X9341053Y4352188D01*
X9354921Y4358436D01*
X9367926Y4366310D01*
X9379864Y4375658D01*
X9390634Y4386427D01*
X9399981Y4398365D01*
X9407855Y4411421D01*
X9414154Y4425340D01*
X9416338Y4428490D01*
X9419590Y4430572D01*
X9423400Y4431284D01*
X9427210Y4430572D01*
X9430461Y4428490D01*
X9432645Y4425340D01*
X9438944Y4411421D01*
X9446818Y4398365D01*
X9456166Y4386427D01*
X9466935Y4375658D01*
X9478873Y4366310D01*
X9491878Y4358436D01*
X9505746Y4352188D01*
X9520275Y4347667D01*
X9535210Y4344924D01*
X9550400Y4344009D01*
X9565589Y4344924D01*
X9580524Y4347667D01*
X9595053Y4352188D01*
X9608921Y4358436D01*
X9621926Y4366310D01*
X9633864Y4375658D01*
X9644634Y4386427D01*
X9653981Y4398365D01*
X9661855Y4411421D01*
X9668154Y4425340D01*
X9670338Y4428490D01*
X9673590Y4430572D01*
X9677400Y4431284D01*
X9681210Y4430572D01*
X9684461Y4428490D01*
X9686645Y4425340D01*
X9692944Y4411421D01*
X9700818Y4398365D01*
X9710166Y4386427D01*
X9720935Y4375658D01*
X9732873Y4366310D01*
X9745878Y4358436D01*
X9759746Y4352188D01*
X9774275Y4347667D01*
X9789210Y4344924D01*
X9804400Y4344009D01*
X9819589Y4344924D01*
X9834524Y4347667D01*
X9849053Y4352188D01*
X9853523Y4354220D01*
X9857435Y4355084D01*
X9861397Y4354423D01*
X9864750Y4352239D01*
X9867036Y4348937D01*
X9867849Y4345025D01*
X9867087Y4341114D01*
X9864902Y4337761D01*
X9843465Y4316323D01*
X9840163Y4314139D01*
X9836251Y4313326D01*
X7102348Y4313326D01*
X7094067Y4312158D01*
X7086447Y4309618D01*
X7079488Y4305706D01*
X7072934Y4300321D01*
X7067803Y4295140D01*
X7063994Y4292752D01*
G37*

%LPC*%
G36*
X7264400Y4344009D02*
G01*
X7279589Y4344924D01*
X7294524Y4347667D01*
X7309053Y4352188D01*
X7322921Y4358436D01*
X7335926Y4366310D01*
X7347864Y4375658D01*
X7358634Y4386427D01*
X7367981Y4398365D01*
X7375855Y4411421D01*
X7382154Y4425340D01*
X7384338Y4428490D01*
X7387590Y4430572D01*
X7391400Y4431284D01*
X7395209Y4430572D01*
X7398461Y4428490D01*
X7400645Y4425340D01*
X7406944Y4411421D01*
X7414818Y4398365D01*
X7424166Y4386427D01*
X7434935Y4375658D01*
X7446873Y4366310D01*
X7459878Y4358436D01*
X7473746Y4352188D01*
X7488275Y4347667D01*
X7503210Y4344924D01*
X7518400Y4344009D01*
X7533589Y4344924D01*
X7548524Y4347667D01*
X7563053Y4352188D01*
X7576921Y4358436D01*
X7589926Y4366310D01*
X7601864Y4375658D01*
X7612634Y4386427D01*
X7621981Y4398365D01*
X7629855Y4411421D01*
X7636154Y4425340D01*
X7640624Y4439767D01*
X7643368Y4454702D01*
X7644282Y4469892D01*
X7643368Y4485081D01*
X7640624Y4500016D01*
X7636154Y4514494D01*
X7629855Y4528413D01*
X7621981Y4541418D01*
X7612634Y4553356D01*
X7601864Y4564126D01*
X7589926Y4573524D01*
X7576921Y4581347D01*
X7563053Y4587595D01*
X7548524Y4592116D01*
X7533589Y4594860D01*
X7518400Y4595774D01*
X7503210Y4594860D01*
X7488275Y4592116D01*
X7473746Y4587595D01*
X7459878Y4581347D01*
X7446873Y4573524D01*
X7434935Y4564126D01*
X7424166Y4553356D01*
X7414818Y4541418D01*
X7406944Y4528413D01*
X7400645Y4514494D01*
X7398461Y4511344D01*
X7395209Y4509211D01*
X7391400Y4508500D01*
X7387590Y4509211D01*
X7384338Y4511344D01*
X7382154Y4514494D01*
X7375855Y4528413D01*
X7367981Y4541418D01*
X7358634Y4553356D01*
X7347864Y4564126D01*
X7335926Y4573524D01*
X7322921Y4581347D01*
X7309053Y4587595D01*
X7294524Y4592116D01*
X7279589Y4594860D01*
X7264400Y4595774D01*
X7249210Y4594860D01*
X7234275Y4592116D01*
X7219746Y4587595D01*
X7205878Y4581347D01*
X7192873Y4573524D01*
X7180935Y4564126D01*
X7170166Y4553356D01*
X7160818Y4541418D01*
X7152944Y4528413D01*
X7146696Y4514545D01*
X7142175Y4500016D01*
X7139431Y4485081D01*
X7138517Y4469892D01*
X7139431Y4454702D01*
X7142175Y4439767D01*
X7146696Y4425238D01*
X7152944Y4411421D01*
X7160818Y4398365D01*
X7170166Y4386427D01*
X7180935Y4375658D01*
X7192873Y4366310D01*
X7205878Y4358436D01*
X7219746Y4352188D01*
X7234275Y4347667D01*
X7249210Y4344924D01*
G37*
G36*
X7828737Y4357471D02*
G01*
X7830921Y4358436D01*
X7843926Y4366310D01*
X7855864Y4375658D01*
X7866634Y4386427D01*
X7875981Y4398365D01*
X7883855Y4411421D01*
X7884820Y4413554D01*
X7828737Y4413554D01*
G37*
G36*
X7716062Y4357471D02*
G01*
X7716062Y4413554D01*
X7659979Y4413554D01*
X7660944Y4411421D01*
X7668818Y4398365D01*
X7678166Y4386427D01*
X7688935Y4375658D01*
X7700873Y4366310D01*
X7713878Y4358436D01*
G37*
G36*
X7659979Y4526229D02*
G01*
X7716062Y4526229D01*
X7716062Y4582363D01*
X7713878Y4581347D01*
X7700873Y4573524D01*
X7688935Y4564126D01*
X7678166Y4553356D01*
X7668818Y4541418D01*
X7660944Y4528413D01*
G37*
G36*
X7828737Y4526229D02*
G01*
X7884820Y4526229D01*
X7883855Y4528413D01*
X7875981Y4541418D01*
X7866634Y4553356D01*
X7855864Y4564126D01*
X7843926Y4573524D01*
X7830921Y4581347D01*
X7828737Y4582363D01*
G37*

%LPD*%
G36*
X4096715Y4043476D02*
G01*
X4092701Y4045204D01*
X4089755Y4048455D01*
X4088333Y4051096D01*
X4082897Y4057599D01*
X4023664Y4116781D01*
X4017010Y4121810D01*
X4009847Y4125366D01*
X4002125Y4127601D01*
X3993692Y4128363D01*
X2926537Y4128363D01*
X2922625Y4129125D01*
X2919323Y4131360D01*
X2715818Y4334865D01*
X2713888Y4337558D01*
X2712923Y4340758D01*
X2713075Y4344111D01*
X2715514Y4355744D01*
X2716377Y4368800D01*
X2715514Y4381855D01*
X2712821Y4394657D01*
X2708452Y4407001D01*
X2702407Y4418634D01*
X2694889Y4429302D01*
X2685948Y4438853D01*
X2675788Y4447133D01*
X2664612Y4453940D01*
X2652623Y4459122D01*
X2640025Y4462678D01*
X2628849Y4464202D01*
X2624632Y4465777D01*
X2621534Y4468977D01*
X2620111Y4473244D01*
X2620670Y4477664D01*
X2623058Y4481474D01*
X2883306Y4741722D01*
X2886608Y4743907D01*
X2890469Y4744669D01*
X3679545Y4744669D01*
X3682796Y4744161D01*
X3685743Y4742586D01*
X3687978Y4740198D01*
X3690670Y4736134D01*
X3699814Y4725720D01*
X3710228Y4716576D01*
X3721760Y4708906D01*
X3734155Y4702759D01*
X3747312Y4698339D01*
X3760876Y4695596D01*
X3774694Y4694732D01*
X3788511Y4695596D01*
X3802075Y4698339D01*
X3815232Y4702759D01*
X3827627Y4708906D01*
X3839159Y4716576D01*
X3849573Y4725720D01*
X3858717Y4736134D01*
X3866387Y4747666D01*
X3872534Y4760061D01*
X3876954Y4773218D01*
X3879697Y4786782D01*
X3880561Y4800600D01*
X3879697Y4814417D01*
X3876954Y4827981D01*
X3872534Y4841138D01*
X3866387Y4853533D01*
X3858717Y4865065D01*
X3849573Y4875479D01*
X3839159Y4884623D01*
X3827627Y4892294D01*
X3815232Y4898440D01*
X3802075Y4902860D01*
X3788511Y4905603D01*
X3774694Y4906467D01*
X3760876Y4905603D01*
X3747312Y4902860D01*
X3734155Y4898440D01*
X3721760Y4892294D01*
X3710228Y4884623D01*
X3699814Y4875479D01*
X3690670Y4865065D01*
X3687978Y4861001D01*
X3685743Y4858613D01*
X3682796Y4857038D01*
X3679545Y4856530D01*
X3470554Y4856530D01*
X3466693Y4857292D01*
X3463391Y4859477D01*
X3461207Y4862779D01*
X3460394Y4866690D01*
X3461207Y4870551D01*
X3463391Y4873853D01*
X4682439Y6092901D01*
X4685741Y6095136D01*
X4689652Y6095898D01*
X6921855Y6095898D01*
X6925767Y6095136D01*
X6929069Y6092901D01*
X6931253Y6089650D01*
X6932015Y6085738D01*
X6931253Y6081826D01*
X6928866Y6078372D01*
X6919518Y6066434D01*
X6911644Y6053378D01*
X6905396Y6039561D01*
X6900875Y6025032D01*
X6898131Y6010097D01*
X6897217Y5994908D01*
X6898131Y5979718D01*
X6900875Y5964783D01*
X6905396Y5950254D01*
X6911644Y5936386D01*
X6919518Y5923381D01*
X6928866Y5911443D01*
X6939635Y5900674D01*
X6945884Y5895746D01*
X6948373Y5892901D01*
X6949643Y5889396D01*
X6949541Y5885586D01*
X6948068Y5882132D01*
X6945426Y5879439D01*
X6940397Y5875934D01*
X6933488Y5868974D01*
X6927850Y5860897D01*
X6923684Y5852007D01*
X6921144Y5842508D01*
X6920280Y5832703D01*
X6921042Y5823813D01*
X6920534Y5819648D01*
X6918401Y5816041D01*
X6915048Y5813602D01*
X6910933Y5812739D01*
X5599125Y5812739D01*
X5594858Y5813704D01*
X5591403Y5816295D01*
X5589371Y5820105D01*
X5589066Y5824423D01*
X5590590Y5828487D01*
X5594705Y5834786D01*
X5596585Y5840171D01*
X5597296Y5846470D01*
X5597296Y6015329D01*
X5596585Y6021628D01*
X5594705Y6027115D01*
X5591606Y6031992D01*
X5587492Y6036106D01*
X5582615Y6039205D01*
X5577128Y6041085D01*
X5570829Y6041796D01*
X5401970Y6041796D01*
X5395671Y6041085D01*
X5390184Y6039205D01*
X5385308Y6036106D01*
X5381193Y6031992D01*
X5378094Y6027115D01*
X5376214Y6021628D01*
X5375503Y6015329D01*
X5375503Y5984392D01*
X5374741Y5980582D01*
X5372658Y5977331D01*
X5369458Y5975096D01*
X5365699Y5974232D01*
X5362295Y5974080D01*
X5358384Y5973572D01*
X5354472Y5972657D01*
X5350662Y5971387D01*
X5347309Y5969863D01*
X5343347Y5969000D01*
X5339384Y5969762D01*
X5336032Y5971997D01*
X5333796Y5975350D01*
X5332323Y5979007D01*
X5325313Y5991402D01*
X5316829Y6002782D01*
X5306974Y6012992D01*
X5295849Y6021832D01*
X5283708Y6029198D01*
X5270703Y6034938D01*
X5257088Y6039002D01*
X5243068Y6041288D01*
X5228844Y6041745D01*
X5214721Y6040374D01*
X5200853Y6037224D01*
X5187492Y6032296D01*
X5174894Y6025743D01*
X5163261Y6017615D01*
X5152745Y6008065D01*
X5143550Y5997244D01*
X5135778Y5985306D01*
X5129631Y5972505D01*
X5125161Y5959043D01*
X5122418Y5945073D01*
X5121503Y5930900D01*
X5122418Y5916726D01*
X5125161Y5902756D01*
X5129631Y5889294D01*
X5135778Y5876493D01*
X5143550Y5864555D01*
X5152745Y5853734D01*
X5163261Y5844184D01*
X5174894Y5836056D01*
X5187492Y5829503D01*
X5200853Y5824575D01*
X5214162Y5821578D01*
X5218074Y5819749D01*
X5220868Y5816447D01*
X5222036Y5812332D01*
X5221427Y5808065D01*
X5219090Y5804458D01*
X5010912Y5596280D01*
X5007610Y5594096D01*
X5003749Y5593283D01*
X4887722Y5593283D01*
X4884115Y5593994D01*
X4880965Y5595874D01*
X4870653Y5610402D01*
X4861763Y5619953D01*
X4851603Y5628233D01*
X4840427Y5635040D01*
X4828387Y5640222D01*
X4815789Y5643778D01*
X4802835Y5645556D01*
X4789779Y5645556D01*
X4776774Y5643778D01*
X4764176Y5640222D01*
X4752187Y5635040D01*
X4741011Y5628233D01*
X4730851Y5619953D01*
X4721910Y5610402D01*
X4714392Y5599734D01*
X4708347Y5588101D01*
X4703978Y5575757D01*
X4701286Y5562955D01*
X4700422Y5549900D01*
X4701286Y5536844D01*
X4703978Y5524042D01*
X4708347Y5511698D01*
X4714392Y5500065D01*
X4721910Y5489397D01*
X4730851Y5479846D01*
X4741011Y5471566D01*
X4752187Y5464759D01*
X4764176Y5459526D01*
X4776774Y5456021D01*
X4785004Y5454904D01*
X4789068Y5453430D01*
X4792116Y5450433D01*
X4793691Y5446420D01*
X4793437Y5442153D01*
X4791506Y5438343D01*
X4788103Y5435701D01*
X4780076Y5430062D01*
X4773117Y5423103D01*
X4767478Y5415076D01*
X4763312Y5406186D01*
X4760772Y5396687D01*
X4759909Y5386882D01*
X4760772Y5377078D01*
X4763312Y5367578D01*
X4767478Y5358688D01*
X4773117Y5350662D01*
X4780076Y5343702D01*
X4788103Y5338064D01*
X4797044Y5333898D01*
X4806492Y5331358D01*
X4816297Y5330494D01*
X4826101Y5331358D01*
X4835601Y5333898D01*
X4844491Y5338064D01*
X4849571Y5341620D01*
X4852365Y5342991D01*
X4855413Y5343448D01*
X5356910Y5343499D01*
X5365140Y5344668D01*
X5372760Y5347208D01*
X5379720Y5351119D01*
X5386273Y5356504D01*
X5659069Y5629300D01*
X5662371Y5631535D01*
X5666232Y5632297D01*
X5768949Y5632297D01*
X5772810Y5631535D01*
X5776061Y5629402D01*
X5778296Y5626201D01*
X5779109Y5622391D01*
X5778449Y5618530D01*
X5776417Y5615178D01*
X5771946Y5610402D01*
X5764377Y5599734D01*
X5758332Y5588101D01*
X5753963Y5575757D01*
X5751322Y5562955D01*
X5750407Y5549900D01*
X5751322Y5536844D01*
X5753963Y5524042D01*
X5758332Y5511698D01*
X5764377Y5500065D01*
X5771946Y5489397D01*
X5780836Y5479846D01*
X5790996Y5471566D01*
X5802172Y5464759D01*
X5814212Y5459526D01*
X5826810Y5456021D01*
X5839764Y5454243D01*
X5852820Y5454243D01*
X5865825Y5456021D01*
X5878423Y5459526D01*
X5890412Y5464759D01*
X5901588Y5471566D01*
X5911748Y5479846D01*
X5920689Y5489397D01*
X5930950Y5503926D01*
X5934100Y5505805D01*
X5937707Y5506466D01*
X8702192Y5506466D01*
X8706104Y5505704D01*
X8709406Y5503519D01*
X9610852Y4602073D01*
X9613087Y4598720D01*
X9613849Y4594758D01*
X9612985Y4590846D01*
X9610750Y4587544D01*
X9607346Y4585411D01*
X9603384Y4584700D01*
X9599523Y4585614D01*
X9595053Y4587595D01*
X9580524Y4592116D01*
X9565589Y4594860D01*
X9550400Y4595774D01*
X9535210Y4594860D01*
X9520275Y4592116D01*
X9505746Y4587595D01*
X9504121Y4586884D01*
X9500108Y4585970D01*
X9496145Y4586681D01*
X9492742Y4588916D01*
X8976969Y5104688D01*
X8970264Y5109718D01*
X8963101Y5113274D01*
X8955430Y5115458D01*
X8946997Y5116220D01*
X4980330Y5116220D01*
X4976469Y5117033D01*
X4973167Y5119217D01*
X4961432Y5130952D01*
X4959248Y5134254D01*
X4958435Y5138115D01*
X4959248Y5142026D01*
X4961432Y5145328D01*
X4964734Y5147513D01*
X4968595Y5148275D01*
X8748928Y5148275D01*
X8751570Y5147970D01*
X8759698Y5145786D01*
X8769502Y5144922D01*
X8779256Y5145786D01*
X8788755Y5148326D01*
X8797645Y5152491D01*
X8805722Y5158079D01*
X8812682Y5165039D01*
X8818321Y5173116D01*
X8822436Y5182006D01*
X8824976Y5191506D01*
X8825839Y5201259D01*
X8824976Y5211064D01*
X8822436Y5220563D01*
X8818321Y5229453D01*
X8812682Y5237530D01*
X8805722Y5244490D01*
X8797645Y5250078D01*
X8788755Y5254244D01*
X8779256Y5256784D01*
X8769502Y5257647D01*
X8759698Y5256784D01*
X8750198Y5254244D01*
X8741308Y5250078D01*
X8733231Y5244490D01*
X8726881Y5238089D01*
X8723579Y5235905D01*
X8719667Y5235092D01*
X8351570Y5235092D01*
X8347456Y5235956D01*
X8344052Y5238394D01*
X8341918Y5242001D01*
X8341410Y5246166D01*
X8342223Y5255056D01*
X8341359Y5264861D01*
X8338820Y5274360D01*
X8334654Y5283250D01*
X8329015Y5291328D01*
X8322056Y5298287D01*
X8314029Y5303875D01*
X8305139Y5308041D01*
X8295640Y5310581D01*
X8285835Y5311444D01*
X8276031Y5310581D01*
X8266582Y5308041D01*
X8257641Y5303875D01*
X8252561Y5300319D01*
X8249767Y5298948D01*
X8246719Y5298490D01*
X6785457Y5298490D01*
X6781546Y5299252D01*
X6778244Y5301488D01*
X6737908Y5341823D01*
X6735724Y5345125D01*
X6734911Y5348986D01*
X6735724Y5352897D01*
X6737908Y5356199D01*
X6741210Y5358384D01*
X6745071Y5359146D01*
X8338159Y5359146D01*
X8342477Y5358231D01*
X8345982Y5355539D01*
X8348014Y5351627D01*
X8350046Y5344007D01*
X8354212Y5335117D01*
X8359851Y5327040D01*
X8366759Y5320080D01*
X8374837Y5314492D01*
X8383727Y5310327D01*
X8393226Y5307787D01*
X8403031Y5306923D01*
X8412784Y5307787D01*
X8422284Y5310327D01*
X8431174Y5314492D01*
X8439251Y5320080D01*
X8446211Y5327040D01*
X8451850Y5335117D01*
X8455964Y5344007D01*
X8458504Y5353507D01*
X8459368Y5363260D01*
X8458504Y5373065D01*
X8455964Y5382564D01*
X8451850Y5391454D01*
X8446211Y5399532D01*
X8439251Y5406491D01*
X8431174Y5412079D01*
X8422284Y5416245D01*
X8408822Y5419750D01*
X8405926Y5421782D01*
X8393125Y5434482D01*
X8386521Y5439460D01*
X8379358Y5443016D01*
X8371687Y5445201D01*
X8363254Y5445963D01*
X6013043Y5445963D01*
X6009995Y5446471D01*
X6007201Y5447842D01*
X6002070Y5451398D01*
X5993180Y5455564D01*
X5983681Y5458104D01*
X5973927Y5458968D01*
X5964123Y5458104D01*
X5954623Y5455564D01*
X5945733Y5451398D01*
X5937656Y5445810D01*
X5930747Y5438851D01*
X5925108Y5430774D01*
X5920943Y5421884D01*
X5918403Y5412384D01*
X5917539Y5402580D01*
X5918403Y5392826D01*
X5920943Y5383326D01*
X5925108Y5374436D01*
X5930747Y5366359D01*
X5937656Y5359400D01*
X5945733Y5353812D01*
X5954623Y5349646D01*
X5964123Y5347106D01*
X5973927Y5346242D01*
X5983681Y5347106D01*
X5993180Y5349646D01*
X6002070Y5353812D01*
X6007150Y5357317D01*
X6009944Y5358688D01*
X6012992Y5359146D01*
X6613550Y5359146D01*
X6617665Y5358333D01*
X6621068Y5355894D01*
X6623202Y5352288D01*
X6623659Y5348122D01*
X6622897Y5339080D01*
X6623761Y5329275D01*
X6626301Y5319776D01*
X6630466Y5310886D01*
X6636105Y5302859D01*
X6643014Y5295900D01*
X6651091Y5290261D01*
X6659981Y5286095D01*
X6673494Y5282590D01*
X6676390Y5280558D01*
X6704482Y5252466D01*
X6706717Y5249164D01*
X6707479Y5245252D01*
X6706717Y5241391D01*
X6704482Y5238089D01*
X6701180Y5235905D01*
X6697319Y5235092D01*
X4955286Y5235092D01*
X4951018Y5236057D01*
X4947513Y5238750D01*
X4945481Y5242661D01*
X4943754Y5249113D01*
X4939639Y5258003D01*
X4934000Y5266029D01*
X4927041Y5272989D01*
X4918964Y5278628D01*
X4910074Y5282793D01*
X4900574Y5285333D01*
X4890820Y5286197D01*
X4881016Y5285333D01*
X4871516Y5282793D01*
X4862626Y5278628D01*
X4854549Y5272989D01*
X4847640Y5266029D01*
X4845812Y5263438D01*
X4842560Y5260492D01*
X4838344Y5259171D01*
X4834026Y5259730D01*
X4830318Y5262067D01*
X4581296Y5511088D01*
X4579162Y5514238D01*
X4578299Y5517946D01*
X4578908Y5521706D01*
X4579721Y5524042D01*
X4582414Y5536844D01*
X4583277Y5549900D01*
X4582414Y5562955D01*
X4579721Y5575757D01*
X4575352Y5588101D01*
X4569307Y5599734D01*
X4561789Y5610402D01*
X4552848Y5619953D01*
X4542688Y5628233D01*
X4531512Y5635040D01*
X4519523Y5640222D01*
X4506925Y5643778D01*
X4493920Y5645556D01*
X4480864Y5645556D01*
X4467910Y5643778D01*
X4455312Y5640222D01*
X4443272Y5635040D01*
X4432096Y5628233D01*
X4421936Y5619953D01*
X4413046Y5610402D01*
X4405477Y5599734D01*
X4399432Y5588101D01*
X4395063Y5575757D01*
X4392422Y5562955D01*
X4391507Y5549900D01*
X4392422Y5536844D01*
X4395063Y5524042D01*
X4399432Y5511698D01*
X4405477Y5500065D01*
X4413046Y5489397D01*
X4421936Y5479846D01*
X4432096Y5471566D01*
X4443272Y5464759D01*
X4455312Y5459526D01*
X4467910Y5456021D01*
X4480864Y5454243D01*
X4493920Y5454243D01*
X4507738Y5456174D01*
X4510836Y5456123D01*
X4513834Y5455107D01*
X4516323Y5453278D01*
X4928666Y5040985D01*
X4935321Y5035956D01*
X4942484Y5032400D01*
X4950206Y5030216D01*
X4958638Y5029403D01*
X5200091Y5029403D01*
X5204155Y5028590D01*
X5207508Y5026202D01*
X5209641Y5022697D01*
X5210251Y5018633D01*
X5209184Y5014671D01*
X5206593Y5011470D01*
X5204866Y5009997D01*
X5164937Y4970068D01*
X5159908Y4963363D01*
X5156352Y4956200D01*
X5154168Y4948529D01*
X5153406Y4940096D01*
X5153406Y4848910D01*
X5152491Y4844694D01*
X5149900Y4841290D01*
X5146192Y4839208D01*
X5141874Y4838852D01*
X5137861Y4840274D01*
X5134762Y4843272D01*
X5128717Y4852365D01*
X5119573Y4862779D01*
X5109159Y4871923D01*
X5097627Y4879594D01*
X5091023Y4882845D01*
X5091023Y4834229D01*
X5143246Y4834229D01*
X5147106Y4833467D01*
X5150408Y4831283D01*
X5152593Y4827981D01*
X5153406Y4824069D01*
X5153406Y4786172D01*
X5152593Y4782312D01*
X5150408Y4779010D01*
X5115915Y4744516D01*
X5112613Y4742332D01*
X5108752Y4741570D01*
X5091023Y4741570D01*
X5091023Y4723841D01*
X5090261Y4719980D01*
X5088077Y4716678D01*
X4905552Y4534154D01*
X4902250Y4531969D01*
X4898390Y4531156D01*
X4702048Y4531156D01*
X4693767Y4529988D01*
X4686147Y4527448D01*
X4679188Y4523536D01*
X4672634Y4518152D01*
X4224223Y4069689D01*
X4221022Y4067556D01*
X4217314Y4066743D01*
X4213504Y4067352D01*
X4209846Y4068724D01*
X4195978Y4071874D01*
X4181856Y4073245D01*
X4167632Y4072788D01*
X4153611Y4070502D01*
X4139996Y4066438D01*
X4126992Y4060698D01*
X4114850Y4053332D01*
X4104995Y4045458D01*
X4101084Y4043527D01*
G37*

%LPC*%
G36*
X4998364Y4692954D02*
G01*
X4998364Y4741570D01*
X4949748Y4741570D01*
X4953000Y4734966D01*
X4960670Y4723434D01*
X4969814Y4713020D01*
X4980228Y4703876D01*
X4991760Y4696206D01*
G37*
G36*
X4078376Y4705654D02*
G01*
X4078376Y4754270D01*
X4029760Y4754270D01*
X4033012Y4747666D01*
X4040682Y4736134D01*
X4049826Y4725720D01*
X4060240Y4716576D01*
X4071772Y4708906D01*
G37*
G36*
X4171035Y4705654D02*
G01*
X4177639Y4708906D01*
X4189171Y4716576D01*
X4199585Y4725720D01*
X4208729Y4736134D01*
X4216400Y4747666D01*
X4219651Y4754270D01*
X4171035Y4754270D01*
G37*
G36*
X4949748Y4834229D02*
G01*
X4998364Y4834229D01*
X4998364Y4882845D01*
X4991760Y4879594D01*
X4980228Y4871923D01*
X4969814Y4862779D01*
X4960670Y4852365D01*
X4953000Y4840833D01*
G37*
G36*
X4171035Y4846929D02*
G01*
X4219651Y4846929D01*
X4216400Y4853533D01*
X4208729Y4865065D01*
X4199585Y4875479D01*
X4189171Y4884623D01*
X4177639Y4892294D01*
X4171035Y4895545D01*
G37*
G36*
X4029760Y4846929D02*
G01*
X4078376Y4846929D01*
X4078376Y4895545D01*
X4071772Y4892294D01*
X4060240Y4884623D01*
X4049826Y4875479D01*
X4040682Y4865065D01*
X4033012Y4853533D01*
G37*
G36*
X5027269Y5831484D02*
G01*
X5029708Y5832602D01*
X5041849Y5839968D01*
X5052974Y5848807D01*
X5062829Y5859018D01*
X5071313Y5870397D01*
X5077866Y5882030D01*
X5027269Y5882030D01*
G37*
G36*
X4929530Y5831586D02*
G01*
X4929530Y5882030D01*
X4879086Y5882030D01*
X4881778Y5876493D01*
X4889550Y5864555D01*
X4898745Y5853734D01*
X4909261Y5844184D01*
X4920894Y5836056D01*
G37*
G36*
X4879086Y5979769D02*
G01*
X4929530Y5979769D01*
X4929530Y6030214D01*
X4920894Y6025743D01*
X4909261Y6017615D01*
X4898745Y6008065D01*
X4889550Y5997244D01*
X4881778Y5985306D01*
G37*
G36*
X5027269Y5979769D02*
G01*
X5077866Y5979769D01*
X5071313Y5991402D01*
X5062829Y6002782D01*
X5052974Y6012992D01*
X5041849Y6021832D01*
X5029708Y6029198D01*
X5027269Y6030315D01*
G37*

%LPD*%
G36*
X5284368Y3871671D02*
G01*
X5280609Y3872382D01*
X5277408Y3874465D01*
X5275173Y3877564D01*
X5274259Y3881272D01*
X5274767Y3885082D01*
X5276646Y3888435D01*
X5283149Y3896055D01*
X5290921Y3907993D01*
X5297068Y3920794D01*
X5301538Y3934256D01*
X5304282Y3948226D01*
X5305196Y3962400D01*
X5304282Y3976573D01*
X5301538Y3990543D01*
X5299100Y3997909D01*
X5298592Y4001566D01*
X5299456Y4005224D01*
X5301589Y4008272D01*
X5892800Y4599482D01*
X5896102Y4601718D01*
X5899962Y4602480D01*
X6376466Y4602480D01*
X6380073Y4601819D01*
X6383223Y4599889D01*
X6385458Y4596993D01*
X6386525Y4593488D01*
X6386271Y4589830D01*
X6383731Y4579721D01*
X6382918Y4569714D01*
X6383731Y4559706D01*
X6386220Y4549952D01*
X6390233Y4540758D01*
X6395720Y4532325D01*
X6402527Y4524908D01*
X6410502Y4518761D01*
X6419342Y4513986D01*
X6428841Y4510684D01*
X6436461Y4509414D01*
X6439458Y4508449D01*
X6441998Y4506569D01*
X6512407Y4436211D01*
X6519468Y4430877D01*
X6527038Y4427118D01*
X6535166Y4424832D01*
X6544056Y4423968D01*
X6898131Y4423968D01*
X6902043Y4423206D01*
X6905294Y4421022D01*
X6907530Y4417720D01*
X6908292Y4413808D01*
X6908292Y4370476D01*
X6909003Y4364126D01*
X6910933Y4358690D01*
X6913981Y4353763D01*
X6918096Y4349699D01*
X6922973Y4346600D01*
X6928459Y4344720D01*
X6934758Y4343958D01*
X6983730Y4343958D01*
X6987946Y4343095D01*
X6991350Y4340555D01*
X6993432Y4336846D01*
X6993839Y4332579D01*
X6992416Y4328566D01*
X6989521Y4325467D01*
X6985558Y4323842D01*
X6976059Y4320540D01*
X6967220Y4315764D01*
X6963460Y4312869D01*
X6960514Y4311294D01*
X6957212Y4310735D01*
X6490563Y4310735D01*
X6486652Y4311497D01*
X6483350Y4313682D01*
X6366916Y4430166D01*
X6364833Y4433062D01*
X6363817Y4438396D01*
X6361328Y4448149D01*
X6357264Y4457344D01*
X6351778Y4465777D01*
X6344970Y4473194D01*
X6337046Y4479340D01*
X6328206Y4484116D01*
X6318707Y4487418D01*
X6308801Y4489043D01*
X6298742Y4489043D01*
X6288786Y4487418D01*
X6279286Y4484116D01*
X6270447Y4479340D01*
X6262522Y4473194D01*
X6255715Y4465777D01*
X6250228Y4457344D01*
X6246164Y4448149D01*
X6243726Y4438396D01*
X6242862Y4428388D01*
X6243726Y4418380D01*
X6246164Y4408627D01*
X6250228Y4399432D01*
X6255715Y4390999D01*
X6262522Y4383582D01*
X6270447Y4377436D01*
X6279286Y4372660D01*
X6288786Y4369358D01*
X6296456Y4368088D01*
X6299403Y4367123D01*
X6301943Y4365244D01*
X6436156Y4231132D01*
X6443167Y4225798D01*
X6450736Y4222038D01*
X6458915Y4219752D01*
X6467805Y4218889D01*
X6957212Y4218889D01*
X6960514Y4218330D01*
X6963460Y4216755D01*
X6970674Y4211167D01*
X6972503Y4207916D01*
X6973062Y4204208D01*
X6972198Y4200550D01*
X6970064Y4197451D01*
X6647281Y3874668D01*
X6643979Y3872433D01*
X6640118Y3871671D01*
X5538368Y3871671D01*
X5534609Y3872382D01*
X5531408Y3874465D01*
X5529173Y3877564D01*
X5528259Y3881272D01*
X5528767Y3885082D01*
X5530646Y3888435D01*
X5537149Y3896055D01*
X5544921Y3907993D01*
X5551068Y3920794D01*
X5555538Y3934256D01*
X5558282Y3948226D01*
X5559196Y3962400D01*
X5558282Y3976573D01*
X5555538Y3990543D01*
X5551068Y4004005D01*
X5544921Y4016806D01*
X5537149Y4028744D01*
X5527954Y4039565D01*
X5517438Y4049115D01*
X5505805Y4057243D01*
X5493207Y4063796D01*
X5479846Y4068724D01*
X5465978Y4071874D01*
X5451856Y4073245D01*
X5437632Y4072788D01*
X5423611Y4070502D01*
X5409996Y4066438D01*
X5396992Y4060698D01*
X5384850Y4053332D01*
X5373725Y4044492D01*
X5363870Y4034282D01*
X5355386Y4022902D01*
X5348376Y4010507D01*
X5343042Y3997350D01*
X5339435Y3983583D01*
X5337657Y3969512D01*
X5337657Y3955287D01*
X5339435Y3941216D01*
X5343042Y3927449D01*
X5348376Y3914292D01*
X5355386Y3901897D01*
X5363870Y3890518D01*
X5365445Y3888892D01*
X5367578Y3885590D01*
X5368290Y3881729D01*
X5367477Y3877868D01*
X5365292Y3874617D01*
X5361990Y3872433D01*
X5358130Y3871671D01*
G37*

%LPC*%
G36*
X6024575Y3960469D02*
G01*
X6037173Y3961790D01*
X6049467Y3964889D01*
X6061252Y3969613D01*
X6072225Y3975963D01*
X6082233Y3983736D01*
X6091021Y3992879D01*
X6098489Y4003141D01*
X6104432Y4014317D01*
X6108750Y4026255D01*
X6111443Y4039006D01*
X6112306Y4051300D01*
X6111392Y4063949D01*
X6108750Y4076344D01*
X6104432Y4088282D01*
X6098489Y4099458D01*
X6091021Y4109720D01*
X6082233Y4118864D01*
X6072225Y4126636D01*
X6061252Y4132986D01*
X6049467Y4137710D01*
X6037173Y4140809D01*
X6024575Y4142130D01*
X6011875Y4141673D01*
X5999429Y4139488D01*
X5987338Y4135577D01*
X5975959Y4129989D01*
X5965444Y4122928D01*
X5956046Y4114444D01*
X5947867Y4104741D01*
X5941161Y4093972D01*
X5935980Y4082389D01*
X5932525Y4070197D01*
X5930747Y4057650D01*
X5930747Y4044950D01*
X5932525Y4032402D01*
X5935980Y4020210D01*
X5941161Y4008628D01*
X5947867Y3997858D01*
X5956046Y3988155D01*
X5965444Y3979672D01*
X5975959Y3972610D01*
X5987338Y3967022D01*
X5999429Y3963111D01*
X6011875Y3960926D01*
G37*
G36*
X6260236Y3969207D02*
G01*
X6261252Y3969613D01*
X6272225Y3975963D01*
X6282232Y3983736D01*
X6291021Y3992879D01*
X6298488Y4003141D01*
X6303416Y4012437D01*
X6260236Y4012437D01*
G37*
G36*
X6182563Y3969359D02*
G01*
X6182563Y4012437D01*
X6139434Y4012437D01*
X6141161Y4008628D01*
X6147866Y3997858D01*
X6156045Y3988155D01*
X6165443Y3979672D01*
X6175959Y3972610D01*
G37*
G36*
X6139434Y4090162D02*
G01*
X6182563Y4090162D01*
X6182563Y4133240D01*
X6175959Y4129989D01*
X6165443Y4122928D01*
X6156045Y4114444D01*
X6147866Y4104741D01*
X6141161Y4093972D01*
G37*
G36*
X6260236Y4090162D02*
G01*
X6303416Y4090162D01*
X6298488Y4099458D01*
X6291021Y4109720D01*
X6282232Y4118864D01*
X6272225Y4126636D01*
X6261252Y4132986D01*
X6260236Y4133392D01*
G37*

%LPD*%
D10*
X1570509Y4368800D02*
G01*
X1816102Y4123207D01*
X1816102Y3962400D01*
X9804402Y4469892D02*
G01*
X8724394Y5549900D01*
X5846295Y5549900D01*
X4487395Y5549900D02*
G01*
X4487395Y5543600D01*
X4958158Y5072837D01*
X8947457Y5072837D01*
X9550402Y4469892D01*
X1181102Y4470400D02*
G01*
X1612216Y4901514D01*
X3429662Y4901514D01*
X4667455Y6139306D01*
X9164703Y6139306D01*
X9309102Y5994907D01*
X7378702Y7734300D02*
G01*
X7018835Y7734300D01*
X6972327Y7687792D01*
X6972327Y7687792D02*
G01*
X7305321Y7354798D01*
X7418885Y7354798D01*
X7493535Y7280147D01*
X7493535Y7163562D01*
X7427165Y7097191D01*
X7088786Y7097191D01*
X6616702Y6625107D01*
X2620495Y4368800D02*
G01*
X2904314Y4084980D01*
X2904314Y4084954D01*
X3994177Y4084954D01*
X4052547Y4026585D01*
X4052547Y3902659D01*
X4126943Y3828262D01*
X6662295Y3828262D01*
X7103976Y4269943D01*
X9858453Y4269943D01*
X10058402Y4469892D01*
X4796309Y5549900D02*
G01*
X5025925Y5549900D01*
X5366336Y5890310D01*
X5366336Y5930900D01*
X5486402Y5930900D02*
G01*
X5366336Y5930900D01*
D11*
X5232402Y7598359D02*
G01*
X4093161Y7598359D01*
X3949702Y7454900D01*
X5232402Y7598359D02*
G01*
X5232402Y7429500D01*
X2070102Y3962400D02*
G01*
X2070102Y4007586D01*
X2863115Y4800600D01*
X3774696Y4800600D01*
X5232402Y7598359D02*
G01*
X5232402Y8204200D01*
X4203702Y8216900D02*
G01*
X4965702Y8216900D01*
X4978402Y8204200D01*
X2324102Y3962400D02*
G01*
X3670302Y3962400D01*
X4965702Y6692900D02*
G01*
X4216402Y6692900D01*
X4203702Y6680200D01*
X2730197Y6990105D02*
G01*
X2880311Y6990105D01*
X4124708Y4800600D02*
G01*
X5031996Y4800600D01*
X5044696Y4787900D01*
X7378702Y7226300D02*
G01*
X7065520Y7226300D01*
X6616702Y7675118D01*
X4978402Y7429500D02*
G01*
X5120642Y7287260D01*
X6228844Y7287260D01*
X6616702Y7675118D01*
X4978402Y7429500D02*
G01*
X4953002Y7454900D01*
X4203702Y7454900D01*
X2880311Y6990105D02*
G01*
X2996618Y6873798D01*
X4010103Y6873798D01*
X4203702Y6680200D01*
X1727837Y6990105D02*
G01*
X1727837Y7932851D01*
X1562102Y8098586D01*
X2730197Y6990105D02*
G01*
X1727837Y6990105D01*
X1727837Y6990105D02*
G01*
X1130200Y6990105D01*
D10*
X4783609Y7073900D02*
G01*
X5315460Y7073900D01*
X8403008Y5363286D02*
G01*
X8363714Y5402579D01*
X5973904Y5402579D01*
X5973904Y5402605D01*
X4890797Y5229809D02*
G01*
X4928897Y5191709D01*
X8759903Y5191709D01*
X8769479Y5201285D01*
X4816299Y5386882D02*
G01*
X5355236Y5386882D01*
X5644060Y5675706D01*
X8735900Y5675706D01*
X9055102Y5994907D01*
X9042402Y4469892D02*
G01*
X8588225Y4924069D01*
X5272636Y4924069D01*
X5264812Y4916246D01*
D11*
X6797677Y6373139D02*
G01*
X6364582Y6373139D01*
X5543755Y7193965D01*
X3397836Y7193965D01*
X2451102Y8140700D01*
D10*
X8944637Y4979644D02*
G01*
X5235882Y4979644D01*
X5196791Y4940554D01*
X5196791Y4763998D01*
X4920566Y4487773D01*
X4703676Y4487773D01*
X4178302Y3962400D01*
X8801102Y5994907D02*
G01*
X8575550Y5769355D01*
X5516704Y5769355D01*
X5200093Y5452745D01*
X4990950Y5452745D01*
X7652285Y4711979D02*
G01*
X5689881Y4711979D01*
X4940302Y3962400D01*
X8293102Y5994907D02*
G01*
X8130923Y5832729D01*
X6976645Y5832729D01*
X6524906Y4645888D02*
G01*
X5877791Y4645888D01*
X5194302Y3962400D01*
X7485077Y4860696D02*
G01*
X5660163Y4860696D01*
D12*
X7000496Y4264812D02*
G01*
X6467325Y4264812D01*
X6303749Y4428388D01*
X7378702Y7480300D02*
G01*
X7560591Y7298410D01*
X7560591Y6984771D01*
X7406591Y6830771D01*
X7323330Y6830771D01*
X7143650Y6651091D01*
X7143650Y6605904D01*
X6818886Y6281140D01*
X6211902Y6281140D01*
X6750077Y6614337D02*
G01*
X6948883Y6614337D01*
X6972327Y6637781D01*
X7010402Y4469892D02*
G01*
X6543601Y4469892D01*
X6443779Y4569713D01*
D10*
X8788402Y4469892D02*
G01*
X8471105Y4787188D01*
X6384368Y4787188D01*
X4508680Y6070168D02*
G01*
X4610051Y6171539D01*
X4610051Y6414973D01*
X8285838Y5255082D02*
G01*
X6763260Y5255082D01*
X6679262Y5339079D01*
X4500095Y7835900D02*
G01*
X4621100Y7714894D01*
X5148607Y7714894D01*
D13*
G01*
X6616700Y6625094D03*
G01*
X6616700Y7675105D03*
D14*
G01*
X6642100Y8115300D03*
D15*
G01*
X6896100Y8115300D03*
D16*
G01*
X6021400Y4051300D03*
G01*
X6221399Y4051300D03*
D13*
G01*
X5044693Y4787900D03*
G01*
X5394706Y4787900D03*
G01*
X4124706Y4800600D03*
G01*
X3774693Y4800600D03*
D17*
G01*
X1320800Y5334000D03*
D19*
G01*
X2844800Y5334000D03*
D20*
G01*
X1562100Y7598587D03*
G01*
X1562100Y8098586D03*
D21*
G01*
X1816100Y3962400D03*
D22*
G01*
X2070100Y3962400D03*
G01*
X2324100Y3962400D03*
D21*
G01*
X5486400Y5930900D03*
D22*
G01*
X5232400Y5930900D03*
G01*
X4978400Y5930900D03*
D21*
G01*
X3695700Y5930900D03*
D22*
G01*
X3949700Y5930900D03*
G01*
X4203700Y5930900D03*
D21*
G01*
X5473700Y6692900D03*
D22*
G01*
X5219700Y6692900D03*
G01*
X4965700Y6692900D03*
D21*
G01*
X3695700Y6680200D03*
D22*
G01*
X3949700Y6680200D03*
G01*
X4203700Y6680200D03*
D21*
G01*
X5486400Y7429500D03*
D22*
G01*
X5232400Y7429500D03*
G01*
X4978400Y7429500D03*
D21*
G01*
X3695700Y7454900D03*
D22*
G01*
X3949700Y7454900D03*
G01*
X4203700Y7454900D03*
D21*
G01*
X5486400Y8204200D03*
D22*
G01*
X5232400Y8204200D03*
G01*
X4978400Y8204200D03*
D21*
G01*
X3695700Y8216900D03*
D22*
G01*
X3949700Y8216900D03*
G01*
X4203700Y8216900D03*
D23*
G01*
X3450107Y7835900D03*
G01*
X4500092Y7835900D03*
G01*
X4770907Y7823200D03*
G01*
X5820892Y7823200D03*
G01*
X3437407Y7073900D03*
G01*
X4487392Y7073900D03*
G01*
X4783607Y7073900D03*
G01*
X5833592Y7073900D03*
G01*
X3450107Y6311900D03*
G01*
X4500092Y6311900D03*
G01*
X4783607Y6299200D03*
G01*
X5833592Y6299200D03*
G01*
X3437407Y5549900D03*
G01*
X4487392Y5549900D03*
G01*
X4796307Y5549900D03*
G01*
X5846292Y5549900D03*
G01*
X1570507Y4368800D03*
G01*
X2620492Y4368800D03*
D13*
G01*
X6972325Y6637781D03*
G01*
X6972325Y7687792D03*
D14*
G01*
X2705100Y8140700D03*
D15*
G01*
X2451100Y8140700D03*
D24*
G01*
X2730195Y5990107D03*
G01*
X1130198Y5990107D03*
G01*
X1130198Y6990105D03*
G01*
X2730195Y6990105D03*
D25*
G01*
X7378700Y7734300D03*
D26*
G01*
X7378700Y7988300D03*
D25*
G01*
X7378700Y7480300D03*
G01*
X7378700Y7226300D03*
G01*
X7378700Y6972300D03*
G01*
X7378700Y6718300D03*
D21*
G01*
X1181100Y3962400D03*
D22*
G01*
X1181100Y4216400D03*
G01*
X1181100Y4470400D03*
G01*
X1181100Y4724400D03*
D21*
G01*
X9779000Y3975100D03*
D22*
G01*
X10033000Y3975100D03*
G01*
X10287000Y3975100D03*
G01*
X10541000Y3975100D03*
G01*
X5448300Y3962400D03*
G01*
X5194300Y3962400D03*
G01*
X4940300Y3962400D03*
G01*
X4686300Y3962400D03*
G01*
X4432300Y3962400D03*
G01*
X4178300Y3962400D03*
G01*
X3924300Y3962400D03*
D27*
G01*
X3670300Y3962400D03*
D28*
G01*
X8788400Y4469892D03*
G01*
X9042400Y4469892D03*
G01*
X9296400Y4469892D03*
G01*
X9550400Y4469892D03*
G01*
X9804400Y4469892D03*
G01*
X10058400Y4469892D03*
G01*
X10312400Y4469892D03*
G01*
X10566400Y4469892D03*
G01*
X8534400Y4469892D03*
G01*
X8280400Y4469892D03*
G01*
X8026400Y4469892D03*
G01*
X7772400Y4469892D03*
G01*
X7518400Y4469892D03*
G01*
X7264400Y4469892D03*
D29*
G01*
X7010400Y4469892D03*
D28*
G01*
X7023100Y5994907D03*
G01*
X7277100Y5994907D03*
G01*
X7531100Y5994907D03*
G01*
X7785100Y5994907D03*
G01*
X8039100Y5994907D03*
G01*
X8293100Y5994907D03*
G01*
X8547100Y5994907D03*
G01*
X10579100Y5994907D03*
G01*
X10325100Y5994907D03*
G01*
X10071100Y5994907D03*
G01*
X9817100Y5994907D03*
G01*
X9563100Y5994907D03*
G01*
X9309100Y5994907D03*
G01*
X9055100Y5994907D03*
G01*
X8801100Y5994907D03*
D30*
G01*
X5148607Y7714894D03*
G01*
X6679262Y5339079D03*
G01*
X8285838Y5255082D03*
G01*
X4610051Y6414973D03*
G01*
X4508680Y6070168D03*
G01*
X6384368Y4787188D03*
D31*
G01*
X6750077Y6614337D03*
G01*
X6443779Y4569713D03*
G01*
X6211902Y6281140D03*
G01*
X6303749Y4428388D03*
G01*
X7000496Y4264812D03*
D30*
G01*
X5660163Y4860696D03*
G01*
X7485077Y4860696D03*
G01*
X6524906Y4645888D03*
G01*
X6976645Y5832729D03*
G01*
X7652285Y4711979D03*
G01*
X4990950Y5452745D03*
G01*
X8944637Y4979644D03*
D32*
G01*
X6797677Y6373139D03*
D30*
G01*
X5264812Y4916246D03*
G01*
X4816299Y5386882D03*
G01*
X4890797Y5229809D03*
G01*
X8769479Y5201285D03*
G01*
X5973904Y5402605D03*
G01*
X8403008Y5363286D03*
G01*
X5315460Y7073900D03*
M02*
