G04 Layer: TopSolderMaskLayer*
G04 EasyEDA v6.5.51, 2025-09-17 10:05:17*
G04 8dd670bb74ed44c38c9ca3603acddd9d,c9b9c57424e64463a8e00cf53a76285a,10*
G04 Gerber Generator version 0.2*
G04 Scale: 100 percent, Rotated: No, Reflected: No *
G04 Dimensions in millimeters *
G04 leading zeros omitted , absolute positions ,4 integer and 5 decimal *
%FSLAX45Y45*%
%MOMM*%

%AMMACRO1*4,1,8,-0.9211,-0.9508,-0.9508,-0.921,-0.9508,0.9211,-0.9211,0.9508,0.921,0.9508,0.9508,0.9211,0.9508,-0.921,0.921,-0.9508,-0.9211,-0.9508,0*%
%AMMACRO2*4,1,8,-1.5211,-1.5508,-1.5508,-1.521,-1.5508,1.5211,-1.5211,1.5508,1.521,1.5508,1.5508,1.5211,1.5508,-1.521,1.521,-1.5508,-1.5211,-1.5508,0*%
%AMMACRO3*4,1,8,-0.8711,-0.9008,-0.9008,-0.871,-0.9008,0.8711,-0.8711,0.9008,0.871,0.9008,0.9008,0.8711,0.9008,-0.871,0.871,-0.9008,-0.8711,-0.9008,0*%
%AMMACRO4*4,1,8,-1.0428,-1.1024,-1.1024,-1.0428,-1.1024,1.0428,-1.0428,1.1024,1.0428,1.1024,1.1024,1.0428,1.1024,-1.0428,1.0428,-1.1024,-1.0428,-1.1024,0*%
%AMMACRO5*4,1,8,-0.7751,-0.8048,-0.8048,-0.775,-0.8048,0.7751,-0.7751,0.8048,0.775,0.8048,0.8048,0.7751,0.8048,-0.775,0.775,-0.8048,-0.7751,-0.8048,0*%
%AMMACRO6*4,1,8,-0.8085,-0.9008,-0.8382,-0.871,-0.8382,0.8711,-0.8085,0.9008,0.8084,0.9008,0.8382,0.8711,0.8382,-0.871,0.8084,-0.9008,-0.8085,-0.9008,0*%
%AMMACRO7*4,1,8,-0.7662,-1.01,-0.772,-1.0041,-0.772,1.0042,-0.7662,1.01,0.7661,1.01,0.772,1.0042,0.772,-1.0041,0.7661,-1.01,-0.7662,-1.01,0*%
%ADD10C,1.7016*%
%ADD11C,1.9016*%
%ADD12MACRO1*%
%ADD13C,1.4016*%
%ADD14MACRO2*%
%ADD15C,3.1016*%
%ADD16C,2.4016*%
%ADD17MACRO3*%
%ADD18C,1.8016*%
%ADD19C,0.0103*%
%ADD20C,1.5016*%
%ADD21MACRO4*%
%ADD22C,1.6096*%
%ADD23MACRO5*%
%ADD24MACRO6*%
%ADD25C,2.0200*%
%ADD26MACRO7*%

%LPD*%
D10*
G01*
X6616700Y6625094D03*
G01*
X6616700Y7675105D03*
D11*
G01*
X6642100Y8115300D03*
D12*
G01*
X6896100Y8115300D03*
D13*
G01*
X6021400Y4051300D03*
G01*
X6221399Y4051300D03*
D10*
G01*
X5044693Y4787900D03*
G01*
X5394706Y4787900D03*
G01*
X4124706Y4800600D03*
G01*
X3774693Y4800600D03*
D14*
G01*
X1320800Y5334000D03*
D15*
G01*
X2844800Y5334000D03*
D16*
G01*
X1562100Y7598587D03*
G01*
X1562100Y8098586D03*
D17*
G01*
X1816100Y3962400D03*
D18*
G01*
X2070100Y3962400D03*
G01*
X2324100Y3962400D03*
D17*
G01*
X5486400Y5930900D03*
D18*
G01*
X5232400Y5930900D03*
G01*
X4978400Y5930900D03*
D17*
G01*
X3695700Y5930900D03*
D18*
G01*
X3949700Y5930900D03*
G01*
X4203700Y5930900D03*
D17*
G01*
X5473700Y6692900D03*
D18*
G01*
X5219700Y6692900D03*
G01*
X4965700Y6692900D03*
D17*
G01*
X3695700Y6680200D03*
D18*
G01*
X3949700Y6680200D03*
G01*
X4203700Y6680200D03*
D17*
G01*
X5486400Y7429500D03*
D18*
G01*
X5232400Y7429500D03*
G01*
X4978400Y7429500D03*
D17*
G01*
X3695700Y7454900D03*
D18*
G01*
X3949700Y7454900D03*
G01*
X4203700Y7454900D03*
D17*
G01*
X5486400Y8204200D03*
D18*
G01*
X5232400Y8204200D03*
G01*
X4978400Y8204200D03*
D17*
G01*
X3695700Y8216900D03*
D18*
G01*
X3949700Y8216900D03*
G01*
X4203700Y8216900D03*
D20*
G01*
X3450107Y7835900D03*
G01*
X4500092Y7835900D03*
G01*
X4770907Y7823200D03*
G01*
X5820892Y7823200D03*
G01*
X3437407Y7073900D03*
G01*
X4487392Y7073900D03*
G01*
X4783607Y7073900D03*
G01*
X5833592Y7073900D03*
G01*
X3450107Y6311900D03*
G01*
X4500092Y6311900D03*
G01*
X4783607Y6299200D03*
G01*
X5833592Y6299200D03*
G01*
X3437407Y5549900D03*
G01*
X4487392Y5549900D03*
G01*
X4796307Y5549900D03*
G01*
X5846292Y5549900D03*
G01*
X1570507Y4368800D03*
G01*
X2620492Y4368800D03*
D10*
G01*
X6972325Y6637781D03*
G01*
X6972325Y7687792D03*
D11*
G01*
X2705100Y8140700D03*
D12*
G01*
X2451100Y8140700D03*
D21*
G01*
X2730195Y5990107D03*
G01*
X1130198Y5990107D03*
G01*
X1130198Y6990105D03*
G01*
X2730195Y6990105D03*
D22*
G01*
X7378700Y7734300D03*
D23*
G01*
X7378700Y7988300D03*
D22*
G01*
X7378700Y7480300D03*
G01*
X7378700Y7226300D03*
G01*
X7378700Y6972300D03*
G01*
X7378700Y6718300D03*
D17*
G01*
X1181100Y3962400D03*
D18*
G01*
X1181100Y4216400D03*
G01*
X1181100Y4470400D03*
G01*
X1181100Y4724400D03*
D17*
G01*
X9779000Y3975100D03*
D18*
G01*
X10033000Y3975100D03*
G01*
X10287000Y3975100D03*
G01*
X10541000Y3975100D03*
G01*
X5448300Y3962400D03*
G01*
X5194300Y3962400D03*
G01*
X4940300Y3962400D03*
G01*
X4686300Y3962400D03*
G01*
X4432300Y3962400D03*
G01*
X4178300Y3962400D03*
G01*
X3924300Y3962400D03*
D24*
G01*
X3670300Y3962400D03*
D25*
G01*
X8788400Y4469892D03*
G01*
X9042400Y4469892D03*
G01*
X9296400Y4469892D03*
G01*
X9550400Y4469892D03*
G01*
X9804400Y4469892D03*
G01*
X10058400Y4469892D03*
G01*
X10312400Y4469892D03*
G01*
X10566400Y4469892D03*
G01*
X8534400Y4469892D03*
G01*
X8280400Y4469892D03*
G01*
X8026400Y4469892D03*
G01*
X7772400Y4469892D03*
G01*
X7518400Y4469892D03*
G01*
X7264400Y4469892D03*
D26*
G01*
X7010400Y4469892D03*
D25*
G01*
X7023100Y5994907D03*
G01*
X7277100Y5994907D03*
G01*
X7531100Y5994907D03*
G01*
X7785100Y5994907D03*
G01*
X8039100Y5994907D03*
G01*
X8293100Y5994907D03*
G01*
X8547100Y5994907D03*
G01*
X10579100Y5994907D03*
G01*
X10325100Y5994907D03*
G01*
X10071100Y5994907D03*
G01*
X9817100Y5994907D03*
G01*
X9563100Y5994907D03*
G01*
X9309100Y5994907D03*
G01*
X9055100Y5994907D03*
G01*
X8801100Y5994907D03*
M02*
