G04 Layer: BottomLayer*
G04 EasyEDA v6.5.51, 2025-09-17 10:05:17*
G04 8dd670bb74ed44c38c9ca3603acddd9d,c9b9c57424e64463a8e00cf53a76285a,10*
G04 Gerber Generator version 0.2*
G04 Scale: 100 percent, Rotated: No, Reflected: No *
G04 Dimensions in millimeters *
G04 leading zeros omitted , absolute positions ,4 integer and 5 decimal *
%FSLAX45Y45*%
%MOMM*%

%AMMACRO1*21,1,$1,$2,0,0,$3*%
%ADD10C,0.3500*%
%ADD11C,0.4000*%
%ADD12C,0.6000*%
%ADD13C,1.6000*%
%ADD14C,1.8000*%
%ADD15R,1.8000X1.8000*%
%ADD16C,1.3000*%
%ADD17R,3.0000X3.0000*%
%ADD18R,0.0186X3.0000*%
%ADD19C,3.0000*%
%ADD20C,2.3000*%
%ADD21R,1.7000X1.7000*%
%ADD22C,1.7000*%
%ADD23C,1.4000*%
%ADD24MACRO1,2.0015X2.0015X90.0000*%
%ADD25C,1.5080*%
%ADD26R,1.5080X1.5080*%
%ADD27R,1.5748X1.7000*%
%ADD28C,2.0000*%
%ADD29R,1.5240X2.0000*%
%ADD30C,0.6100*%
%ADD31C,0.7000*%
%ADD32C,0.8000*%

%LPD*%
G36*
X900836Y3581908D02*
G01*
X882446Y3582822D01*
X865581Y3585413D01*
X849020Y3589578D01*
X832916Y3595370D01*
X817524Y3602736D01*
X802894Y3611575D01*
X789228Y3621786D01*
X776579Y3633266D01*
X765149Y3645966D01*
X754989Y3659733D01*
X746252Y3674414D01*
X739038Y3689858D01*
X733298Y3705961D01*
X729183Y3722522D01*
X726744Y3739438D01*
X725932Y3756863D01*
X725932Y8299145D01*
X726846Y8317534D01*
X729386Y8334400D01*
X733602Y8350961D01*
X739394Y8367064D01*
X746760Y8382457D01*
X755548Y8397087D01*
X765759Y8410752D01*
X777290Y8423402D01*
X789990Y8434832D01*
X803706Y8444992D01*
X818388Y8453729D01*
X833882Y8460943D01*
X849934Y8466683D01*
X866546Y8470798D01*
X883412Y8473236D01*
X900836Y8474049D01*
X10924336Y8474049D01*
X10942726Y8473135D01*
X10959642Y8470595D01*
X10976152Y8466378D01*
X10992256Y8460587D01*
X11007648Y8453221D01*
X11022279Y8444433D01*
X11035995Y8434222D01*
X11048593Y8422690D01*
X11060023Y8409990D01*
X11070183Y8396274D01*
X11078921Y8381593D01*
X11086134Y8366099D01*
X11091875Y8350046D01*
X11095990Y8333435D01*
X11098428Y8316569D01*
X11099292Y8299145D01*
X11099292Y3756863D01*
X11098326Y3738422D01*
X11095786Y3721557D01*
X11091570Y3704996D01*
X11085779Y3688943D01*
X11078413Y3673500D01*
X11069624Y3658870D01*
X11059414Y3645204D01*
X11047882Y3632555D01*
X11035182Y3621125D01*
X11021466Y3611016D01*
X11006785Y3602278D01*
X10991342Y3595014D01*
X10975238Y3589324D01*
X10958626Y3585210D01*
X10941761Y3582720D01*
X10924336Y3581908D01*
G37*

%LPC*%
G36*
X3052826Y3728415D02*
G01*
X3922674Y3728465D01*
X3930954Y3729634D01*
X3938524Y3732174D01*
X3945534Y3736035D01*
X3952036Y3741470D01*
X4084320Y3873804D01*
X4088434Y3879240D01*
X4091482Y3881932D01*
X4095292Y3883202D01*
X4099356Y3882898D01*
X4102912Y3881069D01*
X4114901Y3871468D01*
X4126992Y3864101D01*
X4139996Y3858310D01*
X4153611Y3854297D01*
X4167632Y3852011D01*
X4181856Y3851554D01*
X4195978Y3852926D01*
X4209846Y3856075D01*
X4223207Y3861003D01*
X4235805Y3867556D01*
X4247438Y3875684D01*
X4257954Y3885234D01*
X4267149Y3896055D01*
X4274921Y3907993D01*
X4281068Y3920794D01*
X4285538Y3934256D01*
X4288282Y3948226D01*
X4289196Y3962400D01*
X4288282Y3976573D01*
X4285538Y3990543D01*
X4281068Y4004005D01*
X4274921Y4016806D01*
X4267149Y4028744D01*
X4257954Y4039565D01*
X4247438Y4049115D01*
X4235805Y4057243D01*
X4223207Y4063796D01*
X4209846Y4068724D01*
X4195876Y4071874D01*
X4192219Y4072940D01*
X4189222Y4075277D01*
X4187291Y4078579D01*
X4186682Y4082338D01*
X4187494Y4086047D01*
X4189679Y4089196D01*
X4812639Y4712157D01*
X4815941Y4714341D01*
X4819853Y4715154D01*
X4823714Y4714341D01*
X4827016Y4712157D01*
X4829200Y4708855D01*
X4830013Y4704994D01*
X4830013Y4425696D01*
X4829200Y4421784D01*
X4827016Y4418482D01*
X4478223Y4069689D01*
X4475022Y4067556D01*
X4471314Y4066743D01*
X4467504Y4067352D01*
X4463846Y4068724D01*
X4449978Y4071874D01*
X4435856Y4073245D01*
X4421632Y4072788D01*
X4407611Y4070502D01*
X4393996Y4066438D01*
X4380992Y4060698D01*
X4368850Y4053332D01*
X4357725Y4044492D01*
X4347870Y4034282D01*
X4339386Y4022902D01*
X4332376Y4010507D01*
X4327042Y3997350D01*
X4323435Y3983583D01*
X4321657Y3969512D01*
X4321657Y3955287D01*
X4323435Y3941216D01*
X4327042Y3927449D01*
X4332376Y3914292D01*
X4339386Y3901897D01*
X4347870Y3890518D01*
X4357725Y3880307D01*
X4368850Y3871468D01*
X4380992Y3864101D01*
X4393996Y3858310D01*
X4407611Y3854297D01*
X4421632Y3852011D01*
X4435856Y3851554D01*
X4449978Y3852926D01*
X4463846Y3856075D01*
X4477207Y3861003D01*
X4489805Y3867556D01*
X4501438Y3875684D01*
X4511954Y3885234D01*
X4521149Y3896055D01*
X4528921Y3907993D01*
X4535068Y3920794D01*
X4539538Y3934256D01*
X4542282Y3948226D01*
X4543196Y3962400D01*
X4542282Y3976573D01*
X4539538Y3990543D01*
X4537100Y3997909D01*
X4536592Y4001566D01*
X4537456Y4005224D01*
X4539589Y4008272D01*
X4877358Y4346092D01*
X4880864Y4348378D01*
X4885029Y4349038D01*
X4889093Y4347972D01*
X4892344Y4345381D01*
X4893411Y4344111D01*
X5020919Y4216603D01*
X5023104Y4213301D01*
X5023916Y4209440D01*
X5023916Y4058462D01*
X5022951Y4054195D01*
X5020259Y4050690D01*
X5016398Y4048658D01*
X5011978Y4048455D01*
X5007914Y4050131D01*
X4997805Y4057243D01*
X4985207Y4063796D01*
X4971846Y4068724D01*
X4957978Y4071874D01*
X4943856Y4073245D01*
X4929632Y4072788D01*
X4915611Y4070502D01*
X4901996Y4066438D01*
X4888992Y4060698D01*
X4876850Y4053332D01*
X4865725Y4044492D01*
X4855870Y4034282D01*
X4847386Y4022902D01*
X4840376Y4010507D01*
X4835042Y3997350D01*
X4831435Y3983583D01*
X4829657Y3969512D01*
X4829657Y3955287D01*
X4831435Y3941216D01*
X4835042Y3927449D01*
X4840376Y3914292D01*
X4847793Y3901338D01*
X4849622Y3897274D01*
X4849520Y3892804D01*
X4847488Y3888841D01*
X4843983Y3886098D01*
X4839665Y3885082D01*
X4829200Y3885082D01*
X4825288Y3885895D01*
X4821986Y3888079D01*
X4793589Y3916527D01*
X4791456Y3919575D01*
X4790592Y3923233D01*
X4791100Y3926890D01*
X4793538Y3934256D01*
X4796282Y3948226D01*
X4797196Y3962400D01*
X4796282Y3976573D01*
X4793538Y3990543D01*
X4789068Y4004005D01*
X4782921Y4016806D01*
X4775149Y4028744D01*
X4765954Y4039565D01*
X4755438Y4049115D01*
X4743805Y4057243D01*
X4731207Y4063796D01*
X4717846Y4068724D01*
X4703978Y4071874D01*
X4689856Y4073245D01*
X4675632Y4072788D01*
X4661611Y4070502D01*
X4647996Y4066438D01*
X4634992Y4060698D01*
X4622850Y4053332D01*
X4611725Y4044492D01*
X4601870Y4034282D01*
X4593386Y4022902D01*
X4586376Y4010507D01*
X4581042Y3997350D01*
X4577435Y3983583D01*
X4575657Y3969512D01*
X4575657Y3955287D01*
X4577435Y3941216D01*
X4581042Y3927449D01*
X4586376Y3914292D01*
X4593386Y3901897D01*
X4601870Y3890518D01*
X4611725Y3880307D01*
X4622850Y3871468D01*
X4634992Y3864101D01*
X4647996Y3858310D01*
X4661611Y3854297D01*
X4675632Y3852011D01*
X4689856Y3851554D01*
X4703978Y3852926D01*
X4717846Y3856075D01*
X4721504Y3857447D01*
X4725314Y3858056D01*
X4729022Y3857244D01*
X4732223Y3855110D01*
X4777486Y3809847D01*
X4784191Y3804818D01*
X4791354Y3801262D01*
X4799025Y3799078D01*
X4807458Y3798265D01*
X5000193Y3798315D01*
X5008473Y3799484D01*
X5016042Y3802024D01*
X5023053Y3805936D01*
X5029555Y3811320D01*
X5097678Y3879443D01*
X5101082Y3883507D01*
X5104384Y3886098D01*
X5108498Y3887114D01*
X5112664Y3886403D01*
X5116169Y3884015D01*
X5119725Y3880307D01*
X5130850Y3871468D01*
X5142992Y3864101D01*
X5155996Y3858310D01*
X5169611Y3854297D01*
X5183632Y3852011D01*
X5197856Y3851554D01*
X5211978Y3852926D01*
X5225846Y3856075D01*
X5239207Y3861003D01*
X5251805Y3867556D01*
X5263438Y3875684D01*
X5273954Y3885234D01*
X5276850Y3888689D01*
X5280152Y3891229D01*
X5284216Y3892245D01*
X5288280Y3891534D01*
X5291785Y3889298D01*
X5378602Y3802532D01*
X5385257Y3797503D01*
X5392420Y3793896D01*
X5400141Y3791712D01*
X5408574Y3790950D01*
X7900517Y3791000D01*
X7908798Y3792169D01*
X7916367Y3794709D01*
X7923377Y3798570D01*
X7929880Y3804005D01*
X8476742Y4350867D01*
X8480145Y4353102D01*
X8484158Y4353814D01*
X8488121Y4352950D01*
X8489746Y4352188D01*
X8504275Y4347667D01*
X8519210Y4344924D01*
X8534400Y4344009D01*
X8549589Y4344924D01*
X8564524Y4347667D01*
X8579053Y4352188D01*
X8592921Y4358436D01*
X8605926Y4366310D01*
X8617864Y4375658D01*
X8628634Y4386427D01*
X8637981Y4398365D01*
X8645855Y4411421D01*
X8652154Y4425340D01*
X8654338Y4428490D01*
X8657590Y4430572D01*
X8661400Y4431284D01*
X8665210Y4430572D01*
X8668461Y4428490D01*
X8670645Y4425340D01*
X8676944Y4411421D01*
X8684818Y4398365D01*
X8694166Y4386427D01*
X8704935Y4375658D01*
X8716873Y4366310D01*
X8729878Y4358436D01*
X8743746Y4352188D01*
X8758275Y4347667D01*
X8773210Y4344924D01*
X8788400Y4344009D01*
X8803589Y4344924D01*
X8818524Y4347667D01*
X8833053Y4352188D01*
X8846921Y4358436D01*
X8859926Y4366310D01*
X8871864Y4375658D01*
X8882634Y4386427D01*
X8891981Y4398365D01*
X8899855Y4411421D01*
X8906154Y4425340D01*
X8908338Y4428490D01*
X8911590Y4430572D01*
X8915400Y4431284D01*
X8919210Y4430572D01*
X8922461Y4428490D01*
X8924645Y4425340D01*
X8930944Y4411421D01*
X8938818Y4398365D01*
X8948166Y4386427D01*
X8958935Y4375658D01*
X8970873Y4366310D01*
X8983878Y4358436D01*
X8997746Y4352188D01*
X9012275Y4347667D01*
X9027210Y4344924D01*
X9042400Y4344009D01*
X9057589Y4344924D01*
X9072524Y4347667D01*
X9087053Y4352188D01*
X9100921Y4358436D01*
X9113926Y4366310D01*
X9125864Y4375658D01*
X9136634Y4386427D01*
X9145981Y4398365D01*
X9153855Y4411421D01*
X9160154Y4425340D01*
X9162338Y4428490D01*
X9165590Y4430572D01*
X9169400Y4431284D01*
X9173210Y4430572D01*
X9176461Y4428490D01*
X9178645Y4425340D01*
X9184944Y4411421D01*
X9192818Y4398365D01*
X9202166Y4386427D01*
X9212935Y4375658D01*
X9224873Y4366310D01*
X9237878Y4358436D01*
X9251746Y4352188D01*
X9266275Y4347667D01*
X9281210Y4344924D01*
X9296400Y4344009D01*
X9311589Y4344924D01*
X9326524Y4347667D01*
X9341053Y4352188D01*
X9354921Y4358436D01*
X9367926Y4366310D01*
X9379864Y4375658D01*
X9390634Y4386427D01*
X9399981Y4398365D01*
X9407855Y4411421D01*
X9414154Y4425340D01*
X9416338Y4428490D01*
X9419590Y4430572D01*
X9423400Y4431284D01*
X9427210Y4430572D01*
X9430461Y4428490D01*
X9432645Y4425340D01*
X9438944Y4411421D01*
X9446818Y4398365D01*
X9456166Y4386427D01*
X9466935Y4375658D01*
X9478873Y4366310D01*
X9491878Y4358436D01*
X9505746Y4352188D01*
X9520275Y4347667D01*
X9535210Y4344924D01*
X9550400Y4344009D01*
X9565589Y4344924D01*
X9580524Y4347667D01*
X9595053Y4352188D01*
X9608921Y4358436D01*
X9621926Y4366310D01*
X9633864Y4375658D01*
X9644634Y4386427D01*
X9653981Y4398365D01*
X9661855Y4411421D01*
X9668154Y4425340D01*
X9670338Y4428490D01*
X9673590Y4430572D01*
X9677400Y4431284D01*
X9681210Y4430572D01*
X9684461Y4428490D01*
X9686645Y4425340D01*
X9692944Y4411421D01*
X9700818Y4398365D01*
X9710166Y4386427D01*
X9720935Y4375658D01*
X9732873Y4366310D01*
X9745878Y4358436D01*
X9759746Y4352188D01*
X9774275Y4347667D01*
X9789210Y4344924D01*
X9804400Y4344009D01*
X9819589Y4344924D01*
X9834524Y4347667D01*
X9849053Y4352188D01*
X9862921Y4358436D01*
X9875926Y4366310D01*
X9887864Y4375658D01*
X9898634Y4386427D01*
X9907981Y4398365D01*
X9915855Y4411421D01*
X9922154Y4425340D01*
X9924338Y4428490D01*
X9927590Y4430572D01*
X9931400Y4431284D01*
X9935210Y4430572D01*
X9938461Y4428490D01*
X9940645Y4425340D01*
X9946944Y4411421D01*
X9954818Y4398365D01*
X9964166Y4386427D01*
X9974935Y4375658D01*
X9986873Y4366310D01*
X9999878Y4358436D01*
X10013746Y4352188D01*
X10028275Y4347667D01*
X10043210Y4344924D01*
X10058400Y4344009D01*
X10073589Y4344924D01*
X10088524Y4347667D01*
X10103053Y4352188D01*
X10107523Y4354220D01*
X10111435Y4355084D01*
X10115397Y4354423D01*
X10118750Y4352239D01*
X10121036Y4348937D01*
X10121849Y4345025D01*
X10121087Y4341114D01*
X10118902Y4337761D01*
X9870084Y4088993D01*
X9866833Y4086758D01*
X9862921Y4085996D01*
X9694570Y4085996D01*
X9688271Y4085285D01*
X9682784Y4083405D01*
X9677908Y4080306D01*
X9673793Y4076192D01*
X9670694Y4071315D01*
X9668814Y4065828D01*
X9668103Y4059529D01*
X9668103Y3890670D01*
X9668814Y3884371D01*
X9670694Y3878884D01*
X9673793Y3874008D01*
X9677908Y3869893D01*
X9682784Y3866794D01*
X9688271Y3864914D01*
X9694570Y3864203D01*
X9863429Y3864203D01*
X9869728Y3864914D01*
X9875215Y3866794D01*
X9880092Y3869893D01*
X9884206Y3874008D01*
X9887305Y3878884D01*
X9889185Y3884371D01*
X9889896Y3890670D01*
X9889896Y3921607D01*
X9890658Y3925417D01*
X9892741Y3928668D01*
X9895941Y3930904D01*
X9899700Y3931767D01*
X9903155Y3931920D01*
X9907066Y3932428D01*
X9910978Y3933342D01*
X9914788Y3934612D01*
X9918090Y3936085D01*
X9922052Y3936949D01*
X9926015Y3936237D01*
X9929368Y3934002D01*
X9931603Y3930599D01*
X9933076Y3926992D01*
X9940086Y3914597D01*
X9948570Y3903218D01*
X9958425Y3893007D01*
X9969550Y3884168D01*
X9981692Y3876801D01*
X9994696Y3871010D01*
X10008311Y3866997D01*
X10022332Y3864711D01*
X10036556Y3864254D01*
X10050678Y3865626D01*
X10064546Y3868775D01*
X10077907Y3873703D01*
X10090505Y3880256D01*
X10102138Y3888384D01*
X10112654Y3897934D01*
X10121849Y3908755D01*
X10129621Y3920693D01*
X10135768Y3933494D01*
X10140238Y3946956D01*
X10142982Y3960926D01*
X10143896Y3975100D01*
X10143540Y3980738D01*
X10144150Y3985006D01*
X10146487Y3988562D01*
X10160609Y4002735D01*
X10164114Y4005021D01*
X10168229Y4005681D01*
X10172293Y4004665D01*
X10175595Y4002074D01*
X10177576Y3998417D01*
X10177881Y3994251D01*
X10176357Y3982212D01*
X10176357Y3967987D01*
X10178135Y3953916D01*
X10181742Y3940149D01*
X10187076Y3926992D01*
X10194086Y3914597D01*
X10202570Y3903218D01*
X10212425Y3893007D01*
X10223550Y3884168D01*
X10235692Y3876801D01*
X10248696Y3871010D01*
X10262311Y3866997D01*
X10276332Y3864711D01*
X10290556Y3864254D01*
X10304678Y3865626D01*
X10318546Y3868775D01*
X10322204Y3870147D01*
X10326014Y3870756D01*
X10329722Y3869944D01*
X10332923Y3867810D01*
X10377576Y3823208D01*
X10384231Y3818178D01*
X10391394Y3814572D01*
X10399115Y3812387D01*
X10407548Y3811625D01*
X10607598Y3811676D01*
X10615828Y3812844D01*
X10623448Y3815384D01*
X10630408Y3819245D01*
X10636961Y3824681D01*
X10791799Y3979570D01*
X10796828Y3986276D01*
X10800435Y3993438D01*
X10802620Y4001109D01*
X10803382Y4009542D01*
X10803331Y5815685D01*
X10802213Y5823966D01*
X10799622Y5831535D01*
X10795762Y5838545D01*
X10790326Y5845048D01*
X10698124Y5937250D01*
X10695889Y5940653D01*
X10695178Y5944666D01*
X10696041Y5948629D01*
X10696803Y5950254D01*
X10701324Y5964783D01*
X10704068Y5979718D01*
X10704982Y5994908D01*
X10704068Y6010097D01*
X10701324Y6025032D01*
X10696803Y6039561D01*
X10690555Y6053378D01*
X10682681Y6066434D01*
X10673334Y6078372D01*
X10662564Y6089142D01*
X10650626Y6098489D01*
X10637621Y6106363D01*
X10623753Y6112611D01*
X10609224Y6117132D01*
X10594289Y6119876D01*
X10579100Y6120790D01*
X10563910Y6119876D01*
X10548975Y6117132D01*
X10534446Y6112611D01*
X10520578Y6106363D01*
X10507573Y6098489D01*
X10495635Y6089142D01*
X10484866Y6078372D01*
X10475518Y6066434D01*
X10467644Y6053378D01*
X10461345Y6039459D01*
X10459161Y6036310D01*
X10455910Y6034227D01*
X10452100Y6033516D01*
X10448290Y6034227D01*
X10445038Y6036310D01*
X10442854Y6039459D01*
X10436555Y6053378D01*
X10428681Y6066434D01*
X10419334Y6078372D01*
X10408564Y6089142D01*
X10396626Y6098489D01*
X10383621Y6106363D01*
X10369753Y6112611D01*
X10355224Y6117132D01*
X10340289Y6119876D01*
X10325100Y6120790D01*
X10309910Y6119876D01*
X10294975Y6117132D01*
X10280446Y6112611D01*
X10266578Y6106363D01*
X10253573Y6098489D01*
X10241635Y6089142D01*
X10230866Y6078372D01*
X10221518Y6066434D01*
X10213644Y6053378D01*
X10207345Y6039459D01*
X10205161Y6036310D01*
X10201910Y6034227D01*
X10198100Y6033516D01*
X10194290Y6034227D01*
X10191038Y6036310D01*
X10188854Y6039459D01*
X10182555Y6053378D01*
X10174681Y6066434D01*
X10165334Y6078372D01*
X10154564Y6089142D01*
X10142626Y6098489D01*
X10129621Y6106363D01*
X10115753Y6112611D01*
X10101224Y6117132D01*
X10086289Y6119876D01*
X10071100Y6120790D01*
X10055910Y6119876D01*
X10040975Y6117132D01*
X10026446Y6112611D01*
X10012578Y6106363D01*
X9999573Y6098489D01*
X9987635Y6089142D01*
X9976866Y6078372D01*
X9967518Y6066434D01*
X9959644Y6053378D01*
X9953345Y6039459D01*
X9951161Y6036310D01*
X9947910Y6034227D01*
X9944100Y6033516D01*
X9940290Y6034227D01*
X9937038Y6036310D01*
X9934854Y6039459D01*
X9928555Y6053378D01*
X9920681Y6066434D01*
X9911334Y6078372D01*
X9900564Y6089142D01*
X9888626Y6098489D01*
X9875621Y6106363D01*
X9861753Y6112611D01*
X9847224Y6117132D01*
X9832289Y6119876D01*
X9817100Y6120790D01*
X9801910Y6119876D01*
X9786975Y6117132D01*
X9772446Y6112611D01*
X9758578Y6106363D01*
X9745573Y6098489D01*
X9733635Y6089142D01*
X9722866Y6078372D01*
X9713518Y6066434D01*
X9705644Y6053378D01*
X9699345Y6039459D01*
X9697161Y6036310D01*
X9693910Y6034227D01*
X9690100Y6033516D01*
X9686290Y6034227D01*
X9683038Y6036310D01*
X9680854Y6039459D01*
X9674555Y6053378D01*
X9666681Y6066434D01*
X9657334Y6078372D01*
X9646564Y6089142D01*
X9634626Y6098489D01*
X9621621Y6106363D01*
X9607753Y6112611D01*
X9593224Y6117132D01*
X9578289Y6119876D01*
X9563100Y6120790D01*
X9547910Y6119876D01*
X9532975Y6117132D01*
X9518446Y6112611D01*
X9504578Y6106363D01*
X9491573Y6098489D01*
X9479635Y6089142D01*
X9468866Y6078372D01*
X9459518Y6066434D01*
X9451644Y6053378D01*
X9445345Y6039459D01*
X9443161Y6036310D01*
X9439910Y6034227D01*
X9436100Y6033516D01*
X9432290Y6034227D01*
X9429038Y6036310D01*
X9426854Y6039459D01*
X9420555Y6053378D01*
X9412681Y6066434D01*
X9403334Y6078372D01*
X9392564Y6089142D01*
X9380626Y6098489D01*
X9367621Y6106363D01*
X9353753Y6112611D01*
X9339224Y6117132D01*
X9324289Y6119876D01*
X9309100Y6120790D01*
X9293910Y6119876D01*
X9278975Y6117132D01*
X9264446Y6112611D01*
X9250578Y6106363D01*
X9237573Y6098489D01*
X9225635Y6089142D01*
X9214866Y6078372D01*
X9205518Y6066434D01*
X9197644Y6053378D01*
X9191345Y6039459D01*
X9189161Y6036310D01*
X9185910Y6034227D01*
X9182100Y6033516D01*
X9178290Y6034227D01*
X9175038Y6036310D01*
X9172854Y6039459D01*
X9166555Y6053378D01*
X9158681Y6066434D01*
X9149334Y6078372D01*
X9138564Y6089142D01*
X9126626Y6098489D01*
X9113621Y6106363D01*
X9099753Y6112611D01*
X9085224Y6117132D01*
X9070289Y6119876D01*
X9055100Y6120790D01*
X9039910Y6119876D01*
X9024975Y6117132D01*
X9010446Y6112611D01*
X8996578Y6106363D01*
X8983573Y6098489D01*
X8971635Y6089142D01*
X8960866Y6078372D01*
X8951518Y6066434D01*
X8943644Y6053378D01*
X8937345Y6039459D01*
X8935161Y6036310D01*
X8931910Y6034227D01*
X8928100Y6033516D01*
X8924290Y6034227D01*
X8921038Y6036310D01*
X8918854Y6039459D01*
X8912555Y6053378D01*
X8904681Y6066434D01*
X8895334Y6078372D01*
X8884564Y6089142D01*
X8872626Y6098489D01*
X8859621Y6106363D01*
X8845753Y6112611D01*
X8831224Y6117132D01*
X8816289Y6119876D01*
X8801100Y6120790D01*
X8785910Y6119876D01*
X8770975Y6117132D01*
X8756446Y6112611D01*
X8742578Y6106363D01*
X8729573Y6098489D01*
X8717635Y6089142D01*
X8706866Y6078372D01*
X8697518Y6066434D01*
X8689644Y6053378D01*
X8683345Y6039459D01*
X8681161Y6036310D01*
X8677910Y6034227D01*
X8674100Y6033516D01*
X8670290Y6034227D01*
X8667038Y6036310D01*
X8664854Y6039459D01*
X8658555Y6053378D01*
X8650681Y6066434D01*
X8641334Y6078372D01*
X8630564Y6089142D01*
X8618626Y6098489D01*
X8605621Y6106363D01*
X8591753Y6112611D01*
X8577224Y6117132D01*
X8562289Y6119876D01*
X8547100Y6120790D01*
X8531910Y6119876D01*
X8516975Y6117132D01*
X8502446Y6112611D01*
X8488578Y6106363D01*
X8475573Y6098489D01*
X8463635Y6089142D01*
X8452866Y6078372D01*
X8443518Y6066434D01*
X8435644Y6053378D01*
X8429345Y6039459D01*
X8427161Y6036310D01*
X8423910Y6034227D01*
X8420100Y6033516D01*
X8416290Y6034227D01*
X8413038Y6036310D01*
X8410854Y6039459D01*
X8404555Y6053378D01*
X8396681Y6066434D01*
X8387334Y6078372D01*
X8376564Y6089142D01*
X8364626Y6098489D01*
X8351621Y6106363D01*
X8337753Y6112611D01*
X8323224Y6117132D01*
X8308289Y6119876D01*
X8293100Y6120790D01*
X8277910Y6119876D01*
X8262975Y6117132D01*
X8248446Y6112611D01*
X8234578Y6106363D01*
X8221573Y6098489D01*
X8209635Y6089142D01*
X8198866Y6078372D01*
X8189518Y6066434D01*
X8181644Y6053378D01*
X8175345Y6039459D01*
X8173161Y6036310D01*
X8169909Y6034227D01*
X8166100Y6033516D01*
X8162290Y6034227D01*
X8159038Y6036310D01*
X8156854Y6039459D01*
X8150555Y6053378D01*
X8142681Y6066434D01*
X8133334Y6078372D01*
X8122564Y6089142D01*
X8110626Y6098489D01*
X8097621Y6106363D01*
X8083753Y6112611D01*
X8069224Y6117132D01*
X8054289Y6119876D01*
X8039100Y6120790D01*
X8023910Y6119876D01*
X8008975Y6117132D01*
X7994446Y6112611D01*
X7980578Y6106363D01*
X7967573Y6098489D01*
X7955635Y6089142D01*
X7944866Y6078372D01*
X7935518Y6066434D01*
X7927644Y6053378D01*
X7921345Y6039459D01*
X7919161Y6036310D01*
X7915909Y6034227D01*
X7912100Y6033516D01*
X7908290Y6034227D01*
X7905038Y6036310D01*
X7902854Y6039459D01*
X7896555Y6053378D01*
X7888681Y6066434D01*
X7879334Y6078372D01*
X7868564Y6089142D01*
X7856626Y6098489D01*
X7843621Y6106363D01*
X7829753Y6112611D01*
X7815224Y6117132D01*
X7800289Y6119876D01*
X7785100Y6120790D01*
X7769910Y6119876D01*
X7754975Y6117132D01*
X7740142Y6112510D01*
X7736484Y6112052D01*
X7732928Y6112916D01*
X7729931Y6114999D01*
X6817918Y7027011D01*
X6815734Y7030313D01*
X6814972Y7034174D01*
X6814972Y7988249D01*
X6815632Y7992973D01*
X6817817Y7996326D01*
X6821170Y7998612D01*
X6825081Y7999374D01*
X6840016Y7999374D01*
X6843877Y7998612D01*
X6847179Y7996478D01*
X6849364Y7993227D01*
X6850176Y7989366D01*
X6850227Y7985912D01*
X6851446Y7977225D01*
X6854139Y7969199D01*
X6858253Y7961833D01*
X6863994Y7954924D01*
X7012990Y7805928D01*
X7015429Y7802118D01*
X7015937Y7797647D01*
X7014464Y7793380D01*
X7011263Y7790180D01*
X7007047Y7788656D01*
X7002576Y7789113D01*
X6999731Y7790078D01*
X6986117Y7792770D01*
X6972300Y7793685D01*
X6958482Y7792770D01*
X6944918Y7790078D01*
X6931812Y7785608D01*
X6919366Y7779512D01*
X6907834Y7771790D01*
X6897420Y7762646D01*
X6888327Y7752232D01*
X6880606Y7740751D01*
X6874509Y7728305D01*
X6870039Y7715199D01*
X6867347Y7701635D01*
X6866432Y7687818D01*
X6867347Y7673949D01*
X6870039Y7660386D01*
X6874509Y7647279D01*
X6880606Y7634833D01*
X6888327Y7623352D01*
X6897420Y7612938D01*
X6907834Y7603794D01*
X6919366Y7596073D01*
X6931812Y7589977D01*
X6944918Y7585506D01*
X6958482Y7582814D01*
X6972300Y7581900D01*
X6986117Y7582814D01*
X6999731Y7585506D01*
X7012838Y7589977D01*
X7025233Y7596073D01*
X7036765Y7603794D01*
X7047179Y7612938D01*
X7056323Y7623352D01*
X7063994Y7634833D01*
X7070140Y7647279D01*
X7074611Y7660386D01*
X7076490Y7669885D01*
X7078167Y7673746D01*
X7081266Y7676642D01*
X7085279Y7677962D01*
X7089546Y7677556D01*
X7093203Y7675473D01*
X7095693Y7672019D01*
X7096607Y7667904D01*
X7096658Y7206742D01*
X7097877Y7198004D01*
X7100570Y7189978D01*
X7104684Y7182561D01*
X7110374Y7175703D01*
X7278319Y7007809D01*
X7280300Y7004964D01*
X7281214Y7001662D01*
X7281011Y6998258D01*
X7278827Y6989165D01*
X7277455Y6975703D01*
X7277912Y6962140D01*
X7280198Y6948830D01*
X7284161Y6935876D01*
X7289901Y6923633D01*
X7297166Y6912203D01*
X7305903Y6901891D01*
X7315911Y6892798D01*
X7327087Y6885178D01*
X7339177Y6879031D01*
X7351928Y6874611D01*
X7365187Y6871919D01*
X7378700Y6871004D01*
X7392212Y6871919D01*
X7405471Y6874611D01*
X7418222Y6879031D01*
X7430312Y6885178D01*
X7441488Y6892798D01*
X7451496Y6901891D01*
X7460234Y6912203D01*
X7467498Y6923633D01*
X7473238Y6935876D01*
X7477201Y6948830D01*
X7479487Y6962140D01*
X7479944Y6975703D01*
X7478572Y6989165D01*
X7475423Y7002322D01*
X7470597Y7014921D01*
X7464094Y7026808D01*
X7456068Y7037679D01*
X7446619Y7047433D01*
X7436002Y7055815D01*
X7424369Y7062724D01*
X7411923Y7067956D01*
X7398867Y7071563D01*
X7385456Y7073341D01*
X7371943Y7073341D01*
X7358532Y7071563D01*
X7353096Y7070090D01*
X7349591Y7069734D01*
X7346137Y7070648D01*
X7343241Y7072680D01*
X7191400Y7224522D01*
X7189165Y7227824D01*
X7188403Y7231735D01*
X7188352Y7743088D01*
X7187133Y7751825D01*
X7184440Y7759852D01*
X7180325Y7767269D01*
X7174636Y7774127D01*
X6966712Y7982051D01*
X6964527Y7985353D01*
X6963765Y7989214D01*
X6964527Y7993125D01*
X6966712Y7996428D01*
X6970014Y7998612D01*
X6973925Y7999374D01*
X6985508Y7999374D01*
X6991858Y8000085D01*
X6997293Y8002016D01*
X7002221Y8005114D01*
X7006285Y8009178D01*
X7009384Y8014106D01*
X7011314Y8019542D01*
X7012025Y8025892D01*
X7012025Y8204708D01*
X7011314Y8211058D01*
X7009384Y8216493D01*
X7006285Y8221421D01*
X7002221Y8225485D01*
X6997293Y8228584D01*
X6991858Y8230514D01*
X6985508Y8231225D01*
X6806692Y8231225D01*
X6800342Y8230514D01*
X6794906Y8228584D01*
X6789978Y8225485D01*
X6785914Y8221421D01*
X6782816Y8216493D01*
X6780885Y8211058D01*
X6780174Y8204708D01*
X6780174Y8066684D01*
X6779412Y8062772D01*
X6777228Y8059470D01*
X6773925Y8057286D01*
X6770014Y8056524D01*
X6766153Y8057286D01*
X6762851Y8059470D01*
X6754215Y8068106D01*
X6752132Y8071154D01*
X6751269Y8074761D01*
X6751726Y8078419D01*
X6754368Y8086496D01*
X6757060Y8100771D01*
X6757974Y8115300D01*
X6757060Y8129828D01*
X6754368Y8144103D01*
X6749846Y8157972D01*
X6743649Y8171129D01*
X6735876Y8183422D01*
X6726580Y8194649D01*
X6715963Y8204606D01*
X6704177Y8213140D01*
X6691426Y8220151D01*
X6677914Y8225536D01*
X6663791Y8229142D01*
X6649364Y8230971D01*
X6634835Y8230971D01*
X6620408Y8229142D01*
X6606286Y8225536D01*
X6592773Y8220151D01*
X6580022Y8213140D01*
X6568236Y8204606D01*
X6557619Y8194649D01*
X6548323Y8183422D01*
X6540550Y8171129D01*
X6534353Y8157972D01*
X6529831Y8144103D01*
X6527139Y8129828D01*
X6526225Y8115300D01*
X6527139Y8100771D01*
X6529831Y8086496D01*
X6532473Y8078419D01*
X6532930Y8074761D01*
X6532067Y8071154D01*
X6529984Y8068106D01*
X6494983Y8033105D01*
X6491681Y8030870D01*
X6487769Y8030108D01*
X5338216Y8030108D01*
X5334304Y8030870D01*
X5331002Y8033105D01*
X5328818Y8036407D01*
X5328056Y8040268D01*
X5328818Y8044180D01*
X5331002Y8047481D01*
X5377891Y8094319D01*
X5381599Y8096707D01*
X5385968Y8097266D01*
X5395671Y8094014D01*
X5401970Y8093303D01*
X5570829Y8093303D01*
X5577128Y8094014D01*
X5582615Y8095894D01*
X5587492Y8098993D01*
X5591606Y8103108D01*
X5594705Y8107984D01*
X5596585Y8113471D01*
X5597296Y8119770D01*
X5597296Y8288629D01*
X5596585Y8294928D01*
X5594705Y8300415D01*
X5591606Y8305292D01*
X5587492Y8309406D01*
X5582615Y8312505D01*
X5577128Y8314385D01*
X5570829Y8315096D01*
X5401970Y8315096D01*
X5395671Y8314385D01*
X5390184Y8312505D01*
X5385308Y8309406D01*
X5381193Y8305292D01*
X5378094Y8300415D01*
X5376214Y8294928D01*
X5375503Y8288629D01*
X5375503Y8257692D01*
X5374741Y8253882D01*
X5372658Y8250631D01*
X5369458Y8248396D01*
X5365699Y8247532D01*
X5362295Y8247380D01*
X5358384Y8246872D01*
X5354472Y8245957D01*
X5350662Y8244687D01*
X5347309Y8243163D01*
X5343347Y8242300D01*
X5339384Y8243062D01*
X5336032Y8245297D01*
X5333796Y8248650D01*
X5332323Y8252307D01*
X5325313Y8264702D01*
X5316829Y8276081D01*
X5306974Y8286292D01*
X5295849Y8295131D01*
X5283708Y8302498D01*
X5270703Y8308238D01*
X5257088Y8312302D01*
X5243068Y8314588D01*
X5228844Y8315045D01*
X5214721Y8313674D01*
X5200853Y8310524D01*
X5187492Y8305596D01*
X5174894Y8299043D01*
X5163261Y8290915D01*
X5152745Y8281365D01*
X5143550Y8270544D01*
X5135778Y8258606D01*
X5129631Y8245805D01*
X5125161Y8232343D01*
X5122418Y8218373D01*
X5121503Y8204200D01*
X5122418Y8190026D01*
X5125161Y8176056D01*
X5129631Y8162594D01*
X5135778Y8149793D01*
X5143550Y8137855D01*
X5152745Y8127034D01*
X5163261Y8117484D01*
X5174894Y8109356D01*
X5187492Y8102803D01*
X5200853Y8097875D01*
X5214721Y8094725D01*
X5229301Y8093405D01*
X5233263Y8092694D01*
X5236667Y8090560D01*
X5238953Y8087258D01*
X5239766Y8083346D01*
X5239054Y8079384D01*
X5236819Y8076031D01*
X5030368Y7869580D01*
X5027066Y7867396D01*
X5023154Y7866583D01*
X4862322Y7866583D01*
X4858715Y7867294D01*
X4855565Y7869174D01*
X4845253Y7883702D01*
X4836363Y7893253D01*
X4826203Y7901533D01*
X4815027Y7908340D01*
X4802987Y7913522D01*
X4790389Y7917078D01*
X4777435Y7918856D01*
X4764379Y7918856D01*
X4751374Y7917078D01*
X4738776Y7913522D01*
X4726787Y7908340D01*
X4715611Y7901533D01*
X4705451Y7893253D01*
X4696510Y7883702D01*
X4688992Y7873034D01*
X4682947Y7861401D01*
X4678578Y7849057D01*
X4675886Y7836255D01*
X4675022Y7823200D01*
X4675886Y7810144D01*
X4678578Y7797342D01*
X4682947Y7784998D01*
X4688992Y7773365D01*
X4696510Y7762697D01*
X4705451Y7753146D01*
X4715611Y7744866D01*
X4726787Y7738059D01*
X4738776Y7732826D01*
X4751374Y7729321D01*
X4764379Y7727543D01*
X4777435Y7727543D01*
X4790389Y7729321D01*
X4802987Y7732826D01*
X4815027Y7738059D01*
X4826203Y7744866D01*
X4836363Y7753146D01*
X4845253Y7762697D01*
X4855565Y7777225D01*
X4858715Y7779105D01*
X4862322Y7779766D01*
X4990287Y7779766D01*
X4994198Y7779003D01*
X4997500Y7776819D01*
X4999685Y7773517D01*
X5000447Y7769606D01*
X4999685Y7765745D01*
X4997500Y7762443D01*
X4597450Y7362393D01*
X4594148Y7360208D01*
X4590237Y7359446D01*
X4558131Y7359396D01*
X4549394Y7358176D01*
X4541367Y7355484D01*
X4533950Y7351369D01*
X4527092Y7345629D01*
X4297730Y7116216D01*
X4292396Y7109206D01*
X4288637Y7101636D01*
X4286351Y7093458D01*
X4285488Y7084568D01*
X4285488Y6777532D01*
X4284573Y6773265D01*
X4281881Y6769760D01*
X4277969Y6767728D01*
X4273600Y6767525D01*
X4269536Y6769201D01*
X4261205Y6775043D01*
X4252569Y6779514D01*
X4252569Y6729069D01*
X4275328Y6729069D01*
X4279239Y6728256D01*
X4282541Y6726072D01*
X4284726Y6722770D01*
X4285488Y6718909D01*
X4285488Y6641490D01*
X4284726Y6637629D01*
X4282541Y6634327D01*
X4279239Y6632143D01*
X4275328Y6631330D01*
X4252569Y6631330D01*
X4252569Y6580886D01*
X4261205Y6585356D01*
X4269536Y6591198D01*
X4273600Y6592874D01*
X4277969Y6592671D01*
X4281881Y6590639D01*
X4284573Y6587134D01*
X4285488Y6582867D01*
X4285488Y6028232D01*
X4284573Y6023965D01*
X4281881Y6020460D01*
X4277969Y6018428D01*
X4273600Y6018225D01*
X4269536Y6019901D01*
X4261205Y6025743D01*
X4252569Y6030214D01*
X4252569Y5979769D01*
X4275328Y5979769D01*
X4279239Y5978956D01*
X4282541Y5976772D01*
X4284726Y5973470D01*
X4285488Y5969609D01*
X4285488Y5892190D01*
X4284726Y5888329D01*
X4282541Y5885027D01*
X4279239Y5882843D01*
X4275328Y5882030D01*
X4252569Y5882030D01*
X4252569Y5831586D01*
X4261205Y5836056D01*
X4269536Y5841898D01*
X4273600Y5843574D01*
X4277969Y5843371D01*
X4281881Y5841339D01*
X4284573Y5837834D01*
X4285488Y5833567D01*
X4285488Y4392726D01*
X4284726Y4388866D01*
X4282541Y4385564D01*
X3967632Y4070654D01*
X3964482Y4068521D01*
X3960723Y4067657D01*
X3941978Y4071874D01*
X3927856Y4073245D01*
X3913632Y4072788D01*
X3899611Y4070502D01*
X3885996Y4066438D01*
X3872992Y4060698D01*
X3860850Y4053332D01*
X3849725Y4044492D01*
X3839870Y4034282D01*
X3831386Y4022902D01*
X3824376Y4010507D01*
X3819042Y3997350D01*
X3815435Y3983583D01*
X3813657Y3969512D01*
X3813657Y3955287D01*
X3815435Y3941216D01*
X3818686Y3928821D01*
X3818991Y3925315D01*
X3818077Y3921963D01*
X3816045Y3919067D01*
X3792270Y3895293D01*
X3789019Y3893108D01*
X3785108Y3892346D01*
X3781196Y3893108D01*
X3777945Y3895293D01*
X3775710Y3898595D01*
X3774948Y3902506D01*
X3774948Y3913530D01*
X3716020Y3913530D01*
X3716020Y3893413D01*
X3715258Y3889552D01*
X3713022Y3886250D01*
X3709771Y3884015D01*
X3705860Y3883253D01*
X3634740Y3883253D01*
X3630828Y3884015D01*
X3627577Y3886250D01*
X3625342Y3889552D01*
X3624579Y3893413D01*
X3624579Y3913530D01*
X3565651Y3913530D01*
X3564890Y3908806D01*
X3562654Y3905504D01*
X3559403Y3903319D01*
X3555492Y3902557D01*
X3551580Y3903319D01*
X3548329Y3905504D01*
X2695702Y4758080D01*
X2688640Y4763414D01*
X2681071Y4767173D01*
X2672943Y4769459D01*
X2664053Y4770323D01*
X1288135Y4770323D01*
X1284528Y4770983D01*
X1281379Y4772863D01*
X1279093Y4775758D01*
X1275943Y4781905D01*
X1267815Y4793538D01*
X1258265Y4804054D01*
X1247444Y4813249D01*
X1235506Y4821021D01*
X1222705Y4827168D01*
X1209243Y4831638D01*
X1195273Y4834382D01*
X1181100Y4835296D01*
X1166926Y4834382D01*
X1152956Y4831638D01*
X1139494Y4827168D01*
X1126693Y4821021D01*
X1114755Y4813249D01*
X1103934Y4804054D01*
X1094384Y4793538D01*
X1086256Y4781905D01*
X1079703Y4769307D01*
X1074775Y4755946D01*
X1071626Y4742078D01*
X1070254Y4727956D01*
X1070711Y4713732D01*
X1072997Y4699711D01*
X1077061Y4686096D01*
X1082802Y4673092D01*
X1090168Y4660950D01*
X1099007Y4649825D01*
X1109218Y4639970D01*
X1120597Y4631486D01*
X1132992Y4624476D01*
X1146149Y4619142D01*
X1159916Y4615535D01*
X1173988Y4613757D01*
X1188212Y4613757D01*
X1202283Y4615535D01*
X1216050Y4619142D01*
X1229207Y4624476D01*
X1241602Y4631486D01*
X1252982Y4639970D01*
X1263192Y4649825D01*
X1272032Y4660950D01*
X1279702Y4673600D01*
X1281988Y4676190D01*
X1284986Y4677918D01*
X1288389Y4678476D01*
X2641295Y4678476D01*
X2645156Y4677714D01*
X2648458Y4675530D01*
X3491433Y3832555D01*
X3493617Y3829304D01*
X3494379Y3825392D01*
X3493617Y3821480D01*
X3491433Y3818229D01*
X3488131Y3815994D01*
X3484219Y3815232D01*
X3074568Y3815232D01*
X3070656Y3815994D01*
X3067354Y3818229D01*
X2637282Y4248251D01*
X2630627Y4253280D01*
X2628036Y4254550D01*
X2624734Y4257192D01*
X2622753Y4261002D01*
X2622550Y4265269D01*
X2624124Y4269282D01*
X2627172Y4272229D01*
X2631186Y4273702D01*
X2640025Y4274921D01*
X2652623Y4278426D01*
X2664612Y4283659D01*
X2675788Y4290466D01*
X2685948Y4298746D01*
X2694889Y4308297D01*
X2702407Y4318965D01*
X2708452Y4330598D01*
X2712821Y4342942D01*
X2715514Y4355744D01*
X2716377Y4368800D01*
X2715514Y4381855D01*
X2712821Y4394657D01*
X2708452Y4407001D01*
X2702407Y4418634D01*
X2694889Y4429302D01*
X2685948Y4438853D01*
X2675788Y4447133D01*
X2664612Y4453940D01*
X2652623Y4459122D01*
X2640025Y4462678D01*
X2627020Y4464456D01*
X2613964Y4464456D01*
X2601010Y4462678D01*
X2588412Y4459122D01*
X2576372Y4453940D01*
X2565196Y4447133D01*
X2555036Y4438853D01*
X2546146Y4429302D01*
X2538577Y4418634D01*
X2532532Y4407001D01*
X2528163Y4394657D01*
X2525522Y4381855D01*
X2524607Y4368800D01*
X2525522Y4355744D01*
X2528163Y4342942D01*
X2532532Y4330598D01*
X2538577Y4318965D01*
X2546146Y4308297D01*
X2555036Y4298746D01*
X2565196Y4290466D01*
X2576372Y4283659D01*
X2586482Y4279290D01*
X2589733Y4277055D01*
X2591866Y4273753D01*
X2592578Y4269892D01*
X2591765Y4266031D01*
X2589580Y4262729D01*
X2586278Y4260596D01*
X2582418Y4259783D01*
X1608582Y4259783D01*
X1604721Y4260596D01*
X1601419Y4262729D01*
X1599234Y4266031D01*
X1598422Y4269892D01*
X1599133Y4273753D01*
X1601266Y4277055D01*
X1604518Y4279290D01*
X1614627Y4283659D01*
X1625803Y4290466D01*
X1635963Y4298746D01*
X1644853Y4308297D01*
X1652422Y4318965D01*
X1658467Y4330598D01*
X1662836Y4342942D01*
X1665478Y4355744D01*
X1666392Y4368800D01*
X1665478Y4381855D01*
X1662836Y4394657D01*
X1658467Y4407001D01*
X1652422Y4418634D01*
X1644853Y4429302D01*
X1635963Y4438853D01*
X1625803Y4447133D01*
X1614627Y4453940D01*
X1602587Y4459122D01*
X1589989Y4462678D01*
X1577035Y4464456D01*
X1563979Y4464456D01*
X1550974Y4462678D01*
X1538376Y4459122D01*
X1526387Y4453940D01*
X1515211Y4447133D01*
X1505051Y4438853D01*
X1496110Y4429302D01*
X1488592Y4418634D01*
X1482547Y4407001D01*
X1478178Y4394657D01*
X1475486Y4381855D01*
X1474622Y4368800D01*
X1475486Y4355744D01*
X1478178Y4342942D01*
X1482547Y4330598D01*
X1488592Y4318965D01*
X1496110Y4308297D01*
X1505051Y4298746D01*
X1515211Y4290466D01*
X1526387Y4283659D01*
X1536446Y4279290D01*
X1539697Y4277055D01*
X1541830Y4273753D01*
X1542592Y4269892D01*
X1541780Y4266031D01*
X1539544Y4262729D01*
X1536293Y4260596D01*
X1532432Y4259783D01*
X1289405Y4259783D01*
X1285798Y4260494D01*
X1282700Y4262374D01*
X1280414Y4265269D01*
X1275943Y4273905D01*
X1267815Y4285538D01*
X1258265Y4296054D01*
X1247444Y4305249D01*
X1235506Y4313021D01*
X1222705Y4319168D01*
X1209243Y4323638D01*
X1195273Y4326382D01*
X1181100Y4327296D01*
X1166926Y4326382D01*
X1152956Y4323638D01*
X1139494Y4319168D01*
X1126693Y4313021D01*
X1114755Y4305249D01*
X1103934Y4296054D01*
X1094384Y4285538D01*
X1086256Y4273905D01*
X1079703Y4261307D01*
X1074775Y4247946D01*
X1071626Y4234078D01*
X1070254Y4219956D01*
X1070711Y4205732D01*
X1072997Y4191711D01*
X1077061Y4178096D01*
X1082802Y4165092D01*
X1090168Y4152950D01*
X1099007Y4141825D01*
X1109218Y4131970D01*
X1120597Y4123486D01*
X1132992Y4116476D01*
X1146149Y4111142D01*
X1159916Y4107535D01*
X1173988Y4105757D01*
X1188212Y4105757D01*
X1202283Y4107535D01*
X1216050Y4111142D01*
X1229207Y4116476D01*
X1241602Y4123486D01*
X1252982Y4131970D01*
X1263192Y4141825D01*
X1272032Y4152950D01*
X1279398Y4165092D01*
X1280210Y4166920D01*
X1282446Y4170121D01*
X1285697Y4172254D01*
X1289507Y4172965D01*
X2585618Y4172965D01*
X2589479Y4172204D01*
X2592781Y4170019D01*
X3022854Y3739997D01*
X3029559Y3734968D01*
X3036722Y3731361D01*
X3044393Y3729177D01*
G37*
G36*
X1096670Y3851503D02*
G01*
X1132230Y3851503D01*
X1132230Y3913530D01*
X1070203Y3913530D01*
X1070203Y3877970D01*
X1070914Y3871671D01*
X1072794Y3866184D01*
X1075893Y3861308D01*
X1080008Y3857193D01*
X1084884Y3854094D01*
X1090371Y3852214D01*
G37*
G36*
X1229969Y3851503D02*
G01*
X1265529Y3851503D01*
X1271828Y3852214D01*
X1277315Y3854094D01*
X1282192Y3857193D01*
X1286306Y3861308D01*
X1289405Y3866184D01*
X1291285Y3871671D01*
X1291996Y3877970D01*
X1291996Y3913530D01*
X1229969Y3913530D01*
G37*
G36*
X1731670Y3851503D02*
G01*
X1900529Y3851503D01*
X1906828Y3852214D01*
X1912315Y3854094D01*
X1917192Y3857193D01*
X1921306Y3861308D01*
X1924405Y3866184D01*
X1926285Y3871671D01*
X1926996Y3877970D01*
X1926996Y4046829D01*
X1926285Y4053128D01*
X1924405Y4058615D01*
X1921306Y4063492D01*
X1917192Y4067606D01*
X1912315Y4070705D01*
X1906828Y4072585D01*
X1900529Y4073296D01*
X1731670Y4073296D01*
X1725371Y4072585D01*
X1719884Y4070705D01*
X1715007Y4067606D01*
X1710893Y4063492D01*
X1707794Y4058615D01*
X1705914Y4053128D01*
X1705203Y4046829D01*
X1705203Y3877970D01*
X1705914Y3871671D01*
X1707794Y3866184D01*
X1710893Y3861308D01*
X1715007Y3857193D01*
X1719884Y3854094D01*
X1725371Y3852214D01*
G37*
G36*
X2073656Y3851554D02*
G01*
X2087778Y3852926D01*
X2101646Y3856075D01*
X2115007Y3861003D01*
X2127605Y3867556D01*
X2139238Y3875684D01*
X2149754Y3885234D01*
X2158949Y3896055D01*
X2166721Y3907993D01*
X2172868Y3920794D01*
X2177338Y3934256D01*
X2180082Y3948226D01*
X2180996Y3962400D01*
X2180082Y3976573D01*
X2177338Y3990543D01*
X2172868Y4004005D01*
X2166721Y4016806D01*
X2158949Y4028744D01*
X2149754Y4039565D01*
X2139238Y4049115D01*
X2127605Y4057243D01*
X2115007Y4063796D01*
X2101646Y4068724D01*
X2087778Y4071874D01*
X2073656Y4073245D01*
X2059432Y4072788D01*
X2045411Y4070502D01*
X2031796Y4066438D01*
X2018792Y4060698D01*
X2006650Y4053332D01*
X1995525Y4044492D01*
X1985670Y4034282D01*
X1977186Y4022902D01*
X1970176Y4010507D01*
X1964842Y3997350D01*
X1961235Y3983583D01*
X1959457Y3969512D01*
X1959457Y3955287D01*
X1961235Y3941216D01*
X1964842Y3927449D01*
X1970176Y3914292D01*
X1977186Y3901897D01*
X1985670Y3890518D01*
X1995525Y3880307D01*
X2006650Y3871468D01*
X2018792Y3864101D01*
X2031796Y3858310D01*
X2045411Y3854297D01*
X2059432Y3852011D01*
G37*
G36*
X2275230Y3862984D02*
G01*
X2275230Y3913530D01*
X2224633Y3913530D01*
X2231186Y3901897D01*
X2239670Y3890518D01*
X2249525Y3880307D01*
X2260650Y3871468D01*
X2272792Y3864101D01*
G37*
G36*
X2372969Y3863086D02*
G01*
X2381605Y3867556D01*
X2393238Y3875684D01*
X2403754Y3885234D01*
X2412949Y3896055D01*
X2420721Y3907993D01*
X2423414Y3913530D01*
X2372969Y3913530D01*
G37*
G36*
X2372969Y4011269D02*
G01*
X2423414Y4011269D01*
X2420721Y4016806D01*
X2412949Y4028744D01*
X2403754Y4039565D01*
X2393238Y4049115D01*
X2381605Y4057243D01*
X2372969Y4061714D01*
G37*
G36*
X2224633Y4011269D02*
G01*
X2275230Y4011269D01*
X2275230Y4061815D01*
X2272792Y4060698D01*
X2260650Y4053332D01*
X2249525Y4044492D01*
X2239670Y4034282D01*
X2231186Y4022902D01*
G37*
G36*
X3565651Y4011269D02*
G01*
X3624579Y4011269D01*
X3624579Y4073296D01*
X3592118Y4073296D01*
X3585819Y4072585D01*
X3580333Y4070705D01*
X3575456Y4067606D01*
X3571341Y4063492D01*
X3568293Y4058615D01*
X3566363Y4053128D01*
X3565651Y4046829D01*
G37*
G36*
X3716020Y4011269D02*
G01*
X3774948Y4011269D01*
X3774948Y4046829D01*
X3774236Y4053128D01*
X3772306Y4058615D01*
X3769258Y4063492D01*
X3765143Y4067606D01*
X3760266Y4070705D01*
X3754780Y4072585D01*
X3748481Y4073296D01*
X3716020Y4073296D01*
G37*
G36*
X1229969Y4011269D02*
G01*
X1291996Y4011269D01*
X1291996Y4046829D01*
X1291285Y4053128D01*
X1289405Y4058615D01*
X1286306Y4063492D01*
X1282192Y4067606D01*
X1277315Y4070705D01*
X1271828Y4072585D01*
X1265529Y4073296D01*
X1229969Y4073296D01*
G37*
G36*
X1070203Y4011269D02*
G01*
X1132230Y4011269D01*
X1132230Y4073296D01*
X1096670Y4073296D01*
X1090371Y4072585D01*
X1084884Y4070705D01*
X1080008Y4067606D01*
X1075893Y4063492D01*
X1072794Y4058615D01*
X1070914Y4053128D01*
X1070203Y4046829D01*
G37*
G36*
X1173988Y4359757D02*
G01*
X1188212Y4359757D01*
X1202283Y4361535D01*
X1216050Y4365142D01*
X1229207Y4370476D01*
X1241602Y4377486D01*
X1252982Y4385970D01*
X1263192Y4395825D01*
X1272032Y4406950D01*
X1279398Y4419092D01*
X1285189Y4432096D01*
X1289202Y4445711D01*
X1291488Y4459732D01*
X1291945Y4473956D01*
X1290574Y4488078D01*
X1287424Y4501946D01*
X1282496Y4515307D01*
X1275943Y4527905D01*
X1267815Y4539538D01*
X1258265Y4550054D01*
X1247444Y4559249D01*
X1235506Y4567021D01*
X1222705Y4573168D01*
X1209243Y4577638D01*
X1195273Y4580382D01*
X1181100Y4581296D01*
X1166926Y4580382D01*
X1152956Y4577638D01*
X1139494Y4573168D01*
X1126693Y4567021D01*
X1114755Y4559249D01*
X1103934Y4550054D01*
X1094384Y4539538D01*
X1086256Y4527905D01*
X1079703Y4515307D01*
X1074775Y4501946D01*
X1071626Y4488078D01*
X1070254Y4473956D01*
X1070711Y4459732D01*
X1072997Y4445711D01*
X1077061Y4432096D01*
X1082802Y4419092D01*
X1090168Y4406950D01*
X1099007Y4395825D01*
X1109218Y4385970D01*
X1120597Y4377486D01*
X1132992Y4370476D01*
X1146149Y4365142D01*
X1159916Y4361535D01*
G37*
G36*
X3774694Y4694732D02*
G01*
X3788511Y4695596D01*
X3802075Y4698339D01*
X3815232Y4702759D01*
X3827627Y4708906D01*
X3839159Y4716576D01*
X3849573Y4725720D01*
X3858717Y4736134D01*
X3866387Y4747666D01*
X3872534Y4760061D01*
X3876954Y4773218D01*
X3879697Y4786782D01*
X3880561Y4800600D01*
X3879697Y4814417D01*
X3878732Y4819192D01*
X3878630Y4822494D01*
X3879596Y4825644D01*
X3881526Y4828336D01*
X3989070Y4935931D01*
X3992524Y4939690D01*
X3995470Y4943551D01*
X3998112Y4947666D01*
X4000347Y4951984D01*
X4002227Y4956505D01*
X4003700Y4961128D01*
X4004767Y4965903D01*
X4005376Y4970729D01*
X4005630Y4975809D01*
X4005630Y5829655D01*
X4006138Y5832856D01*
X4007612Y5835751D01*
X4009948Y5837986D01*
X4018838Y5844184D01*
X4029354Y5853734D01*
X4038549Y5864555D01*
X4046321Y5876493D01*
X4052468Y5889294D01*
X4056938Y5902756D01*
X4059682Y5916726D01*
X4060596Y5930900D01*
X4059682Y5945073D01*
X4056938Y5959043D01*
X4052468Y5972505D01*
X4046321Y5985306D01*
X4038549Y5997244D01*
X4029354Y6008065D01*
X4018838Y6017615D01*
X4009948Y6023813D01*
X4007612Y6026048D01*
X4006138Y6028944D01*
X4005630Y6032144D01*
X4005630Y6578955D01*
X4006138Y6582156D01*
X4007612Y6585051D01*
X4009948Y6587286D01*
X4018838Y6593484D01*
X4029354Y6603034D01*
X4038549Y6613855D01*
X4046321Y6625793D01*
X4052468Y6638594D01*
X4056938Y6652056D01*
X4059682Y6666026D01*
X4060596Y6680200D01*
X4059682Y6694373D01*
X4056938Y6708343D01*
X4052468Y6721805D01*
X4046321Y6734606D01*
X4038549Y6746544D01*
X4029354Y6757365D01*
X4018838Y6766915D01*
X4009948Y6773113D01*
X4007612Y6775348D01*
X4006138Y6778244D01*
X4005630Y6781444D01*
X4005630Y7353655D01*
X4006138Y7356856D01*
X4007612Y7359751D01*
X4009948Y7361986D01*
X4018838Y7368184D01*
X4029354Y7377734D01*
X4038549Y7388555D01*
X4046321Y7400493D01*
X4052468Y7413294D01*
X4056938Y7426756D01*
X4059682Y7440726D01*
X4060596Y7454900D01*
X4059682Y7469073D01*
X4056938Y7483043D01*
X4052468Y7496505D01*
X4046321Y7509306D01*
X4038549Y7521244D01*
X4029354Y7532065D01*
X4018838Y7541615D01*
X4009948Y7547813D01*
X4007612Y7550048D01*
X4006138Y7552944D01*
X4005630Y7556144D01*
X4005630Y8115655D01*
X4006138Y8118856D01*
X4007612Y8121751D01*
X4009948Y8123986D01*
X4018838Y8130184D01*
X4029354Y8139734D01*
X4038549Y8150555D01*
X4046321Y8162493D01*
X4052468Y8175294D01*
X4056938Y8188756D01*
X4059682Y8202726D01*
X4060596Y8216900D01*
X4059682Y8231073D01*
X4056938Y8245043D01*
X4052468Y8258505D01*
X4046321Y8271306D01*
X4038549Y8283244D01*
X4029354Y8294065D01*
X4018838Y8303615D01*
X4007205Y8311743D01*
X3994607Y8318296D01*
X3981246Y8323224D01*
X3967378Y8326374D01*
X3953256Y8327745D01*
X3939032Y8327288D01*
X3925011Y8325002D01*
X3911396Y8320938D01*
X3898392Y8315198D01*
X3886250Y8307831D01*
X3875125Y8298992D01*
X3865270Y8288781D01*
X3856786Y8277402D01*
X3849776Y8265007D01*
X3844442Y8251850D01*
X3840835Y8238083D01*
X3839057Y8224012D01*
X3839057Y8209788D01*
X3840835Y8195716D01*
X3844442Y8181949D01*
X3849776Y8168792D01*
X3856786Y8156397D01*
X3865270Y8145018D01*
X3875125Y8134807D01*
X3886250Y8125968D01*
X3888892Y8124342D01*
X3891534Y8122107D01*
X3893210Y8119059D01*
X3893820Y8115655D01*
X3893820Y7556144D01*
X3893210Y7552740D01*
X3891534Y7549692D01*
X3888892Y7547457D01*
X3886250Y7545831D01*
X3875125Y7536992D01*
X3865270Y7526781D01*
X3856786Y7515402D01*
X3849776Y7503007D01*
X3844442Y7489850D01*
X3840835Y7476083D01*
X3839057Y7462012D01*
X3839057Y7447788D01*
X3840835Y7433716D01*
X3844442Y7419949D01*
X3849776Y7406792D01*
X3856786Y7394397D01*
X3865270Y7383018D01*
X3875125Y7372807D01*
X3886250Y7363968D01*
X3888892Y7362342D01*
X3891534Y7360107D01*
X3893210Y7357059D01*
X3893820Y7353655D01*
X3893820Y6781444D01*
X3893210Y6778040D01*
X3891534Y6774992D01*
X3888892Y6772757D01*
X3886250Y6771131D01*
X3875125Y6762292D01*
X3865270Y6752081D01*
X3856786Y6740702D01*
X3849776Y6728307D01*
X3844442Y6715150D01*
X3840835Y6701383D01*
X3839057Y6687312D01*
X3839057Y6673088D01*
X3840835Y6659016D01*
X3844442Y6645249D01*
X3849776Y6632092D01*
X3856786Y6619697D01*
X3865270Y6608318D01*
X3875125Y6598107D01*
X3886250Y6589268D01*
X3888892Y6587642D01*
X3891534Y6585407D01*
X3893210Y6582359D01*
X3893820Y6578955D01*
X3893820Y6032144D01*
X3893210Y6028740D01*
X3891534Y6025692D01*
X3888892Y6023457D01*
X3886250Y6021832D01*
X3875125Y6012992D01*
X3865270Y6002782D01*
X3856786Y5991402D01*
X3849776Y5979007D01*
X3844442Y5965850D01*
X3840835Y5952083D01*
X3839057Y5938012D01*
X3839057Y5923788D01*
X3840835Y5909716D01*
X3844442Y5895949D01*
X3849776Y5882792D01*
X3856786Y5870397D01*
X3865270Y5859018D01*
X3875125Y5848807D01*
X3886250Y5839968D01*
X3888892Y5838342D01*
X3891534Y5836107D01*
X3893210Y5833059D01*
X3893820Y5829655D01*
X3893820Y5002987D01*
X3893007Y4999075D01*
X3890822Y4995773D01*
X3802430Y4907432D01*
X3799738Y4905502D01*
X3796588Y4904536D01*
X3793286Y4904638D01*
X3788511Y4905603D01*
X3774694Y4906467D01*
X3760876Y4905603D01*
X3756101Y4904638D01*
X3752799Y4904536D01*
X3749649Y4905502D01*
X3746957Y4907432D01*
X3280968Y5373370D01*
X3277209Y5376824D01*
X3273348Y5379770D01*
X3269234Y5382412D01*
X3264915Y5384647D01*
X3260394Y5386527D01*
X3255772Y5388000D01*
X3250996Y5389067D01*
X3246170Y5389676D01*
X3241090Y5389930D01*
X3018739Y5389930D01*
X3014878Y5390642D01*
X3011627Y5392775D01*
X3009392Y5395976D01*
X3002127Y5412638D01*
X2993237Y5428386D01*
X2982722Y5443169D01*
X2970784Y5456783D01*
X2957474Y5469077D01*
X2942996Y5479948D01*
X2927451Y5489244D01*
X2911043Y5496915D01*
X2893974Y5502910D01*
X2876346Y5507024D01*
X2858363Y5509361D01*
X2840278Y5509818D01*
X2822194Y5508447D01*
X2804414Y5505196D01*
X2786989Y5500116D01*
X2770225Y5493308D01*
X2754274Y5484774D01*
X2739237Y5474665D01*
X2725318Y5463082D01*
X2712669Y5450128D01*
X2701442Y5435904D01*
X2691739Y5420614D01*
X2683611Y5404459D01*
X2677261Y5387492D01*
X2672638Y5369966D01*
X2669844Y5352084D01*
X2668930Y5334000D01*
X2669844Y5315915D01*
X2672638Y5298033D01*
X2677261Y5280507D01*
X2683611Y5263540D01*
X2691739Y5247386D01*
X2701442Y5232095D01*
X2712669Y5217871D01*
X2725318Y5204917D01*
X2739237Y5193334D01*
X2754274Y5183225D01*
X2770225Y5174691D01*
X2786989Y5167884D01*
X2804414Y5162804D01*
X2822194Y5159552D01*
X2840278Y5158181D01*
X2858363Y5158638D01*
X2876346Y5160975D01*
X2893974Y5165090D01*
X2911043Y5171084D01*
X2927451Y5178755D01*
X2942996Y5188051D01*
X2957474Y5198922D01*
X2970784Y5211216D01*
X2982722Y5224830D01*
X2993237Y5239613D01*
X3002127Y5255361D01*
X3009392Y5272024D01*
X3011627Y5275224D01*
X3014878Y5277358D01*
X3018739Y5278069D01*
X3213912Y5278069D01*
X3217824Y5277307D01*
X3221126Y5275122D01*
X3667861Y4828336D01*
X3669792Y4825644D01*
X3670757Y4822494D01*
X3670655Y4819192D01*
X3669690Y4814417D01*
X3668826Y4800600D01*
X3669690Y4786782D01*
X3672433Y4773218D01*
X3676853Y4760061D01*
X3683000Y4747666D01*
X3690670Y4736134D01*
X3699814Y4725720D01*
X3710228Y4716576D01*
X3721760Y4708906D01*
X3734155Y4702759D01*
X3747312Y4698339D01*
X3760876Y4695596D01*
G37*
G36*
X4078376Y4705654D02*
G01*
X4078376Y4754270D01*
X4029760Y4754270D01*
X4033012Y4747666D01*
X4040682Y4736134D01*
X4049826Y4725720D01*
X4060240Y4716576D01*
X4071772Y4708906D01*
G37*
G36*
X4171035Y4705654D02*
G01*
X4177639Y4708906D01*
X4189171Y4716576D01*
X4199585Y4725720D01*
X4208729Y4736134D01*
X4216400Y4747666D01*
X4219651Y4754270D01*
X4171035Y4754270D01*
G37*
G36*
X4171035Y4846929D02*
G01*
X4219651Y4846929D01*
X4216400Y4853533D01*
X4208729Y4865065D01*
X4199585Y4875479D01*
X4189171Y4884623D01*
X4177639Y4892294D01*
X4171035Y4895545D01*
G37*
G36*
X4029760Y4846929D02*
G01*
X4078376Y4846929D01*
X4078376Y4895545D01*
X4071772Y4892294D01*
X4060240Y4884623D01*
X4049826Y4875479D01*
X4040682Y4865065D01*
X4033012Y4853533D01*
G37*
G36*
X1171346Y5158079D02*
G01*
X1470253Y5158079D01*
X1476552Y5158790D01*
X1481988Y5160721D01*
X1486916Y5163820D01*
X1490980Y5167884D01*
X1494078Y5172811D01*
X1496009Y5178247D01*
X1496720Y5184546D01*
X1496720Y5267909D01*
X1497482Y5271820D01*
X1499666Y5275122D01*
X1502968Y5277307D01*
X1506880Y5278069D01*
X1923745Y5278069D01*
X1928825Y5278323D01*
X1933702Y5278932D01*
X1938426Y5279999D01*
X1943100Y5281472D01*
X1947621Y5283352D01*
X1951939Y5285587D01*
X1956054Y5288229D01*
X1959914Y5291175D01*
X1963674Y5294630D01*
X2586939Y5917895D01*
X2590241Y5920079D01*
X2594152Y5920892D01*
X2598013Y5920079D01*
X2601315Y5917895D01*
X2603500Y5914593D01*
X2604312Y5910732D01*
X2604312Y5890666D01*
X2605024Y5884367D01*
X2606903Y5878880D01*
X2610002Y5874004D01*
X2614066Y5869889D01*
X2618994Y5866841D01*
X2624429Y5864910D01*
X2630779Y5864199D01*
X2829610Y5864199D01*
X2835960Y5864910D01*
X2841396Y5866841D01*
X2846324Y5869889D01*
X2850388Y5874004D01*
X2853486Y5878880D01*
X2855366Y5884367D01*
X2856077Y5890666D01*
X2856077Y6089548D01*
X2855366Y6095847D01*
X2853486Y6101334D01*
X2850388Y6106210D01*
X2846324Y6110325D01*
X2841396Y6113373D01*
X2835960Y6115304D01*
X2829610Y6116015D01*
X2630779Y6116015D01*
X2624429Y6115304D01*
X2618994Y6113373D01*
X2614066Y6110325D01*
X2610002Y6106210D01*
X2606903Y6101334D01*
X2605024Y6095847D01*
X2604312Y6089548D01*
X2604312Y6056172D01*
X2603500Y6052312D01*
X2601315Y6049010D01*
X2598013Y6046774D01*
X2594152Y6046012D01*
X2580284Y6046012D01*
X2575204Y6045809D01*
X2570378Y6045149D01*
X2565603Y6044082D01*
X2560980Y6042609D01*
X2556459Y6040780D01*
X2552141Y6038494D01*
X2548026Y6035903D01*
X2544165Y6032906D01*
X2540406Y6029502D01*
X1903780Y5392877D01*
X1900478Y5390692D01*
X1896618Y5389930D01*
X1506880Y5389930D01*
X1502968Y5390692D01*
X1499666Y5392877D01*
X1497482Y5396179D01*
X1496720Y5400090D01*
X1496720Y5483453D01*
X1496009Y5489752D01*
X1494078Y5495188D01*
X1490980Y5500116D01*
X1486916Y5504180D01*
X1481988Y5507278D01*
X1476552Y5509209D01*
X1470253Y5509920D01*
X1171346Y5509920D01*
X1165047Y5509209D01*
X1159611Y5507278D01*
X1154684Y5504180D01*
X1150620Y5500116D01*
X1147521Y5495188D01*
X1145590Y5489752D01*
X1144879Y5483453D01*
X1144879Y5184546D01*
X1145590Y5178247D01*
X1147521Y5172811D01*
X1150620Y5167884D01*
X1154684Y5163820D01*
X1159611Y5160721D01*
X1165047Y5158790D01*
G37*
G36*
X3430879Y5454243D02*
G01*
X3443935Y5454243D01*
X3456889Y5456021D01*
X3469487Y5459526D01*
X3481527Y5464759D01*
X3492703Y5471566D01*
X3502863Y5479846D01*
X3511753Y5489397D01*
X3519322Y5500065D01*
X3525367Y5511698D01*
X3529736Y5524042D01*
X3532378Y5536844D01*
X3533292Y5549900D01*
X3532378Y5562955D01*
X3529990Y5574588D01*
X3529837Y5577941D01*
X3530803Y5581142D01*
X3532733Y5583834D01*
X3727551Y5778703D01*
X3732580Y5785358D01*
X3736136Y5792520D01*
X3738372Y5800344D01*
X3739083Y5806389D01*
X3739134Y5809996D01*
X3739946Y5813806D01*
X3742131Y5817057D01*
X3745433Y5819241D01*
X3749294Y5820003D01*
X3780129Y5820003D01*
X3786428Y5820714D01*
X3791915Y5822594D01*
X3796792Y5825693D01*
X3800906Y5829808D01*
X3804005Y5834684D01*
X3805885Y5840171D01*
X3806596Y5846470D01*
X3806596Y6015329D01*
X3805885Y6021628D01*
X3804005Y6027115D01*
X3800906Y6031992D01*
X3796792Y6036106D01*
X3791915Y6039205D01*
X3786428Y6041085D01*
X3780129Y6041796D01*
X3611270Y6041796D01*
X3604971Y6041085D01*
X3599484Y6039205D01*
X3594608Y6036106D01*
X3590493Y6031992D01*
X3587394Y6027115D01*
X3585514Y6021628D01*
X3584803Y6015329D01*
X3584803Y5846470D01*
X3585514Y5840171D01*
X3587394Y5834684D01*
X3590493Y5829808D01*
X3594608Y5825693D01*
X3599484Y5822594D01*
X3604971Y5820714D01*
X3611270Y5820003D01*
X3621582Y5820003D01*
X3625494Y5819241D01*
X3628745Y5817006D01*
X3630980Y5813704D01*
X3631742Y5809843D01*
X3630980Y5805932D01*
X3628745Y5802630D01*
X3471265Y5645150D01*
X3468319Y5643118D01*
X3464864Y5642203D01*
X3461308Y5642559D01*
X3456889Y5643778D01*
X3443935Y5645556D01*
X3430879Y5645556D01*
X3417874Y5643778D01*
X3405276Y5640222D01*
X3393287Y5635040D01*
X3382111Y5628233D01*
X3371951Y5619953D01*
X3363010Y5610402D01*
X3355492Y5599734D01*
X3349447Y5588101D01*
X3345078Y5575757D01*
X3342386Y5562955D01*
X3341522Y5549900D01*
X3342386Y5536844D01*
X3345078Y5524042D01*
X3349447Y5511698D01*
X3355492Y5500065D01*
X3363010Y5489397D01*
X3371951Y5479846D01*
X3382111Y5471566D01*
X3393287Y5464759D01*
X3405276Y5459526D01*
X3417874Y5456021D01*
G37*
G36*
X4154830Y5831484D02*
G01*
X4154830Y5882030D01*
X4104233Y5882030D01*
X4110786Y5870397D01*
X4119270Y5859018D01*
X4129125Y5848807D01*
X4140250Y5839968D01*
X4152392Y5832602D01*
G37*
G36*
X1030782Y5864199D02*
G01*
X1229614Y5864199D01*
X1235964Y5864910D01*
X1241399Y5866841D01*
X1246327Y5869889D01*
X1250391Y5874004D01*
X1253490Y5878880D01*
X1255369Y5884367D01*
X1256131Y5890666D01*
X1256131Y6089548D01*
X1255369Y6095847D01*
X1253490Y6101334D01*
X1250391Y6106210D01*
X1246327Y6110325D01*
X1241399Y6113373D01*
X1235964Y6115304D01*
X1229614Y6116015D01*
X1209598Y6116015D01*
X1205687Y6116777D01*
X1202385Y6119012D01*
X1200200Y6122263D01*
X1199438Y6126175D01*
X1200200Y6130086D01*
X1202385Y6133338D01*
X2744470Y7675422D01*
X2747924Y7679181D01*
X2750870Y7683042D01*
X2753512Y7687157D01*
X2755747Y7691475D01*
X2757627Y7695996D01*
X2759100Y7700670D01*
X2760167Y7705394D01*
X2760776Y7710271D01*
X2761030Y7715351D01*
X2761030Y8033461D01*
X2761640Y8036966D01*
X2763469Y8040065D01*
X2778963Y8051393D01*
X2789580Y8061350D01*
X2798876Y8072577D01*
X2806649Y8084870D01*
X2812846Y8098028D01*
X2817368Y8111896D01*
X2820060Y8126171D01*
X2820974Y8140700D01*
X2820060Y8155228D01*
X2817368Y8169503D01*
X2812846Y8183372D01*
X2806649Y8196529D01*
X2798876Y8208822D01*
X2789580Y8220049D01*
X2778963Y8230006D01*
X2767177Y8238540D01*
X2754426Y8245551D01*
X2740914Y8250936D01*
X2726791Y8254542D01*
X2712364Y8256371D01*
X2697835Y8256371D01*
X2683408Y8254542D01*
X2669286Y8250936D01*
X2655773Y8245551D01*
X2643022Y8238540D01*
X2631236Y8230006D01*
X2620619Y8220049D01*
X2611323Y8208822D01*
X2603550Y8196529D01*
X2597353Y8183372D01*
X2592832Y8169503D01*
X2590139Y8155228D01*
X2589225Y8140700D01*
X2590139Y8126171D01*
X2592832Y8111896D01*
X2597353Y8098028D01*
X2603550Y8084870D01*
X2611323Y8072577D01*
X2620619Y8061350D01*
X2631236Y8051393D01*
X2646730Y8040065D01*
X2648559Y8036966D01*
X2649220Y8033461D01*
X2649220Y7742478D01*
X2648407Y7738618D01*
X2646222Y7735316D01*
X1090828Y6179921D01*
X1087374Y6176162D01*
X1084427Y6172301D01*
X1081786Y6168186D01*
X1079550Y6163868D01*
X1077671Y6159347D01*
X1076198Y6154674D01*
X1075131Y6149949D01*
X1074521Y6145072D01*
X1074318Y6139992D01*
X1074318Y6126175D01*
X1073505Y6122263D01*
X1071321Y6119012D01*
X1068019Y6116777D01*
X1064158Y6116015D01*
X1030782Y6116015D01*
X1024432Y6115304D01*
X1018997Y6113373D01*
X1014069Y6110325D01*
X1010005Y6106210D01*
X1006906Y6101334D01*
X1005027Y6095847D01*
X1004316Y6089548D01*
X1004316Y5890666D01*
X1005027Y5884367D01*
X1006906Y5878880D01*
X1010005Y5874004D01*
X1014069Y5869889D01*
X1018997Y5866841D01*
X1024432Y5864910D01*
G37*
G36*
X4104233Y5979769D02*
G01*
X4154830Y5979769D01*
X4154830Y6030315D01*
X4152392Y6029198D01*
X4140250Y6021832D01*
X4129125Y6012992D01*
X4119270Y6002782D01*
X4110786Y5991402D01*
G37*
G36*
X3443579Y6216243D02*
G01*
X3456635Y6216243D01*
X3469589Y6218021D01*
X3482187Y6221526D01*
X3494227Y6226759D01*
X3505403Y6233566D01*
X3515563Y6241846D01*
X3524453Y6251397D01*
X3532022Y6262065D01*
X3538067Y6273698D01*
X3542436Y6286042D01*
X3545078Y6298844D01*
X3545992Y6311900D01*
X3545078Y6324955D01*
X3542690Y6336588D01*
X3542537Y6339941D01*
X3543503Y6343142D01*
X3545433Y6345834D01*
X3727551Y6528003D01*
X3732580Y6534657D01*
X3736136Y6541820D01*
X3738372Y6549644D01*
X3739083Y6555689D01*
X3739134Y6559296D01*
X3739946Y6563106D01*
X3742131Y6566357D01*
X3745433Y6568541D01*
X3749294Y6569303D01*
X3780129Y6569303D01*
X3786428Y6570014D01*
X3791915Y6571894D01*
X3796792Y6574993D01*
X3800906Y6579108D01*
X3804005Y6583984D01*
X3805885Y6589471D01*
X3806596Y6595770D01*
X3806596Y6764629D01*
X3805885Y6770928D01*
X3804005Y6776415D01*
X3800906Y6781292D01*
X3796792Y6785406D01*
X3791915Y6788505D01*
X3786428Y6790385D01*
X3780129Y6791096D01*
X3611270Y6791096D01*
X3604971Y6790385D01*
X3599484Y6788505D01*
X3594608Y6785406D01*
X3590493Y6781292D01*
X3587394Y6776415D01*
X3585514Y6770928D01*
X3584803Y6764629D01*
X3584803Y6595770D01*
X3585514Y6589471D01*
X3587394Y6583984D01*
X3590493Y6579108D01*
X3594608Y6574993D01*
X3599484Y6571894D01*
X3604971Y6570014D01*
X3611270Y6569303D01*
X3621582Y6569303D01*
X3625494Y6568541D01*
X3628745Y6566306D01*
X3630980Y6563004D01*
X3631742Y6559143D01*
X3630980Y6555231D01*
X3628745Y6551930D01*
X3483965Y6407150D01*
X3481019Y6405118D01*
X3477564Y6404203D01*
X3474008Y6404559D01*
X3469589Y6405778D01*
X3456635Y6407556D01*
X3443579Y6407556D01*
X3430574Y6405778D01*
X3417976Y6402222D01*
X3405987Y6397040D01*
X3394811Y6390233D01*
X3384651Y6381953D01*
X3375710Y6372402D01*
X3368192Y6361734D01*
X3362147Y6350101D01*
X3357778Y6337757D01*
X3355086Y6324955D01*
X3354222Y6311900D01*
X3355086Y6298844D01*
X3357778Y6286042D01*
X3362147Y6273698D01*
X3368192Y6262065D01*
X3375710Y6251397D01*
X3384651Y6241846D01*
X3394811Y6233566D01*
X3405987Y6226759D01*
X3417976Y6221526D01*
X3430574Y6218021D01*
G37*
G36*
X4154830Y6580784D02*
G01*
X4154830Y6631330D01*
X4104233Y6631330D01*
X4110786Y6619697D01*
X4119270Y6608318D01*
X4129125Y6598107D01*
X4140250Y6589268D01*
X4152392Y6581902D01*
G37*
G36*
X7378700Y6617004D02*
G01*
X7392212Y6617919D01*
X7405471Y6620611D01*
X7418222Y6625031D01*
X7430312Y6631178D01*
X7441488Y6638798D01*
X7451496Y6647891D01*
X7460234Y6658203D01*
X7467498Y6669633D01*
X7473238Y6681876D01*
X7477201Y6694830D01*
X7479487Y6708140D01*
X7479944Y6721703D01*
X7478572Y6735165D01*
X7475423Y6748322D01*
X7470597Y6760921D01*
X7464094Y6772808D01*
X7456068Y6783679D01*
X7446619Y6793433D01*
X7436002Y6801815D01*
X7424369Y6808724D01*
X7411923Y6813956D01*
X7398867Y6817563D01*
X7385456Y6819341D01*
X7371943Y6819341D01*
X7358532Y6817563D01*
X7345476Y6813956D01*
X7333030Y6808724D01*
X7321397Y6801815D01*
X7310780Y6793433D01*
X7301331Y6783679D01*
X7293305Y6772808D01*
X7286802Y6760921D01*
X7281976Y6748322D01*
X7278827Y6735165D01*
X7277455Y6721703D01*
X7277912Y6708140D01*
X7280198Y6694830D01*
X7284161Y6681876D01*
X7289901Y6669633D01*
X7297166Y6658203D01*
X7305903Y6647891D01*
X7315911Y6638798D01*
X7327087Y6631178D01*
X7339177Y6625031D01*
X7351928Y6620611D01*
X7365187Y6617919D01*
G37*
G36*
X4104233Y6729069D02*
G01*
X4154830Y6729069D01*
X4154830Y6779615D01*
X4152392Y6778498D01*
X4140250Y6771131D01*
X4129125Y6762292D01*
X4119270Y6752081D01*
X4110786Y6740702D01*
G37*
G36*
X2786532Y6864197D02*
G01*
X2829610Y6864197D01*
X2835960Y6864908D01*
X2841396Y6866839D01*
X2846324Y6869887D01*
X2850388Y6874002D01*
X2853486Y6878878D01*
X2855366Y6884365D01*
X2856077Y6890664D01*
X2856077Y6933742D01*
X2786532Y6933742D01*
G37*
G36*
X1186535Y6864197D02*
G01*
X1229614Y6864197D01*
X1235964Y6864908D01*
X1241399Y6866839D01*
X1246327Y6869887D01*
X1250391Y6874002D01*
X1253490Y6878878D01*
X1255369Y6884365D01*
X1256131Y6890664D01*
X1256131Y6933742D01*
X1186535Y6933742D01*
G37*
G36*
X2630779Y6864197D02*
G01*
X2673858Y6864197D01*
X2673858Y6933742D01*
X2604312Y6933742D01*
X2604312Y6890664D01*
X2605024Y6884365D01*
X2606903Y6878878D01*
X2610002Y6874002D01*
X2614066Y6869887D01*
X2618994Y6866839D01*
X2624429Y6864908D01*
G37*
G36*
X1030782Y6864197D02*
G01*
X1073861Y6864197D01*
X1073861Y6933742D01*
X1004316Y6933742D01*
X1004316Y6890664D01*
X1005027Y6884365D01*
X1006906Y6878878D01*
X1010005Y6874002D01*
X1014069Y6869887D01*
X1018997Y6866839D01*
X1024432Y6864908D01*
G37*
G36*
X3430879Y6978243D02*
G01*
X3443935Y6978243D01*
X3456889Y6980021D01*
X3469487Y6983526D01*
X3481527Y6988759D01*
X3492703Y6995566D01*
X3502863Y7003846D01*
X3511753Y7013397D01*
X3519322Y7024065D01*
X3525367Y7035698D01*
X3529736Y7048042D01*
X3532378Y7060844D01*
X3533292Y7073900D01*
X3532378Y7086955D01*
X3529990Y7098588D01*
X3529837Y7101941D01*
X3530803Y7105142D01*
X3532733Y7107834D01*
X3727551Y7302703D01*
X3732580Y7309358D01*
X3736136Y7316520D01*
X3738372Y7324344D01*
X3739083Y7330389D01*
X3739134Y7333996D01*
X3739946Y7337806D01*
X3742131Y7341057D01*
X3745433Y7343241D01*
X3749294Y7344003D01*
X3780129Y7344003D01*
X3786428Y7344714D01*
X3791915Y7346594D01*
X3796792Y7349693D01*
X3800906Y7353808D01*
X3804005Y7358684D01*
X3805885Y7364171D01*
X3806596Y7370470D01*
X3806596Y7539329D01*
X3805885Y7545628D01*
X3804005Y7551115D01*
X3800906Y7555992D01*
X3796792Y7560106D01*
X3791915Y7563205D01*
X3786428Y7565085D01*
X3780129Y7565796D01*
X3611270Y7565796D01*
X3604971Y7565085D01*
X3599484Y7563205D01*
X3594608Y7560106D01*
X3590493Y7555992D01*
X3587394Y7551115D01*
X3585514Y7545628D01*
X3584803Y7539329D01*
X3584803Y7370470D01*
X3585514Y7364171D01*
X3587394Y7358684D01*
X3590493Y7353808D01*
X3594608Y7349693D01*
X3599484Y7346594D01*
X3604971Y7344714D01*
X3611270Y7344003D01*
X3621582Y7344003D01*
X3625494Y7343241D01*
X3628745Y7341006D01*
X3630980Y7337704D01*
X3631742Y7333843D01*
X3630980Y7329931D01*
X3628745Y7326630D01*
X3471265Y7169150D01*
X3468319Y7167118D01*
X3464864Y7166203D01*
X3461308Y7166559D01*
X3456889Y7167778D01*
X3443935Y7169556D01*
X3430879Y7169556D01*
X3417874Y7167778D01*
X3405276Y7164222D01*
X3393287Y7159040D01*
X3382111Y7152233D01*
X3371951Y7143953D01*
X3363010Y7134402D01*
X3355492Y7123734D01*
X3349447Y7112101D01*
X3345078Y7099757D01*
X3342386Y7086955D01*
X3341522Y7073900D01*
X3342386Y7060844D01*
X3345078Y7048042D01*
X3349447Y7035698D01*
X3355492Y7024065D01*
X3363010Y7013397D01*
X3371951Y7003846D01*
X3382111Y6995566D01*
X3393287Y6988759D01*
X3405276Y6983526D01*
X3417874Y6980021D01*
G37*
G36*
X2786532Y7046468D02*
G01*
X2856077Y7046468D01*
X2856077Y7089546D01*
X2855366Y7095845D01*
X2853486Y7101331D01*
X2850388Y7106208D01*
X2846324Y7110323D01*
X2841396Y7113371D01*
X2835960Y7115302D01*
X2829610Y7116013D01*
X2786532Y7116013D01*
G37*
G36*
X1186535Y7046468D02*
G01*
X1256131Y7046468D01*
X1256131Y7089546D01*
X1255369Y7095845D01*
X1253490Y7101331D01*
X1250391Y7106208D01*
X1246327Y7110323D01*
X1241399Y7113371D01*
X1235964Y7115302D01*
X1229614Y7116013D01*
X1186535Y7116013D01*
G37*
G36*
X2604312Y7046468D02*
G01*
X2673858Y7046468D01*
X2673858Y7116013D01*
X2630779Y7116013D01*
X2624429Y7115302D01*
X2618994Y7113371D01*
X2614066Y7110323D01*
X2610002Y7106208D01*
X2606903Y7101331D01*
X2605024Y7095845D01*
X2604312Y7089546D01*
G37*
G36*
X1004316Y7046468D02*
G01*
X1073861Y7046468D01*
X1073861Y7116013D01*
X1030782Y7116013D01*
X1024432Y7115302D01*
X1018997Y7113371D01*
X1014069Y7110323D01*
X1010005Y7106208D01*
X1006906Y7101331D01*
X1005027Y7095845D01*
X1004316Y7089546D01*
G37*
G36*
X7334656Y7135317D02*
G01*
X7334656Y7182256D01*
X7287717Y7182256D01*
X7289901Y7177633D01*
X7297166Y7166203D01*
X7305903Y7155891D01*
X7315911Y7146798D01*
X7327087Y7139178D01*
G37*
G36*
X7422743Y7135317D02*
G01*
X7430312Y7139178D01*
X7441488Y7146798D01*
X7451496Y7155891D01*
X7460234Y7166203D01*
X7467498Y7177633D01*
X7469682Y7182256D01*
X7422743Y7182256D01*
G37*
G36*
X7287615Y7270343D02*
G01*
X7334656Y7270343D01*
X7334656Y7317384D01*
X7333030Y7316724D01*
X7321397Y7309815D01*
X7310780Y7301433D01*
X7301331Y7291679D01*
X7293305Y7280808D01*
G37*
G36*
X7422743Y7270343D02*
G01*
X7469784Y7270343D01*
X7464094Y7280808D01*
X7456068Y7291679D01*
X7446619Y7301433D01*
X7436002Y7309815D01*
X7424369Y7316724D01*
X7422743Y7317384D01*
G37*
G36*
X4154830Y7355484D02*
G01*
X4154830Y7406030D01*
X4104233Y7406030D01*
X4110786Y7394397D01*
X4119270Y7383018D01*
X4129125Y7372807D01*
X4140250Y7363968D01*
X4152392Y7356602D01*
G37*
G36*
X4252569Y7355586D02*
G01*
X4261205Y7360056D01*
X4272838Y7368184D01*
X4283354Y7377734D01*
X4292549Y7388555D01*
X4300321Y7400493D01*
X4303014Y7406030D01*
X4252569Y7406030D01*
G37*
G36*
X7378700Y7379004D02*
G01*
X7392212Y7379919D01*
X7405471Y7382611D01*
X7418222Y7387031D01*
X7430312Y7393178D01*
X7441488Y7400798D01*
X7451496Y7409891D01*
X7460234Y7420203D01*
X7467498Y7431633D01*
X7473238Y7443876D01*
X7477201Y7456830D01*
X7479487Y7470140D01*
X7479944Y7483703D01*
X7478572Y7497165D01*
X7475423Y7510322D01*
X7470597Y7522921D01*
X7464094Y7534808D01*
X7456068Y7545679D01*
X7446619Y7555433D01*
X7436002Y7563815D01*
X7424369Y7570724D01*
X7411923Y7575956D01*
X7398867Y7579563D01*
X7385456Y7581341D01*
X7371943Y7581341D01*
X7358532Y7579563D01*
X7345476Y7575956D01*
X7333030Y7570724D01*
X7321397Y7563815D01*
X7310780Y7555433D01*
X7301331Y7545679D01*
X7293305Y7534808D01*
X7286802Y7522921D01*
X7281976Y7510322D01*
X7278827Y7497165D01*
X7277455Y7483703D01*
X7277912Y7470140D01*
X7280198Y7456830D01*
X7284161Y7443876D01*
X7289901Y7431633D01*
X7297166Y7420203D01*
X7305903Y7409891D01*
X7315911Y7400798D01*
X7327087Y7393178D01*
X7339177Y7387031D01*
X7351928Y7382611D01*
X7365187Y7379919D01*
G37*
G36*
X1554073Y7457948D02*
G01*
X1570126Y7457948D01*
X1586128Y7459776D01*
X1601774Y7463434D01*
X1616964Y7468819D01*
X1631391Y7475931D01*
X1644904Y7484618D01*
X1657350Y7494778D01*
X1668576Y7506360D01*
X1678381Y7519060D01*
X1686712Y7532827D01*
X1688490Y7536738D01*
X1690725Y7539888D01*
X1693925Y7541971D01*
X1697736Y7542682D01*
X1768754Y7542682D01*
X1773834Y7542885D01*
X1778660Y7543546D01*
X1783435Y7544612D01*
X1788058Y7546035D01*
X1792579Y7547914D01*
X1796897Y7550200D01*
X1801012Y7552791D01*
X1804873Y7555788D01*
X1808632Y7559192D01*
X2317851Y8068411D01*
X2321153Y8070596D01*
X2325014Y8071408D01*
X2328926Y8070596D01*
X2332228Y8068411D01*
X2334412Y8065109D01*
X2335174Y8061248D01*
X2335174Y8051292D01*
X2335885Y8044942D01*
X2337816Y8039506D01*
X2340914Y8034578D01*
X2344978Y8030514D01*
X2349906Y8027416D01*
X2355342Y8025485D01*
X2361692Y8024774D01*
X2540508Y8024774D01*
X2546858Y8025485D01*
X2552293Y8027416D01*
X2557221Y8030514D01*
X2561285Y8034578D01*
X2564384Y8039506D01*
X2566314Y8044942D01*
X2567025Y8051292D01*
X2567025Y8230108D01*
X2566314Y8236458D01*
X2564384Y8241893D01*
X2561285Y8246821D01*
X2557221Y8250885D01*
X2552293Y8253984D01*
X2546858Y8255914D01*
X2540508Y8256625D01*
X2361692Y8256625D01*
X2355342Y8255914D01*
X2349906Y8253984D01*
X2344978Y8250885D01*
X2340914Y8246821D01*
X2337816Y8241893D01*
X2335885Y8236458D01*
X2335174Y8230108D01*
X2335174Y8206790D01*
X2334412Y8202879D01*
X2332228Y8199577D01*
X2328926Y8197392D01*
X2325014Y8196630D01*
X2311298Y8196630D01*
X2306218Y8196376D01*
X2301341Y8195767D01*
X2296617Y8194700D01*
X2291943Y8193227D01*
X2287473Y8191347D01*
X2283104Y8189112D01*
X2278989Y8186470D01*
X2275128Y8183524D01*
X2271369Y8180070D01*
X1748789Y7657490D01*
X1745488Y7655255D01*
X1741576Y7654493D01*
X1697786Y7654493D01*
X1694180Y7655153D01*
X1691030Y7657033D01*
X1688795Y7659928D01*
X1682750Y7671358D01*
X1673656Y7684617D01*
X1663141Y7696809D01*
X1651304Y7707680D01*
X1638249Y7717129D01*
X1624279Y7725054D01*
X1609445Y7731302D01*
X1594002Y7735824D01*
X1578152Y7738567D01*
X1562100Y7739481D01*
X1546047Y7738567D01*
X1530197Y7735824D01*
X1514754Y7731302D01*
X1499920Y7725054D01*
X1485950Y7717129D01*
X1472895Y7707680D01*
X1461058Y7696809D01*
X1450543Y7684617D01*
X1441450Y7671358D01*
X1433931Y7657134D01*
X1428089Y7642148D01*
X1424025Y7626603D01*
X1421739Y7610652D01*
X1421282Y7594600D01*
X1422654Y7578547D01*
X1425854Y7562799D01*
X1430832Y7547508D01*
X1437487Y7532827D01*
X1445818Y7519060D01*
X1455623Y7506360D01*
X1466850Y7494778D01*
X1479296Y7484618D01*
X1492808Y7475931D01*
X1507236Y7468819D01*
X1522425Y7463434D01*
X1538071Y7459776D01*
G37*
G36*
X4252569Y7503769D02*
G01*
X4303014Y7503769D01*
X4300321Y7509306D01*
X4292549Y7521244D01*
X4283354Y7532065D01*
X4272838Y7541615D01*
X4261205Y7549743D01*
X4252569Y7554214D01*
G37*
G36*
X4104233Y7503769D02*
G01*
X4154830Y7503769D01*
X4154830Y7554315D01*
X4152392Y7553198D01*
X4140250Y7545831D01*
X4129125Y7536992D01*
X4119270Y7526781D01*
X4110786Y7515402D01*
G37*
G36*
X7378700Y7633004D02*
G01*
X7392212Y7633919D01*
X7405471Y7636611D01*
X7418222Y7641031D01*
X7430312Y7647178D01*
X7441488Y7654798D01*
X7451496Y7663891D01*
X7460234Y7674203D01*
X7467498Y7685633D01*
X7473238Y7697876D01*
X7477201Y7710830D01*
X7479487Y7724140D01*
X7479944Y7737703D01*
X7478572Y7751165D01*
X7475423Y7764322D01*
X7470597Y7776921D01*
X7464094Y7788808D01*
X7456068Y7799679D01*
X7446619Y7809433D01*
X7436002Y7817815D01*
X7424369Y7824724D01*
X7411923Y7829956D01*
X7398867Y7833563D01*
X7385456Y7835341D01*
X7371943Y7835341D01*
X7358532Y7833563D01*
X7345476Y7829956D01*
X7333030Y7824724D01*
X7321397Y7817815D01*
X7310780Y7809433D01*
X7301331Y7799679D01*
X7293305Y7788808D01*
X7286802Y7776921D01*
X7281976Y7764322D01*
X7278827Y7751165D01*
X7277455Y7737703D01*
X7277912Y7724140D01*
X7280198Y7710830D01*
X7284161Y7697876D01*
X7289901Y7685633D01*
X7297166Y7674203D01*
X7305903Y7663891D01*
X7315911Y7654798D01*
X7327087Y7647178D01*
X7339177Y7641031D01*
X7351928Y7636611D01*
X7365187Y7633919D01*
G37*
G36*
X4493564Y7740243D02*
G01*
X4506620Y7740243D01*
X4519625Y7742021D01*
X4532223Y7745526D01*
X4544212Y7750759D01*
X4555388Y7757566D01*
X4565548Y7765846D01*
X4574489Y7775397D01*
X4582007Y7786065D01*
X4588052Y7797698D01*
X4592421Y7810042D01*
X4595114Y7822844D01*
X4595977Y7835900D01*
X4595114Y7848955D01*
X4592421Y7861757D01*
X4588052Y7874101D01*
X4582007Y7885734D01*
X4574489Y7896402D01*
X4565548Y7905953D01*
X4555388Y7914233D01*
X4544212Y7921040D01*
X4532223Y7926222D01*
X4519625Y7929778D01*
X4506620Y7931556D01*
X4493564Y7931556D01*
X4480610Y7929778D01*
X4468012Y7926222D01*
X4455972Y7921040D01*
X4444796Y7914233D01*
X4434636Y7905953D01*
X4425746Y7896402D01*
X4418177Y7885734D01*
X4412132Y7874101D01*
X4407763Y7861757D01*
X4405122Y7848955D01*
X4404207Y7835900D01*
X4405122Y7822844D01*
X4407763Y7810042D01*
X4412132Y7797698D01*
X4418177Y7786065D01*
X4425746Y7775397D01*
X4434636Y7765846D01*
X4444796Y7757566D01*
X4455972Y7750759D01*
X4468012Y7745526D01*
X4480610Y7742021D01*
G37*
G36*
X3443579Y7740243D02*
G01*
X3456635Y7740243D01*
X3469589Y7742021D01*
X3482187Y7745526D01*
X3494227Y7750759D01*
X3505403Y7757566D01*
X3515563Y7765846D01*
X3524453Y7775397D01*
X3532022Y7786065D01*
X3538067Y7797698D01*
X3542436Y7810042D01*
X3545078Y7822844D01*
X3545992Y7835900D01*
X3545078Y7848955D01*
X3542690Y7860588D01*
X3542537Y7863941D01*
X3543503Y7867142D01*
X3545433Y7869834D01*
X3727551Y8052003D01*
X3732580Y8058658D01*
X3736136Y8065820D01*
X3738321Y8073542D01*
X3739134Y8081975D01*
X3739134Y8095843D01*
X3739896Y8099704D01*
X3742080Y8103006D01*
X3745382Y8105241D01*
X3749294Y8106003D01*
X3780129Y8106003D01*
X3786428Y8106714D01*
X3791915Y8108594D01*
X3796792Y8111693D01*
X3800906Y8115808D01*
X3804005Y8120684D01*
X3805885Y8126171D01*
X3806596Y8132470D01*
X3806596Y8301329D01*
X3805885Y8307628D01*
X3804005Y8313115D01*
X3800906Y8317992D01*
X3796792Y8322106D01*
X3791915Y8325205D01*
X3786428Y8327085D01*
X3780129Y8327796D01*
X3611270Y8327796D01*
X3604971Y8327085D01*
X3599484Y8325205D01*
X3594608Y8322106D01*
X3590493Y8317992D01*
X3587394Y8313115D01*
X3585514Y8307628D01*
X3584803Y8301329D01*
X3584803Y8132470D01*
X3585514Y8126171D01*
X3587394Y8120684D01*
X3590493Y8115808D01*
X3594608Y8111693D01*
X3599484Y8108594D01*
X3604971Y8106714D01*
X3611270Y8106003D01*
X3634282Y8106003D01*
X3638194Y8105241D01*
X3641445Y8103006D01*
X3643680Y8099704D01*
X3644442Y8095843D01*
X3643680Y8091931D01*
X3641445Y8088630D01*
X3483965Y7931150D01*
X3481019Y7929118D01*
X3477564Y7928203D01*
X3474008Y7928559D01*
X3469589Y7929778D01*
X3456635Y7931556D01*
X3443579Y7931556D01*
X3430574Y7929778D01*
X3417976Y7926222D01*
X3405987Y7921040D01*
X3394811Y7914233D01*
X3384651Y7905953D01*
X3375710Y7896402D01*
X3368192Y7885734D01*
X3362147Y7874101D01*
X3357778Y7861757D01*
X3355086Y7848955D01*
X3354222Y7835900D01*
X3355086Y7822844D01*
X3357778Y7810042D01*
X3362147Y7797698D01*
X3368192Y7786065D01*
X3375710Y7775397D01*
X3384651Y7765846D01*
X3394811Y7757566D01*
X3405987Y7750759D01*
X3417976Y7745526D01*
X3430574Y7742021D01*
G37*
G36*
X7303871Y7887004D02*
G01*
X7453528Y7887004D01*
X7459827Y7887716D01*
X7465314Y7889595D01*
X7470190Y7892694D01*
X7474305Y7896809D01*
X7477404Y7901686D01*
X7479284Y7907172D01*
X7479995Y7913471D01*
X7479995Y8063128D01*
X7479284Y8069427D01*
X7477404Y8074914D01*
X7474305Y8079790D01*
X7470190Y8083905D01*
X7465314Y8087004D01*
X7459827Y8088884D01*
X7453528Y8089595D01*
X7303871Y8089595D01*
X7297572Y8088884D01*
X7292086Y8087004D01*
X7287209Y8083905D01*
X7283094Y8079790D01*
X7279995Y8074914D01*
X7278116Y8069427D01*
X7277404Y8063128D01*
X7277404Y7913471D01*
X7278116Y7907172D01*
X7279995Y7901686D01*
X7283094Y7896809D01*
X7287209Y7892694D01*
X7292086Y7889595D01*
X7297572Y7887716D01*
G37*
G36*
X1498244Y7973263D02*
G01*
X1498244Y8034731D01*
X1436624Y8034731D01*
X1437487Y8032851D01*
X1445818Y8019084D01*
X1455623Y8006334D01*
X1466850Y7994802D01*
X1479296Y7984591D01*
X1492808Y7975904D01*
G37*
G36*
X1625955Y7973263D02*
G01*
X1631391Y7975904D01*
X1644904Y7984591D01*
X1657350Y7994802D01*
X1668576Y8006334D01*
X1678381Y8019084D01*
X1686712Y8032851D01*
X1687575Y8034731D01*
X1625955Y8034731D01*
G37*
G36*
X5027269Y8104784D02*
G01*
X5029708Y8105902D01*
X5041849Y8113268D01*
X5052974Y8122107D01*
X5062829Y8132318D01*
X5071313Y8143697D01*
X5077866Y8155330D01*
X5027269Y8155330D01*
G37*
G36*
X4929530Y8104886D02*
G01*
X4929530Y8155330D01*
X4879086Y8155330D01*
X4881778Y8149793D01*
X4889550Y8137855D01*
X4898745Y8127034D01*
X4909261Y8117484D01*
X4920894Y8109356D01*
G37*
G36*
X4154830Y8117484D02*
G01*
X4154830Y8168030D01*
X4104233Y8168030D01*
X4110786Y8156397D01*
X4119270Y8145018D01*
X4129125Y8134807D01*
X4140250Y8125968D01*
X4152392Y8118602D01*
G37*
G36*
X4252569Y8117586D02*
G01*
X4261205Y8122056D01*
X4272838Y8130184D01*
X4283354Y8139734D01*
X4292549Y8150555D01*
X4300321Y8162493D01*
X4303014Y8168030D01*
X4252569Y8168030D01*
G37*
G36*
X1625955Y8162442D02*
G01*
X1687474Y8162442D01*
X1682750Y8171332D01*
X1673656Y8184642D01*
X1663141Y8196783D01*
X1651304Y8207654D01*
X1638249Y8217103D01*
X1625955Y8224062D01*
G37*
G36*
X1436725Y8162442D02*
G01*
X1498244Y8162442D01*
X1498244Y8224062D01*
X1485950Y8217103D01*
X1472895Y8207654D01*
X1461058Y8196783D01*
X1450543Y8184642D01*
X1441450Y8171332D01*
G37*
G36*
X4879086Y8253069D02*
G01*
X4929530Y8253069D01*
X4929530Y8303514D01*
X4920894Y8299043D01*
X4909261Y8290915D01*
X4898745Y8281365D01*
X4889550Y8270544D01*
X4881778Y8258606D01*
G37*
G36*
X5027269Y8253069D02*
G01*
X5077866Y8253069D01*
X5071313Y8264702D01*
X5062829Y8276081D01*
X5052974Y8286292D01*
X5041849Y8295131D01*
X5029708Y8302498D01*
X5027269Y8303615D01*
G37*
G36*
X4252569Y8265769D02*
G01*
X4303014Y8265769D01*
X4300321Y8271306D01*
X4292549Y8283244D01*
X4283354Y8294065D01*
X4272838Y8303615D01*
X4261205Y8311743D01*
X4252569Y8316214D01*
G37*
G36*
X4104233Y8265769D02*
G01*
X4154830Y8265769D01*
X4154830Y8316315D01*
X4152392Y8315198D01*
X4140250Y8307831D01*
X4129125Y8298992D01*
X4119270Y8288781D01*
X4110786Y8277402D01*
G37*

%LPD*%
G36*
X5275834Y5458256D02*
G01*
X5271922Y5459069D01*
X5268620Y5461254D01*
X4911039Y5818835D01*
X4908804Y5822238D01*
X4908042Y5826302D01*
X4909007Y5830265D01*
X4911394Y5833567D01*
X4914950Y5835650D01*
X4918964Y5836158D01*
X4922926Y5835040D01*
X4929530Y5831586D01*
X4929530Y5882030D01*
X4879136Y5882030D01*
X4882337Y5875477D01*
X4883353Y5871565D01*
X4882743Y5867552D01*
X4880610Y5864098D01*
X4877358Y5861761D01*
X4873396Y5860897D01*
X4869383Y5861608D01*
X4866030Y5863844D01*
X4546498Y6183376D01*
X4544263Y6186678D01*
X4543501Y6190589D01*
X4543501Y6220612D01*
X4544110Y6224016D01*
X4545787Y6227013D01*
X4548378Y6229299D01*
X4555388Y6233566D01*
X4565548Y6241846D01*
X4574489Y6251397D01*
X4582007Y6262065D01*
X4588052Y6273698D01*
X4592421Y6286042D01*
X4595114Y6298844D01*
X4595977Y6311900D01*
X4595114Y6324955D01*
X4592421Y6337757D01*
X4589526Y6345936D01*
X4588967Y6349949D01*
X4589983Y6353860D01*
X4592472Y6357061D01*
X4595977Y6359042D01*
X4599990Y6359499D01*
X4610049Y6358585D01*
X4619853Y6359448D01*
X4629353Y6361988D01*
X4638243Y6366154D01*
X4646269Y6371793D01*
X4653229Y6378752D01*
X4658868Y6386779D01*
X4663033Y6395669D01*
X4665573Y6405168D01*
X4666437Y6414973D01*
X4665573Y6424777D01*
X4663033Y6434277D01*
X4658868Y6443167D01*
X4655312Y6448247D01*
X4653940Y6451041D01*
X4653483Y6454089D01*
X4653432Y6952894D01*
X4652264Y6961174D01*
X4649724Y6968744D01*
X4645812Y6975754D01*
X4640427Y6982256D01*
X4582718Y7039965D01*
X4580788Y7042658D01*
X4579823Y7045858D01*
X4579975Y7049211D01*
X4582414Y7060844D01*
X4583277Y7073900D01*
X4582414Y7086955D01*
X4579721Y7099757D01*
X4575352Y7112101D01*
X4569307Y7123734D01*
X4561789Y7134402D01*
X4552848Y7143953D01*
X4542688Y7152233D01*
X4531512Y7159040D01*
X4519523Y7164222D01*
X4506925Y7167778D01*
X4502708Y7168337D01*
X4498492Y7169912D01*
X4495393Y7173163D01*
X4493971Y7177379D01*
X4494530Y7181850D01*
X4496917Y7185609D01*
X4575911Y7264653D01*
X4579213Y7266838D01*
X4583125Y7267600D01*
X4615230Y7267651D01*
X4623968Y7268870D01*
X4631994Y7271562D01*
X4639411Y7275677D01*
X4646269Y7281418D01*
X4875428Y7510525D01*
X4879136Y7512913D01*
X4883505Y7513472D01*
X4887722Y7512151D01*
X4890922Y7509154D01*
X4892598Y7505039D01*
X4892395Y7500670D01*
X4889550Y7495844D01*
X4881778Y7483906D01*
X4879086Y7478369D01*
X4929530Y7478369D01*
X4929530Y7528814D01*
X4920894Y7524343D01*
X4910328Y7516926D01*
X4906416Y7515301D01*
X4902149Y7515402D01*
X4898288Y7517282D01*
X4895545Y7520533D01*
X4894376Y7524648D01*
X4895037Y7528864D01*
X4897323Y7532471D01*
X5075834Y7710931D01*
X5079390Y7713268D01*
X5083556Y7713929D01*
X5087670Y7712811D01*
X5090922Y7710119D01*
X5092852Y7706309D01*
X5095646Y7695590D01*
X5099812Y7686700D01*
X5105450Y7678674D01*
X5112359Y7671714D01*
X5120436Y7666075D01*
X5129326Y7661909D01*
X5138826Y7659370D01*
X5148630Y7658506D01*
X5158384Y7659370D01*
X5167884Y7661909D01*
X5176774Y7666075D01*
X5181904Y7669631D01*
X5184648Y7671003D01*
X5187696Y7671460D01*
X5410860Y7671460D01*
X5414772Y7670698D01*
X5418074Y7668514D01*
X5528818Y7557770D01*
X5531002Y7554468D01*
X5531815Y7550556D01*
X5531002Y7546695D01*
X5528818Y7543393D01*
X5525516Y7541158D01*
X5521655Y7540396D01*
X5401970Y7540396D01*
X5395671Y7539685D01*
X5390184Y7537805D01*
X5385308Y7534706D01*
X5381193Y7530592D01*
X5378094Y7525715D01*
X5376214Y7520228D01*
X5375503Y7513929D01*
X5375503Y7345070D01*
X5376214Y7338771D01*
X5378094Y7333284D01*
X5381193Y7328408D01*
X5385308Y7324293D01*
X5390184Y7321194D01*
X5395671Y7319314D01*
X5401970Y7318603D01*
X5432856Y7318603D01*
X5436717Y7317841D01*
X5440019Y7315606D01*
X5442204Y7312304D01*
X5443016Y7308443D01*
X5443016Y7267041D01*
X5442204Y7263130D01*
X5440019Y7259828D01*
X5312562Y7132421D01*
X5309666Y7130389D01*
X5301081Y7128205D01*
X5297424Y7127900D01*
X5293868Y7128967D01*
X5290921Y7131202D01*
X5288991Y7134352D01*
X5288330Y7138009D01*
X5288330Y7328255D01*
X5288889Y7331659D01*
X5290616Y7334707D01*
X5293207Y7336942D01*
X5295849Y7338568D01*
X5306974Y7347407D01*
X5316829Y7357618D01*
X5325313Y7368997D01*
X5332323Y7381392D01*
X5337657Y7394549D01*
X5341264Y7408316D01*
X5343042Y7422388D01*
X5343042Y7436612D01*
X5341264Y7450683D01*
X5337657Y7464450D01*
X5332323Y7477607D01*
X5325313Y7490002D01*
X5316829Y7501381D01*
X5306974Y7511592D01*
X5295849Y7520431D01*
X5283708Y7527798D01*
X5270703Y7533538D01*
X5257088Y7537602D01*
X5243068Y7539888D01*
X5228844Y7540345D01*
X5214721Y7538974D01*
X5200853Y7535824D01*
X5187492Y7530896D01*
X5174894Y7524343D01*
X5163261Y7516215D01*
X5152745Y7506665D01*
X5143550Y7495844D01*
X5135778Y7483906D01*
X5129631Y7471105D01*
X5125161Y7457643D01*
X5122418Y7443673D01*
X5121503Y7429500D01*
X5122418Y7415326D01*
X5125161Y7401356D01*
X5129631Y7387894D01*
X5135778Y7375093D01*
X5143550Y7363155D01*
X5152745Y7352334D01*
X5163261Y7342784D01*
X5172151Y7336586D01*
X5174488Y7334351D01*
X5175961Y7331456D01*
X5176520Y7328255D01*
X5176520Y6950557D01*
X5176723Y6945477D01*
X5177332Y6940651D01*
X5178399Y6935876D01*
X5179872Y6931253D01*
X5181752Y6926732D01*
X5183987Y6922414D01*
X5186629Y6918299D01*
X5189575Y6914438D01*
X5193030Y6910679D01*
X5268518Y6835140D01*
X5270754Y6831888D01*
X5271516Y6827977D01*
X5270754Y6824065D01*
X5268518Y6820814D01*
X5251805Y6804050D01*
X5249214Y6802221D01*
X5246217Y6801205D01*
X5243017Y6801205D01*
X5230368Y6803288D01*
X5216144Y6803745D01*
X5202021Y6802374D01*
X5188153Y6799224D01*
X5174792Y6794296D01*
X5162194Y6787743D01*
X5150561Y6779615D01*
X5140045Y6770065D01*
X5130850Y6759244D01*
X5123078Y6747306D01*
X5116931Y6734505D01*
X5112461Y6721043D01*
X5109718Y6707073D01*
X5108803Y6692900D01*
X5109718Y6678726D01*
X5112461Y6664756D01*
X5116931Y6651294D01*
X5123078Y6638493D01*
X5130850Y6626555D01*
X5140045Y6615734D01*
X5150561Y6606184D01*
X5162194Y6598056D01*
X5174792Y6591503D01*
X5188153Y6586575D01*
X5202021Y6583425D01*
X5216601Y6582105D01*
X5220563Y6581394D01*
X5223967Y6579260D01*
X5226253Y6575958D01*
X5227066Y6572046D01*
X5226354Y6568084D01*
X5224119Y6564731D01*
X5004968Y6345580D01*
X5001666Y6343396D01*
X4997754Y6342583D01*
X4875022Y6342583D01*
X4871415Y6343294D01*
X4868265Y6345174D01*
X4857953Y6359702D01*
X4849063Y6369253D01*
X4838903Y6377533D01*
X4827727Y6384340D01*
X4815687Y6389522D01*
X4803089Y6393078D01*
X4790135Y6394856D01*
X4777079Y6394856D01*
X4764074Y6393078D01*
X4751476Y6389522D01*
X4739487Y6384340D01*
X4728311Y6377533D01*
X4718151Y6369253D01*
X4709210Y6359702D01*
X4701692Y6349034D01*
X4695647Y6337401D01*
X4691278Y6325057D01*
X4688586Y6312255D01*
X4687722Y6299200D01*
X4688586Y6286144D01*
X4691278Y6273342D01*
X4695647Y6260998D01*
X4701692Y6249365D01*
X4709210Y6238697D01*
X4718151Y6229146D01*
X4728311Y6220866D01*
X4739487Y6214059D01*
X4751476Y6208826D01*
X4764074Y6205321D01*
X4777079Y6203543D01*
X4790135Y6203543D01*
X4803089Y6205321D01*
X4815687Y6208826D01*
X4827727Y6214059D01*
X4838903Y6220866D01*
X4849063Y6229146D01*
X4857953Y6238697D01*
X4868265Y6253226D01*
X4871415Y6255105D01*
X4875022Y6255766D01*
X5021630Y6255816D01*
X5029860Y6256985D01*
X5037480Y6259525D01*
X5044440Y6263436D01*
X5050993Y6268821D01*
X5365191Y6583019D01*
X5368899Y6585407D01*
X5373268Y6585966D01*
X5382971Y6582714D01*
X5389270Y6582003D01*
X5542737Y6582003D01*
X5546598Y6581241D01*
X5549900Y6579006D01*
X5552084Y6575704D01*
X5552897Y6571843D01*
X5552897Y6334658D01*
X5552084Y6330746D01*
X5549900Y6327444D01*
X5302504Y6080048D01*
X5299049Y6076289D01*
X5296103Y6072428D01*
X5293461Y6068314D01*
X5291226Y6063996D01*
X5289346Y6059474D01*
X5287873Y6054852D01*
X5286857Y6050280D01*
X5286197Y6042761D01*
X5285130Y6039104D01*
X5282742Y6036056D01*
X5279440Y6034125D01*
X5275681Y6033566D01*
X5257088Y6039002D01*
X5243068Y6041288D01*
X5228844Y6041745D01*
X5214721Y6040374D01*
X5200853Y6037224D01*
X5187492Y6032296D01*
X5174894Y6025743D01*
X5163261Y6017615D01*
X5152745Y6008065D01*
X5143550Y5997244D01*
X5135778Y5985306D01*
X5129631Y5972505D01*
X5125161Y5959043D01*
X5122418Y5945073D01*
X5121503Y5930900D01*
X5122418Y5916726D01*
X5125161Y5902756D01*
X5129631Y5889294D01*
X5135778Y5876493D01*
X5143550Y5864555D01*
X5152745Y5853734D01*
X5163261Y5844184D01*
X5174894Y5836056D01*
X5187492Y5829503D01*
X5200853Y5824575D01*
X5214721Y5821426D01*
X5228844Y5820054D01*
X5243068Y5820511D01*
X5257088Y5822797D01*
X5275630Y5828131D01*
X5279542Y5827420D01*
X5282946Y5825236D01*
X5285181Y5821934D01*
X5285994Y5817971D01*
X5285994Y5468416D01*
X5285181Y5464556D01*
X5282996Y5461254D01*
X5279694Y5459069D01*
G37*

%LPC*%
G36*
X5027269Y5831484D02*
G01*
X5029708Y5832602D01*
X5041849Y5839968D01*
X5052974Y5848807D01*
X5062829Y5859018D01*
X5071313Y5870397D01*
X5077866Y5882030D01*
X5027269Y5882030D01*
G37*
G36*
X4879086Y5979769D02*
G01*
X4929530Y5979769D01*
X4929530Y6030214D01*
X4920894Y6025743D01*
X4909261Y6017615D01*
X4898745Y6008065D01*
X4889550Y5997244D01*
X4881778Y5985306D01*
G37*
G36*
X5027269Y5979769D02*
G01*
X5077866Y5979769D01*
X5071313Y5991402D01*
X5062829Y6002782D01*
X5052974Y6012992D01*
X5041849Y6021832D01*
X5029708Y6029198D01*
X5027269Y6030315D01*
G37*
G36*
X5014569Y6593484D02*
G01*
X5017008Y6594602D01*
X5029149Y6601968D01*
X5040274Y6610807D01*
X5050129Y6621018D01*
X5058613Y6632397D01*
X5065166Y6644030D01*
X5014569Y6644030D01*
G37*
G36*
X4916830Y6593586D02*
G01*
X4916830Y6644030D01*
X4866386Y6644030D01*
X4869078Y6638493D01*
X4876850Y6626555D01*
X4886045Y6615734D01*
X4896561Y6606184D01*
X4908194Y6598056D01*
G37*
G36*
X4866386Y6741769D02*
G01*
X4916830Y6741769D01*
X4916830Y6792214D01*
X4908194Y6787743D01*
X4896561Y6779615D01*
X4886045Y6770065D01*
X4876850Y6759244D01*
X4869078Y6747306D01*
G37*
G36*
X5014569Y6741769D02*
G01*
X5065166Y6741769D01*
X5058613Y6753402D01*
X5050129Y6764781D01*
X5040274Y6774992D01*
X5029149Y6783831D01*
X5017008Y6791198D01*
X5014569Y6792315D01*
G37*
G36*
X4777079Y6978243D02*
G01*
X4790135Y6978243D01*
X4803089Y6980021D01*
X4815687Y6983526D01*
X4827727Y6988759D01*
X4838903Y6995566D01*
X4849063Y7003846D01*
X4857953Y7013397D01*
X4865522Y7024065D01*
X4871567Y7035698D01*
X4875936Y7048042D01*
X4878578Y7060844D01*
X4879492Y7073900D01*
X4878578Y7086955D01*
X4875936Y7099757D01*
X4871567Y7112101D01*
X4865522Y7123734D01*
X4857953Y7134402D01*
X4849063Y7143953D01*
X4838903Y7152233D01*
X4827727Y7159040D01*
X4815687Y7164222D01*
X4803089Y7167778D01*
X4790135Y7169556D01*
X4777079Y7169556D01*
X4764074Y7167778D01*
X4751476Y7164222D01*
X4739487Y7159040D01*
X4728311Y7152233D01*
X4718151Y7143953D01*
X4709210Y7134402D01*
X4701692Y7123734D01*
X4695647Y7112101D01*
X4691278Y7099757D01*
X4688586Y7086955D01*
X4687722Y7073900D01*
X4688586Y7060844D01*
X4691278Y7048042D01*
X4695647Y7035698D01*
X4701692Y7024065D01*
X4709210Y7013397D01*
X4718151Y7003846D01*
X4728311Y6995566D01*
X4739487Y6988759D01*
X4751476Y6983526D01*
X4764074Y6980021D01*
G37*
G36*
X5027269Y7330084D02*
G01*
X5029708Y7331202D01*
X5041849Y7338568D01*
X5052974Y7347407D01*
X5062829Y7357618D01*
X5071313Y7368997D01*
X5077866Y7380630D01*
X5027269Y7380630D01*
G37*
G36*
X4929530Y7330186D02*
G01*
X4929530Y7380630D01*
X4879086Y7380630D01*
X4881778Y7375093D01*
X4889550Y7363155D01*
X4898745Y7352334D01*
X4909261Y7342784D01*
X4920894Y7334656D01*
G37*
G36*
X5027269Y7478369D02*
G01*
X5077866Y7478369D01*
X5071313Y7490002D01*
X5062829Y7501381D01*
X5052974Y7511592D01*
X5041849Y7520431D01*
X5029708Y7527798D01*
X5027269Y7528915D01*
G37*

%LPD*%
G36*
X5120132Y4048251D02*
G01*
X5116474Y4049217D01*
X5113426Y4051452D01*
X5111394Y4054652D01*
X5110734Y4058361D01*
X5110683Y4233265D01*
X5109514Y4241546D01*
X5106974Y4249115D01*
X5103063Y4256125D01*
X5097678Y4262628D01*
X4970170Y4390136D01*
X4967986Y4393438D01*
X4967224Y4397298D01*
X4967224Y4693615D01*
X4968138Y4697831D01*
X4970780Y4701336D01*
X4974590Y4703368D01*
X4978958Y4703622D01*
X4983022Y4702048D01*
X4991760Y4696206D01*
X4998364Y4692954D01*
X4998364Y4741570D01*
X4977384Y4741570D01*
X4973472Y4742332D01*
X4970170Y4744516D01*
X4967986Y4747818D01*
X4967224Y4751730D01*
X4967224Y4824069D01*
X4967986Y4827981D01*
X4970170Y4831283D01*
X4973472Y4833467D01*
X4977384Y4834229D01*
X4998364Y4834229D01*
X4998364Y4882845D01*
X4991760Y4879594D01*
X4983022Y4873752D01*
X4978958Y4872177D01*
X4974590Y4872431D01*
X4970780Y4874463D01*
X4968138Y4877968D01*
X4967224Y4882184D01*
X4967224Y5150967D01*
X4967986Y5154879D01*
X4970170Y5158181D01*
X5022799Y5210810D01*
X5027828Y5217515D01*
X5031384Y5224678D01*
X5033568Y5232349D01*
X5034381Y5240782D01*
X5034381Y5413654D01*
X5034838Y5416702D01*
X5036210Y5419445D01*
X5039766Y5424576D01*
X5043932Y5433466D01*
X5046472Y5442966D01*
X5046827Y5447030D01*
X5047843Y5450687D01*
X5050180Y5453735D01*
X5053482Y5455716D01*
X5057241Y5456326D01*
X5060950Y5455462D01*
X5064150Y5453329D01*
X5117998Y5399430D01*
X5120233Y5396128D01*
X5120995Y5392267D01*
X5120995Y4882997D01*
X5120081Y4878730D01*
X5117439Y4875276D01*
X5113578Y4873244D01*
X5109260Y4872939D01*
X5105196Y4874564D01*
X5097627Y4879594D01*
X5091023Y4882845D01*
X5091023Y4834229D01*
X5110835Y4834229D01*
X5114747Y4833467D01*
X5117998Y4831283D01*
X5120233Y4827981D01*
X5120995Y4824069D01*
X5120995Y4751730D01*
X5120233Y4747818D01*
X5117998Y4744516D01*
X5114747Y4742332D01*
X5110835Y4741570D01*
X5091023Y4741570D01*
X5091023Y4692954D01*
X5097627Y4696206D01*
X5105196Y4701235D01*
X5109260Y4702860D01*
X5113578Y4702556D01*
X5117439Y4700524D01*
X5120081Y4697069D01*
X5120995Y4692802D01*
X5121046Y4619599D01*
X5122214Y4611370D01*
X5124754Y4603750D01*
X5128615Y4596790D01*
X5134051Y4590237D01*
X5274919Y4449368D01*
X5277104Y4446066D01*
X5277916Y4442206D01*
X5277916Y4058462D01*
X5276951Y4054195D01*
X5274259Y4050690D01*
X5270398Y4048658D01*
X5265978Y4048455D01*
X5261914Y4050131D01*
X5251805Y4057243D01*
X5239207Y4063796D01*
X5225846Y4068724D01*
X5211978Y4071874D01*
X5197856Y4073245D01*
X5183632Y4072788D01*
X5169611Y4070502D01*
X5155996Y4066438D01*
X5142992Y4060698D01*
X5130850Y4053332D01*
X5127193Y4050436D01*
X5123891Y4048658D01*
G37*

%LPD*%
G36*
X6101130Y3979316D02*
G01*
X6096812Y3980332D01*
X6093307Y3983024D01*
X6091275Y3986987D01*
X6091123Y3991406D01*
X6092901Y3995470D01*
X6098489Y4003141D01*
X6104432Y4014317D01*
X6109919Y4029608D01*
X6111646Y4031945D01*
X6166866Y4087164D01*
X6170168Y4089400D01*
X6174079Y4090162D01*
X6182563Y4090162D01*
X6182563Y4098645D01*
X6183325Y4102506D01*
X6185509Y4105808D01*
X7096556Y5016855D01*
X7100011Y5020614D01*
X7102957Y5024475D01*
X7105599Y5028590D01*
X7107834Y5032908D01*
X7109714Y5037429D01*
X7111187Y5042103D01*
X7112253Y5046827D01*
X7112863Y5051704D01*
X7113117Y5056784D01*
X7113117Y5902960D01*
X7113879Y5906871D01*
X7116064Y5910173D01*
X7117334Y5911443D01*
X7126681Y5923381D01*
X7134555Y5936386D01*
X7140854Y5950305D01*
X7145324Y5964783D01*
X7148068Y5979718D01*
X7148982Y5994908D01*
X7148068Y6010097D01*
X7145324Y6025032D01*
X7140854Y6039459D01*
X7134555Y6053378D01*
X7126681Y6066434D01*
X7117334Y6078372D01*
X7106564Y6089142D01*
X7094626Y6098489D01*
X7083907Y6104991D01*
X7081316Y6107226D01*
X7079589Y6110274D01*
X7079030Y6113678D01*
X7079030Y6147511D01*
X7078776Y6152591D01*
X7078167Y6157417D01*
X7077100Y6162192D01*
X7075627Y6166815D01*
X7073747Y6171336D01*
X7071512Y6175654D01*
X7068870Y6179769D01*
X7065924Y6183630D01*
X7062470Y6187389D01*
X6863588Y6386322D01*
X6861911Y6388506D01*
X6860184Y6393992D01*
X6856018Y6403746D01*
X6850329Y6412738D01*
X6843318Y6420662D01*
X6835089Y6427368D01*
X6825894Y6432651D01*
X6815988Y6436410D01*
X6801916Y6439458D01*
X6798767Y6441694D01*
X6796684Y6444894D01*
X6795973Y6448704D01*
X6795973Y6570675D01*
X6796430Y6573570D01*
X6797649Y6576212D01*
X6803593Y6585356D01*
X6807657Y6594551D01*
X6810146Y6604304D01*
X6810959Y6614312D01*
X6810146Y6624370D01*
X6807657Y6634124D01*
X6803593Y6643319D01*
X6798106Y6651752D01*
X6791299Y6659118D01*
X6783374Y6665315D01*
X6774535Y6670090D01*
X6765036Y6673342D01*
X6755130Y6675018D01*
X6745071Y6675018D01*
X6735114Y6673342D01*
X6720535Y6668262D01*
X6716471Y6668668D01*
X6712966Y6670649D01*
X6710476Y6673850D01*
X6708394Y6678015D01*
X6700723Y6689547D01*
X6691579Y6699961D01*
X6681165Y6709105D01*
X6669633Y6716775D01*
X6657238Y6722922D01*
X6644081Y6727393D01*
X6630517Y6730085D01*
X6616700Y6731000D01*
X6602882Y6730085D01*
X6589318Y6727393D01*
X6576161Y6722922D01*
X6563766Y6716775D01*
X6558330Y6713169D01*
X6554266Y6711594D01*
X6549948Y6711848D01*
X6546088Y6713880D01*
X6543446Y6717385D01*
X6542531Y6721602D01*
X6542481Y7146645D01*
X6541363Y7154875D01*
X6538772Y7162495D01*
X6534912Y7169454D01*
X6529476Y7176008D01*
X5916218Y7789265D01*
X5914288Y7791958D01*
X5913323Y7795158D01*
X5913475Y7798511D01*
X5915914Y7810144D01*
X5916777Y7823200D01*
X5915914Y7836255D01*
X5913221Y7849057D01*
X5908852Y7861401D01*
X5902807Y7873034D01*
X5895289Y7883702D01*
X5886348Y7893253D01*
X5876188Y7901533D01*
X5865012Y7908340D01*
X5853023Y7913522D01*
X5840425Y7917078D01*
X5833160Y7918094D01*
X5829096Y7919567D01*
X5825998Y7922615D01*
X5824474Y7926679D01*
X5824778Y7930997D01*
X5826810Y7934807D01*
X5830316Y7937398D01*
X5834532Y7938312D01*
X6512763Y7938363D01*
X6521500Y7939582D01*
X6529527Y7942275D01*
X6536944Y7946390D01*
X6543802Y7952079D01*
X6594754Y8003031D01*
X6598005Y8005216D01*
X6601866Y8006029D01*
X6620408Y8001457D01*
X6634835Y7999628D01*
X6649364Y7999628D01*
X6663791Y8001457D01*
X6678523Y8005318D01*
X6682333Y8006029D01*
X6686194Y8005216D01*
X6689445Y8003031D01*
X6720179Y7972298D01*
X6722364Y7968996D01*
X6723125Y7965135D01*
X6723125Y7739481D01*
X6722262Y7735265D01*
X6719671Y7731810D01*
X6715912Y7729728D01*
X6711645Y7729372D01*
X6707631Y7730845D01*
X6704533Y7733842D01*
X6700723Y7739532D01*
X6691579Y7749946D01*
X6681165Y7759090D01*
X6669633Y7766812D01*
X6663029Y7770063D01*
X6663029Y7721447D01*
X6712966Y7721447D01*
X6716877Y7720685D01*
X6720179Y7718450D01*
X6722364Y7715148D01*
X6723125Y7711287D01*
X6723125Y7638897D01*
X6722364Y7635036D01*
X6720179Y7631734D01*
X6716877Y7629499D01*
X6712966Y7628737D01*
X6663029Y7628737D01*
X6663029Y7580122D01*
X6669633Y7583373D01*
X6681165Y7591094D01*
X6691579Y7600238D01*
X6700723Y7610652D01*
X6704533Y7616393D01*
X6707631Y7619339D01*
X6711645Y7620812D01*
X6715912Y7620457D01*
X6719671Y7618374D01*
X6722262Y7614920D01*
X6723125Y7610703D01*
X6723176Y7009180D01*
X6724396Y7000443D01*
X6727088Y6992416D01*
X6731203Y6985050D01*
X6736943Y6978142D01*
X6956602Y6758533D01*
X6958939Y6754825D01*
X6959498Y6750507D01*
X6958279Y6746341D01*
X6955383Y6743090D01*
X6951370Y6741363D01*
X6944918Y6740093D01*
X6931812Y6735622D01*
X6919366Y6729475D01*
X6907834Y6721805D01*
X6897420Y6712661D01*
X6888327Y6702247D01*
X6880606Y6690715D01*
X6874509Y6678320D01*
X6870039Y6665214D01*
X6867347Y6651599D01*
X6866432Y6637781D01*
X6867347Y6623964D01*
X6870039Y6610400D01*
X6874509Y6597294D01*
X6880606Y6584848D01*
X6888327Y6573316D01*
X6897420Y6562902D01*
X6907834Y6553809D01*
X6919366Y6546088D01*
X6931812Y6539992D01*
X6944918Y6535521D01*
X6958482Y6532829D01*
X6972300Y6531914D01*
X6986117Y6532829D01*
X6999731Y6535521D01*
X7012838Y6539992D01*
X7025233Y6546088D01*
X7036765Y6553809D01*
X7047179Y6562902D01*
X7056323Y6573316D01*
X7063994Y6584848D01*
X7070140Y6597294D01*
X7074611Y6610400D01*
X7075881Y6616852D01*
X7077608Y6620865D01*
X7080859Y6623761D01*
X7085025Y6624980D01*
X7089343Y6624421D01*
X7093051Y6622084D01*
X7585456Y6129629D01*
X7587843Y6125870D01*
X7588351Y6121450D01*
X7586929Y6117234D01*
X7583830Y6113983D01*
X7579664Y6112408D01*
X7575245Y6112764D01*
X7561224Y6117132D01*
X7546289Y6119876D01*
X7531100Y6120790D01*
X7515910Y6119876D01*
X7500975Y6117132D01*
X7486446Y6112611D01*
X7472578Y6106363D01*
X7459573Y6098489D01*
X7447635Y6089142D01*
X7436866Y6078372D01*
X7427518Y6066434D01*
X7419644Y6053378D01*
X7413345Y6039459D01*
X7408875Y6025032D01*
X7406131Y6010097D01*
X7405217Y5994908D01*
X7406131Y5979718D01*
X7408875Y5964783D01*
X7413345Y5950305D01*
X7419644Y5936386D01*
X7427518Y5923381D01*
X7436866Y5911443D01*
X7447635Y5900674D01*
X7459573Y5891276D01*
X7472578Y5883452D01*
X7486446Y5877204D01*
X7500975Y5872683D01*
X7515910Y5869940D01*
X7531100Y5869025D01*
X7546289Y5869940D01*
X7561224Y5872683D01*
X7575753Y5877204D01*
X7589621Y5883452D01*
X7602626Y5891276D01*
X7614564Y5900674D01*
X7625334Y5911443D01*
X7634681Y5923381D01*
X7642555Y5936386D01*
X7648854Y5950305D01*
X7651038Y5953455D01*
X7654290Y5955588D01*
X7658100Y5956300D01*
X7661909Y5955588D01*
X7665161Y5953455D01*
X7667345Y5950305D01*
X7673644Y5936386D01*
X7681518Y5923381D01*
X7690866Y5911443D01*
X7701635Y5900674D01*
X7713573Y5891276D01*
X7726578Y5883452D01*
X7740446Y5877204D01*
X7754975Y5872683D01*
X7769910Y5869940D01*
X7785100Y5869025D01*
X7800289Y5869940D01*
X7815224Y5872683D01*
X7829753Y5877204D01*
X7834223Y5879185D01*
X7838084Y5880100D01*
X7842046Y5879388D01*
X7845450Y5877255D01*
X7847685Y5873953D01*
X7848549Y5870041D01*
X7847787Y5866079D01*
X7845552Y5862726D01*
X7453223Y5470398D01*
X7448194Y5463692D01*
X7444638Y5456529D01*
X7442453Y5448858D01*
X7441692Y5440426D01*
X7441692Y4899812D01*
X7441184Y4896764D01*
X7439812Y4893970D01*
X7436256Y4888890D01*
X7432090Y4880000D01*
X7429550Y4870500D01*
X7428687Y4860696D01*
X7429550Y4850892D01*
X7432090Y4841392D01*
X7436256Y4832502D01*
X7441895Y4824476D01*
X7448854Y4817516D01*
X7456881Y4811877D01*
X7465822Y4807712D01*
X7475270Y4805172D01*
X7485075Y4804308D01*
X7494879Y4805172D01*
X7504379Y4807712D01*
X7513269Y4811877D01*
X7521295Y4817516D01*
X7528255Y4824476D01*
X7533894Y4832502D01*
X7538059Y4841392D01*
X7540599Y4850892D01*
X7541463Y4860696D01*
X7540599Y4870500D01*
X7538059Y4880000D01*
X7533894Y4888890D01*
X7530338Y4893970D01*
X7528966Y4896764D01*
X7528509Y4899812D01*
X7528509Y5418683D01*
X7529271Y5422595D01*
X7531455Y5425897D01*
X7981442Y5875883D01*
X7984845Y5878118D01*
X7988808Y5878830D01*
X7992821Y5877915D01*
X7994446Y5877204D01*
X8008975Y5872683D01*
X8023910Y5869940D01*
X8039100Y5869025D01*
X8054289Y5869940D01*
X8069224Y5872683D01*
X8083753Y5877204D01*
X8097621Y5883452D01*
X8110626Y5891276D01*
X8122564Y5900674D01*
X8133334Y5911443D01*
X8142681Y5923381D01*
X8150555Y5936386D01*
X8156854Y5950305D01*
X8159038Y5953455D01*
X8162290Y5955588D01*
X8166100Y5956300D01*
X8169909Y5955588D01*
X8173161Y5953455D01*
X8175345Y5950305D01*
X8181644Y5936386D01*
X8189518Y5923381D01*
X8198866Y5911443D01*
X8209635Y5900674D01*
X8221573Y5891276D01*
X8234578Y5883452D01*
X8248446Y5877204D01*
X8262975Y5872683D01*
X8277910Y5869940D01*
X8293100Y5869025D01*
X8308289Y5869940D01*
X8323224Y5872683D01*
X8337753Y5877204D01*
X8351621Y5883452D01*
X8364626Y5891276D01*
X8376564Y5900674D01*
X8387334Y5911443D01*
X8396681Y5923381D01*
X8404555Y5936386D01*
X8410854Y5950305D01*
X8413038Y5953455D01*
X8416290Y5955588D01*
X8420100Y5956300D01*
X8423910Y5955588D01*
X8427161Y5953455D01*
X8429345Y5950305D01*
X8435644Y5936386D01*
X8443518Y5923381D01*
X8452866Y5911443D01*
X8463635Y5900674D01*
X8475573Y5891276D01*
X8488578Y5883452D01*
X8497722Y5879338D01*
X8500872Y5877102D01*
X8502954Y5873851D01*
X8503716Y5870092D01*
X8503716Y5628995D01*
X8502904Y5625084D01*
X8500719Y5621782D01*
X7649413Y4770475D01*
X7646517Y4768443D01*
X7633004Y4764938D01*
X7624114Y4760772D01*
X7616037Y4755184D01*
X7609128Y4748225D01*
X7603490Y4740148D01*
X7599324Y4731258D01*
X7596784Y4721758D01*
X7595920Y4711954D01*
X7596784Y4702200D01*
X7599324Y4692700D01*
X7603490Y4683810D01*
X7609128Y4675733D01*
X7616037Y4668774D01*
X7624114Y4663186D01*
X7633004Y4659020D01*
X7642504Y4656480D01*
X7652308Y4655616D01*
X7662062Y4656480D01*
X7671562Y4659020D01*
X7680452Y4663186D01*
X7688529Y4668774D01*
X7695488Y4675733D01*
X7701127Y4683810D01*
X7705242Y4692700D01*
X7708747Y4706213D01*
X7710779Y4709109D01*
X8219643Y5217972D01*
X8222945Y5220157D01*
X8226856Y5220919D01*
X8230717Y5220157D01*
X8234019Y5217972D01*
X8236203Y5214670D01*
X8237016Y5210759D01*
X8237016Y4594707D01*
X8236254Y4590948D01*
X8234172Y4587697D01*
X8231022Y4585462D01*
X8221878Y4581347D01*
X8208873Y4573524D01*
X8196935Y4564126D01*
X8186166Y4553356D01*
X8176818Y4541418D01*
X8168944Y4528413D01*
X8162645Y4514494D01*
X8160461Y4511344D01*
X8157209Y4509211D01*
X8153400Y4508500D01*
X8149590Y4509211D01*
X8146338Y4511344D01*
X8144154Y4514494D01*
X8137855Y4528413D01*
X8129981Y4541418D01*
X8120634Y4553356D01*
X8109864Y4564126D01*
X8097926Y4573524D01*
X8084921Y4581347D01*
X8071053Y4587595D01*
X8056524Y4592116D01*
X8041589Y4594860D01*
X8026400Y4595774D01*
X8011210Y4594860D01*
X7996275Y4592116D01*
X7981746Y4587595D01*
X7967878Y4581347D01*
X7954873Y4573524D01*
X7942935Y4564126D01*
X7932166Y4553356D01*
X7922818Y4541418D01*
X7914944Y4528413D01*
X7908645Y4514494D01*
X7904175Y4500016D01*
X7901431Y4485081D01*
X7900517Y4469892D01*
X7901431Y4454702D01*
X7904175Y4439767D01*
X7908239Y4426712D01*
X7909458Y4423613D01*
X7910322Y4419650D01*
X7909610Y4415637D01*
X7907375Y4412234D01*
X7904530Y4409440D01*
X7901178Y4407204D01*
X7897266Y4406442D01*
X7893354Y4407255D01*
X7890052Y4409541D01*
X7887766Y4413554D01*
X7828737Y4413554D01*
X7828737Y4354525D01*
X7832750Y4352239D01*
X7835036Y4348937D01*
X7835849Y4345025D01*
X7835087Y4341114D01*
X7832902Y4337761D01*
X7477455Y3982313D01*
X7474153Y3980129D01*
X7470241Y3979316D01*
X6301130Y3979316D01*
X6296812Y3980332D01*
X6293307Y3983024D01*
X6291275Y3986987D01*
X6291122Y3991406D01*
X6292900Y3995470D01*
X6298488Y4003141D01*
X6303416Y4012437D01*
X6260236Y4012437D01*
X6260236Y3989476D01*
X6259474Y3985615D01*
X6257290Y3982313D01*
X6253988Y3980129D01*
X6250076Y3979316D01*
X6192723Y3979316D01*
X6188811Y3980129D01*
X6185509Y3982313D01*
X6183325Y3985615D01*
X6182563Y3989476D01*
X6182563Y4012437D01*
X6139434Y4012437D01*
X6141161Y4008628D01*
X6147866Y3997858D01*
X6149441Y3996029D01*
X6151270Y3992676D01*
X6151778Y3988917D01*
X6150864Y3985209D01*
X6148628Y3982110D01*
X6145377Y3980078D01*
X6141618Y3979316D01*
G37*

%LPC*%
G36*
X6260236Y4090162D02*
G01*
X6303416Y4090162D01*
X6298488Y4099458D01*
X6291021Y4109720D01*
X6282232Y4118864D01*
X6272225Y4126636D01*
X6261252Y4132986D01*
X6260236Y4133392D01*
G37*
G36*
X6995464Y4204157D02*
G01*
X7005523Y4204157D01*
X7015429Y4205782D01*
X7024928Y4209084D01*
X7033768Y4213860D01*
X7037527Y4216755D01*
X7040473Y4218330D01*
X7043724Y4218889D01*
X7061200Y4218940D01*
X7069836Y4220159D01*
X7077862Y4222851D01*
X7085228Y4226966D01*
X7092137Y4232706D01*
X7209231Y4349800D01*
X7212228Y4351883D01*
X7215784Y4352747D01*
X7219442Y4352290D01*
X7234275Y4347667D01*
X7249210Y4344924D01*
X7264400Y4344009D01*
X7279589Y4344924D01*
X7294524Y4347667D01*
X7309053Y4352188D01*
X7322921Y4358436D01*
X7335926Y4366310D01*
X7347864Y4375658D01*
X7358634Y4386427D01*
X7367981Y4398365D01*
X7375855Y4411421D01*
X7382154Y4425340D01*
X7384338Y4428490D01*
X7387590Y4430572D01*
X7391400Y4431284D01*
X7395209Y4430572D01*
X7398461Y4428490D01*
X7400645Y4425340D01*
X7406944Y4411421D01*
X7414818Y4398365D01*
X7424166Y4386427D01*
X7434935Y4375658D01*
X7446873Y4366310D01*
X7459878Y4358436D01*
X7473746Y4352188D01*
X7488275Y4347667D01*
X7503210Y4344924D01*
X7518400Y4344009D01*
X7533589Y4344924D01*
X7548524Y4347667D01*
X7563053Y4352188D01*
X7576921Y4358436D01*
X7589926Y4366310D01*
X7601864Y4375658D01*
X7612634Y4386427D01*
X7621981Y4398365D01*
X7629855Y4411421D01*
X7636154Y4425340D01*
X7640624Y4439767D01*
X7643368Y4454702D01*
X7644282Y4469892D01*
X7643368Y4485081D01*
X7640624Y4500016D01*
X7636154Y4514494D01*
X7629855Y4528413D01*
X7621981Y4541418D01*
X7612634Y4553356D01*
X7601864Y4564126D01*
X7589926Y4573524D01*
X7576921Y4581347D01*
X7563053Y4587595D01*
X7548524Y4592116D01*
X7533589Y4594860D01*
X7518400Y4595774D01*
X7503210Y4594860D01*
X7488275Y4592116D01*
X7473746Y4587595D01*
X7459878Y4581347D01*
X7446873Y4573524D01*
X7434935Y4564126D01*
X7424166Y4553356D01*
X7414818Y4541418D01*
X7406944Y4528413D01*
X7400645Y4514494D01*
X7398461Y4511344D01*
X7395209Y4509211D01*
X7391400Y4508500D01*
X7387590Y4509211D01*
X7384338Y4511344D01*
X7382154Y4514494D01*
X7375855Y4528413D01*
X7367981Y4541418D01*
X7358634Y4553356D01*
X7347864Y4564126D01*
X7335926Y4573524D01*
X7322921Y4581347D01*
X7309053Y4587595D01*
X7294524Y4592116D01*
X7279589Y4594860D01*
X7264400Y4595774D01*
X7249210Y4594860D01*
X7234275Y4592116D01*
X7219746Y4587595D01*
X7205878Y4581347D01*
X7192873Y4573524D01*
X7180935Y4564126D01*
X7170166Y4553356D01*
X7160818Y4541418D01*
X7152944Y4528413D01*
X7146696Y4514545D01*
X7142175Y4500016D01*
X7139431Y4485081D01*
X7138517Y4469892D01*
X7139431Y4454702D01*
X7142175Y4439767D01*
X7146798Y4424883D01*
X7147255Y4421276D01*
X7146391Y4417720D01*
X7144308Y4414723D01*
X7129830Y4400245D01*
X7126579Y4398060D01*
X7122668Y4397298D01*
X7118756Y4398060D01*
X7115505Y4400245D01*
X7113270Y4403547D01*
X7112508Y4407458D01*
X7112508Y4569307D01*
X7111796Y4575657D01*
X7109866Y4581093D01*
X7106818Y4586020D01*
X7102703Y4590084D01*
X7097826Y4593183D01*
X7092340Y4595063D01*
X7086041Y4595774D01*
X6934758Y4595774D01*
X6928459Y4595063D01*
X6922973Y4593183D01*
X6918096Y4590084D01*
X6913981Y4586020D01*
X6910933Y4581093D01*
X6909003Y4575657D01*
X6908292Y4569307D01*
X6908292Y4370476D01*
X6909003Y4364126D01*
X6910933Y4358690D01*
X6913981Y4353763D01*
X6918096Y4349699D01*
X6922973Y4346600D01*
X6928459Y4344720D01*
X6934758Y4343958D01*
X6983730Y4343958D01*
X6987946Y4343095D01*
X6991350Y4340555D01*
X6993432Y4336846D01*
X6993839Y4332579D01*
X6992416Y4328566D01*
X6989521Y4325467D01*
X6985558Y4323842D01*
X6976059Y4320540D01*
X6967220Y4315764D01*
X6959244Y4309618D01*
X6952437Y4302201D01*
X6946950Y4293768D01*
X6942937Y4284573D01*
X6940448Y4274820D01*
X6939635Y4264812D01*
X6940448Y4254804D01*
X6942937Y4245051D01*
X6946950Y4235856D01*
X6952437Y4227423D01*
X6959244Y4220006D01*
X6967220Y4213860D01*
X6976059Y4209084D01*
X6985558Y4205782D01*
G37*
G36*
X7716062Y4357471D02*
G01*
X7716062Y4413554D01*
X7659979Y4413554D01*
X7660944Y4411421D01*
X7668818Y4398365D01*
X7678166Y4386427D01*
X7688935Y4375658D01*
X7700873Y4366310D01*
X7713878Y4358436D01*
G37*
G36*
X7659979Y4526229D02*
G01*
X7716062Y4526229D01*
X7716062Y4582363D01*
X7713878Y4581347D01*
X7700873Y4573524D01*
X7688935Y4564126D01*
X7678166Y4553356D01*
X7668818Y4541418D01*
X7660944Y4528413D01*
G37*
G36*
X7828737Y4526229D02*
G01*
X7884820Y4526229D01*
X7883855Y4528413D01*
X7875981Y4541418D01*
X7866634Y4553356D01*
X7855864Y4564126D01*
X7843926Y4573524D01*
X7830921Y4581347D01*
X7828737Y4582363D01*
G37*
G36*
X7333437Y5882436D02*
G01*
X7335621Y5883452D01*
X7348626Y5891276D01*
X7360564Y5900674D01*
X7371334Y5911443D01*
X7380681Y5923381D01*
X7388555Y5936386D01*
X7389520Y5938570D01*
X7333437Y5938570D01*
G37*
G36*
X7220762Y5882436D02*
G01*
X7220762Y5938570D01*
X7164679Y5938570D01*
X7165644Y5936386D01*
X7173518Y5923381D01*
X7182866Y5911443D01*
X7193635Y5900674D01*
X7205573Y5891276D01*
X7218578Y5883452D01*
G37*
G36*
X7164679Y6051245D02*
G01*
X7220762Y6051245D01*
X7220762Y6107328D01*
X7218578Y6106363D01*
X7205573Y6098489D01*
X7193635Y6089142D01*
X7182866Y6078372D01*
X7173518Y6066434D01*
X7165644Y6053378D01*
G37*
G36*
X7333437Y6051245D02*
G01*
X7389520Y6051245D01*
X7388555Y6053378D01*
X7380681Y6066434D01*
X7371334Y6078372D01*
X7360564Y6089142D01*
X7348626Y6098489D01*
X7335621Y6106363D01*
X7333437Y6107328D01*
G37*
G36*
X6570370Y7580122D02*
G01*
X6570370Y7628737D01*
X6521754Y7628737D01*
X6525006Y7622133D01*
X6532676Y7610652D01*
X6541820Y7600238D01*
X6552234Y7591094D01*
X6563766Y7583373D01*
G37*
G36*
X6521754Y7721447D02*
G01*
X6570370Y7721447D01*
X6570370Y7770063D01*
X6563766Y7766812D01*
X6552234Y7759090D01*
X6541820Y7749946D01*
X6532676Y7739532D01*
X6525006Y7728051D01*
G37*

%LPD*%
D10*
X10325102Y5994907D02*
G01*
X10708540Y5611469D01*
X10708540Y4142638D01*
X10541002Y3975100D01*
X10579102Y5994907D02*
G01*
X10759975Y5814034D01*
X10759975Y4009085D01*
X10605924Y3855034D01*
X10407068Y3855034D01*
X10287002Y3975100D01*
X10566402Y4469892D02*
G01*
X10071610Y3975100D01*
X10033002Y3975100D01*
X10312402Y4469892D02*
G01*
X9899093Y4056583D01*
X9899093Y3975100D01*
X9779002Y3975100D02*
G01*
X9899093Y3975100D01*
D11*
X7785102Y5994907D02*
G01*
X6769051Y7010958D01*
X6769051Y7988350D01*
X6642102Y8115300D01*
X1181102Y4724400D02*
G01*
X2664513Y4724400D01*
X3551557Y3837355D01*
X3799258Y3837355D01*
X3924302Y3962400D01*
X3924302Y3962400D02*
G01*
X4331413Y4369511D01*
X4331413Y7085050D01*
X4559886Y7313523D01*
X4613480Y7313523D01*
X5284167Y7984210D01*
X6511013Y7984210D01*
X6642102Y8115300D01*
X7378702Y6972300D02*
G01*
X7142507Y7208494D01*
X7142507Y7741335D01*
X6896102Y7987741D01*
X6896102Y8115300D02*
G01*
X6896102Y7987741D01*
D12*
X1130200Y6140221D02*
G01*
X2705102Y7715122D01*
X2705102Y8140700D01*
X1130200Y5990107D02*
G01*
X1130200Y6140221D01*
D10*
X3450109Y7835900D02*
G01*
X3695702Y8081492D01*
X3695702Y8216900D01*
X4770909Y7823200D02*
G01*
X5045356Y7823200D01*
X5366336Y8144179D01*
X5366336Y8204200D01*
X5486402Y8204200D02*
G01*
X5366336Y8204200D01*
X3437409Y7073900D02*
G01*
X3695702Y7332192D01*
X3695702Y7454900D01*
X3450109Y6311900D02*
G01*
X3695702Y6557492D01*
X3695702Y6680200D01*
X3437409Y5549900D02*
G01*
X3695702Y5808192D01*
X3695702Y5930900D01*
D12*
X2580083Y5990107D02*
G01*
X1923976Y5334000D01*
X1320802Y5334000D01*
X2730197Y5990107D02*
G01*
X2580083Y5990107D01*
X3949702Y8216900D02*
G01*
X3949702Y7454900D01*
X3949702Y7454900D02*
G01*
X3949702Y6680200D01*
X3949702Y6680200D02*
G01*
X3949702Y5930900D01*
X3949702Y5930900D02*
G01*
X3949702Y4975605D01*
X3774696Y4800600D01*
X5341876Y5930900D02*
G01*
X5232402Y5930900D01*
X5341876Y5930900D02*
G01*
X5341876Y4985029D01*
X5394708Y4932197D01*
X5394708Y4787900D01*
X2844802Y5334000D02*
G01*
X3241296Y5334000D01*
X3774696Y4800600D01*
X5232402Y7429500D02*
G01*
X5232402Y6950354D01*
X5354779Y6827977D01*
X5219702Y6692900D02*
G01*
X5354779Y6827977D01*
X5354779Y6827977D02*
G01*
X5591253Y6827977D01*
X5608779Y6810451D01*
X5608779Y6307277D01*
X5341876Y6040373D01*
X5341876Y5930900D01*
D10*
X4783609Y6299200D02*
G01*
X5019956Y6299200D01*
X5353636Y6632879D01*
X5353636Y6692900D01*
X5473702Y6692900D02*
G01*
X5353636Y6692900D01*
D12*
X3670302Y3962400D02*
G01*
X3670302Y4346194D01*
X4124708Y4800600D01*
X1316154Y3962400D02*
G01*
X1451206Y3827348D01*
X2189050Y3827348D01*
X2324102Y3962400D01*
X1181102Y3962400D02*
G01*
X1316154Y3962400D01*
X4203702Y8216900D02*
G01*
X4203702Y7454900D01*
X4203702Y7454900D02*
G01*
X4203702Y6680200D01*
X4203702Y6680200D02*
G01*
X4203702Y5930900D01*
X4203702Y5930900D02*
G01*
X4203702Y4879594D01*
X4124708Y4800600D01*
X6221402Y4051300D02*
G01*
X7124880Y4954778D01*
X7277102Y4954778D01*
X7277102Y5994907D02*
G01*
X7277102Y4954778D01*
X7277102Y4954778D02*
G01*
X7761988Y4469892D01*
X7772402Y4469892D01*
X4978402Y5930900D02*
G01*
X4648202Y6261100D01*
X4648202Y6335648D01*
X4965702Y6653148D01*
X4965702Y6692900D01*
X7277102Y5994907D02*
G01*
X7277102Y6021070D01*
X6835117Y6463055D01*
X6835117Y6649567D01*
X6616702Y6867982D01*
X6616702Y7675118D01*
D10*
X5486402Y7429500D02*
G01*
X5486402Y7244842D01*
X5315460Y7073900D01*
X9296402Y4469892D02*
G01*
X8403008Y5363286D01*
X5973904Y5402605D02*
G01*
X5973904Y6158890D01*
X5833595Y6299200D01*
X4890797Y5229809D02*
G01*
X4873398Y5212410D01*
X4873398Y4403496D01*
X4432302Y3962400D01*
X9563102Y5994907D02*
G01*
X8769479Y5201285D01*
X1181102Y4216400D02*
G01*
X2607795Y4216400D01*
X3052371Y3771823D01*
X3921025Y3771823D01*
X4052496Y3903294D01*
X4052496Y4013403D01*
X4816299Y4777206D01*
X4816299Y5386882D01*
X5264812Y4916246D02*
G01*
X5264812Y5403672D01*
X4500095Y6168389D01*
X4500095Y6311900D01*
D12*
X2311072Y8140700D02*
G01*
X1768960Y7598587D01*
X1562102Y7598587D01*
X2451102Y8140700D02*
G01*
X2311072Y8140700D01*
X6021402Y4051300D02*
G01*
X6051933Y4051300D01*
X7057189Y5056555D01*
X7057189Y5960821D01*
X7023102Y5994907D01*
X7023102Y5994907D02*
G01*
X7023102Y6147714D01*
X6797677Y6373139D01*
D10*
X9817102Y5994907D02*
G01*
X9817102Y5852109D01*
X8944637Y4979644D01*
X4686302Y3962400D02*
G01*
X4807003Y3841699D01*
X4998544Y3841699D01*
X5067302Y3910456D01*
X5067302Y4231614D01*
X4923792Y4375124D01*
X4923792Y5173167D01*
X4990950Y5240324D01*
X4990950Y5452745D01*
X8547102Y5994907D02*
G01*
X8547102Y5606795D01*
X7652285Y4711979D01*
X6524906Y4645888D02*
G01*
X6976645Y5097627D01*
X6976645Y5832729D01*
X8039102Y5994907D02*
G01*
X7485077Y5440883D01*
X7485077Y4860696D01*
X5448302Y3962400D02*
G01*
X5448302Y4648835D01*
X5660163Y4860696D01*
D11*
X7264402Y4469892D02*
G01*
X7059322Y4264812D01*
X7000496Y4264812D01*
X6211902Y6281140D02*
G01*
X6211902Y4520234D01*
X6303749Y4428388D01*
X6443779Y4569713D02*
G01*
X6443779Y4705654D01*
X6746801Y5008676D01*
X6746801Y5367070D01*
X6717642Y5396229D01*
X6717642Y6406286D01*
X6750077Y6438722D01*
X6750077Y6614337D01*
D10*
X5833595Y7073900D02*
G01*
X6384368Y6523126D01*
X6384368Y4787188D01*
X8534402Y4469892D02*
G01*
X7898869Y3834358D01*
X5408094Y3834358D01*
X5321302Y3921150D01*
X5321302Y4464380D01*
X5164406Y4621276D01*
X5164406Y5414441D01*
X4508680Y6070168D01*
X4487395Y7073900D02*
G01*
X4610051Y6951243D01*
X4610051Y6414973D01*
X6679262Y5339079D02*
G01*
X6499125Y5519216D01*
X6499125Y7144969D01*
X5820895Y7823200D01*
X8280402Y4469892D02*
G01*
X8280402Y5249646D01*
X8285838Y5255082D01*
X8026402Y4469892D02*
G01*
X7492443Y3935933D01*
X5980838Y3935933D01*
X5723536Y4193235D01*
X5723536Y7424420D01*
X5433062Y7714894D01*
X5148607Y7714894D01*
D13*
G01*
X6616700Y6625094D03*
G01*
X6616700Y7675105D03*
D14*
G01*
X6642100Y8115300D03*
D15*
G01*
X6896100Y8115300D03*
D16*
G01*
X6021400Y4051300D03*
G01*
X6221399Y4051300D03*
D13*
G01*
X5044693Y4787900D03*
G01*
X5394706Y4787900D03*
G01*
X4124706Y4800600D03*
G01*
X3774693Y4800600D03*
D17*
G01*
X1320800Y5334000D03*
D19*
G01*
X2844800Y5334000D03*
D20*
G01*
X1562100Y7598587D03*
G01*
X1562100Y8098586D03*
D21*
G01*
X1816100Y3962400D03*
D22*
G01*
X2070100Y3962400D03*
G01*
X2324100Y3962400D03*
D21*
G01*
X5486400Y5930900D03*
D22*
G01*
X5232400Y5930900D03*
G01*
X4978400Y5930900D03*
D21*
G01*
X3695700Y5930900D03*
D22*
G01*
X3949700Y5930900D03*
G01*
X4203700Y5930900D03*
D21*
G01*
X5473700Y6692900D03*
D22*
G01*
X5219700Y6692900D03*
G01*
X4965700Y6692900D03*
D21*
G01*
X3695700Y6680200D03*
D22*
G01*
X3949700Y6680200D03*
G01*
X4203700Y6680200D03*
D21*
G01*
X5486400Y7429500D03*
D22*
G01*
X5232400Y7429500D03*
G01*
X4978400Y7429500D03*
D21*
G01*
X3695700Y7454900D03*
D22*
G01*
X3949700Y7454900D03*
G01*
X4203700Y7454900D03*
D21*
G01*
X5486400Y8204200D03*
D22*
G01*
X5232400Y8204200D03*
G01*
X4978400Y8204200D03*
D21*
G01*
X3695700Y8216900D03*
D22*
G01*
X3949700Y8216900D03*
G01*
X4203700Y8216900D03*
D23*
G01*
X3450107Y7835900D03*
G01*
X4500092Y7835900D03*
G01*
X4770907Y7823200D03*
G01*
X5820892Y7823200D03*
G01*
X3437407Y7073900D03*
G01*
X4487392Y7073900D03*
G01*
X4783607Y7073900D03*
G01*
X5833592Y7073900D03*
G01*
X3450107Y6311900D03*
G01*
X4500092Y6311900D03*
G01*
X4783607Y6299200D03*
G01*
X5833592Y6299200D03*
G01*
X3437407Y5549900D03*
G01*
X4487392Y5549900D03*
G01*
X4796307Y5549900D03*
G01*
X5846292Y5549900D03*
G01*
X1570507Y4368800D03*
G01*
X2620492Y4368800D03*
D13*
G01*
X6972325Y6637781D03*
G01*
X6972325Y7687792D03*
D14*
G01*
X2705100Y8140700D03*
D15*
G01*
X2451100Y8140700D03*
D24*
G01*
X2730195Y5990107D03*
G01*
X1130198Y5990107D03*
G01*
X1130198Y6990105D03*
G01*
X2730195Y6990105D03*
D25*
G01*
X7378700Y7734300D03*
D26*
G01*
X7378700Y7988300D03*
D25*
G01*
X7378700Y7480300D03*
G01*
X7378700Y7226300D03*
G01*
X7378700Y6972300D03*
G01*
X7378700Y6718300D03*
D21*
G01*
X1181100Y3962400D03*
D22*
G01*
X1181100Y4216400D03*
G01*
X1181100Y4470400D03*
G01*
X1181100Y4724400D03*
D21*
G01*
X9779000Y3975100D03*
D22*
G01*
X10033000Y3975100D03*
G01*
X10287000Y3975100D03*
G01*
X10541000Y3975100D03*
G01*
X5448300Y3962400D03*
G01*
X5194300Y3962400D03*
G01*
X4940300Y3962400D03*
G01*
X4686300Y3962400D03*
G01*
X4432300Y3962400D03*
G01*
X4178300Y3962400D03*
G01*
X3924300Y3962400D03*
D27*
G01*
X3670300Y3962400D03*
D28*
G01*
X8788400Y4469892D03*
G01*
X9042400Y4469892D03*
G01*
X9296400Y4469892D03*
G01*
X9550400Y4469892D03*
G01*
X9804400Y4469892D03*
G01*
X10058400Y4469892D03*
G01*
X10312400Y4469892D03*
G01*
X10566400Y4469892D03*
G01*
X8534400Y4469892D03*
G01*
X8280400Y4469892D03*
G01*
X8026400Y4469892D03*
G01*
X7772400Y4469892D03*
G01*
X7518400Y4469892D03*
G01*
X7264400Y4469892D03*
D29*
G01*
X7010400Y4469892D03*
D28*
G01*
X7023100Y5994907D03*
G01*
X7277100Y5994907D03*
G01*
X7531100Y5994907D03*
G01*
X7785100Y5994907D03*
G01*
X8039100Y5994907D03*
G01*
X8293100Y5994907D03*
G01*
X8547100Y5994907D03*
G01*
X10579100Y5994907D03*
G01*
X10325100Y5994907D03*
G01*
X10071100Y5994907D03*
G01*
X9817100Y5994907D03*
G01*
X9563100Y5994907D03*
G01*
X9309100Y5994907D03*
G01*
X9055100Y5994907D03*
G01*
X8801100Y5994907D03*
D30*
G01*
X5148607Y7714894D03*
G01*
X6679262Y5339079D03*
G01*
X8285838Y5255082D03*
G01*
X4610051Y6414973D03*
G01*
X4508680Y6070168D03*
G01*
X6384368Y4787188D03*
D31*
G01*
X6750077Y6614337D03*
G01*
X6443779Y4569713D03*
G01*
X6211902Y6281140D03*
G01*
X6303749Y4428388D03*
G01*
X7000496Y4264812D03*
D30*
G01*
X5660163Y4860696D03*
G01*
X7485077Y4860696D03*
G01*
X6524906Y4645888D03*
G01*
X6976645Y5832729D03*
G01*
X7652285Y4711979D03*
G01*
X4990950Y5452745D03*
G01*
X8944637Y4979644D03*
D32*
G01*
X6797677Y6373139D03*
D30*
G01*
X5264812Y4916246D03*
G01*
X4816299Y5386882D03*
G01*
X4890797Y5229809D03*
G01*
X8769479Y5201285D03*
G01*
X5973904Y5402605D03*
G01*
X8403008Y5363286D03*
G01*
X5315460Y7073900D03*
M02*
